<svg width="32" height="30" viewBox="0 0 32 30" fill="none" xmlns="http://www.w3.org/2000/svg">
<path d="M8.1871 11.5323H5.37123C5.12567 11.5323 4.92696 11.7308 4.92696 11.9753V14.7828C4.92696 15.0276 5.12607 15.2257 5.37123 15.2257H8.1871C8.43266 15.2257 8.63137 15.0272 8.63137 14.7828V11.9753C8.63137 11.7304 8.43225 11.5323 8.1871 11.5323ZM7.74283 14.3398H5.81591V12.4186H7.74283V14.3398ZM13.8188 11.5323H11.003C10.7574 11.5323 10.5587 11.7308 10.5587 11.9753V14.7828C10.5587 15.0276 10.7578 15.2257 11.003 15.2257H13.8188C14.0644 15.2257 14.2631 15.0272 14.2631 14.7828V11.9753C14.2631 11.7304 14.064 11.5323 13.8188 11.5323ZM13.3746 14.3398H11.4476V12.4186H13.3746V14.3398ZM19.4506 11.5323H16.6347C16.3891 11.5323 16.1904 11.7308 16.1904 11.9753V14.7828C16.1904 15.0276 16.3895 15.2257 16.6347 15.2257H19.4506C19.6961 15.2257 19.8948 15.0272 19.8948 14.7828V11.9753C19.8948 11.7304 19.6957 11.5323 19.4506 11.5323ZM19.0063 14.3398H17.0794V12.4186H19.0063V14.3398ZM22.2664 15.2261H25.0823C25.3279 15.2261 25.5266 15.0276 25.5266 14.7832V11.9757C25.5266 11.7309 25.3275 11.5327 25.0823 11.5327H22.2664C22.0209 11.5327 21.8222 11.7313 21.8222 11.9757V14.7832C21.8222 15.028 22.0213 15.2261 22.2664 15.2261ZM22.7107 12.4186H24.6376V14.3398H22.7107V12.4186ZM8.18669 17.1473H5.37083C5.12527 17.1473 4.92656 17.3458 4.92656 17.5902V20.3977C4.92656 20.6425 5.12567 20.8407 5.37083 20.8407H8.18669C8.43225 20.8407 8.63096 20.6421 8.63096 20.3977V17.5902C8.63096 17.3454 8.43185 17.1473 8.18669 17.1473ZM7.74242 19.9548H5.8155V18.0336H7.74242V19.9548ZM13.8184 17.1473H11.0026C10.757 17.1473 10.5583 17.3458 10.5583 17.5902V20.3977C10.5583 20.6425 10.7574 20.8407 11.0026 20.8407H13.8184C14.064 20.8407 14.2627 20.6421 14.2627 20.3977V17.5902C14.2627 17.3454 14.0636 17.1473 13.8184 17.1473ZM13.3742 19.9548H11.4472V18.0336H13.3742V19.9548ZM19.4502 17.1473H16.6343C16.3887 17.1473 16.19 17.3458 16.19 17.5902V20.3977C16.19 20.6425 16.3891 20.8407 16.6343 20.8407H19.4502C19.6957 20.8407 19.8944 20.6421 19.8944 20.3977V17.5902C19.8944 17.3454 19.6953 17.1473 19.4502 17.1473ZM19.0059 19.9548H17.079V18.0336H19.0059V19.9548ZM25.0819 20.8411C25.3275 20.8411 25.5262 20.6425 25.5262 20.3981V17.5906C25.5262 17.3458 25.3271 17.1477 25.0819 17.1477H22.266C22.0205 17.1477 21.8218 17.3462 21.8218 17.5906V20.3981C21.8218 20.6429 22.0209 20.8411 22.266 20.8411H25.0819ZM22.7103 18.0336H24.6372V19.9548H22.7103V18.0336ZM8.18629 22.7622H5.37042C5.12486 22.7622 4.92615 22.9608 4.92615 23.2052V26.0127C4.92615 26.2575 5.12527 26.4556 5.37042 26.4556H8.18629C8.43185 26.4556 8.63056 26.2571 8.63056 26.0127V23.2052C8.63056 22.9604 8.43145 22.7622 8.18629 22.7622ZM7.74202 25.5697H5.8151V23.6485H7.74202V25.5697ZM13.818 22.7622H11.0022C10.7566 22.7622 10.5579 22.9608 10.5579 23.2052V26.0127C10.5579 26.2575 10.757 26.4556 11.0022 26.4556H13.818C14.0636 26.4556 14.2623 26.2571 14.2623 26.0127V23.2052C14.2623 22.9604 14.0632 22.7622 13.818 22.7622ZM13.3738 25.5697H11.4468V23.6485H13.3738V25.5697ZM19.4498 22.7622H16.6339C16.3883 22.7622 16.1896 22.9608 16.1896 23.2052V26.0127C16.1896 26.2575 16.3887 26.4556 16.6339 26.4556H19.4498C19.6953 26.4556 19.894 26.2571 19.894 26.0127V23.2052C19.894 22.9604 19.6949 22.7622 19.4498 22.7622ZM19.0055 25.5697H17.0786V23.6485H19.0055V25.5697ZM30.6623 3.62894H25.1267V1.88655C25.1267 0.846431 24.2778 0 23.2345 0C22.1913 0 21.3424 0.846431 21.3424 1.88655V3.62894H8.66489V1.88655C8.66489 0.846431 7.81593 0 6.7727 0C5.72947 0 4.88051 0.846431 4.88051 1.88655V3.62894H1.33847C0.600573 3.62894 0 4.22773 0 4.96342V28.6655C0 29.4012 0.600573 30 1.33847 30H30.6615C31.3994 30 32 29.4012 32 28.6655V4.96342C32 4.22773 31.3998 3.62894 30.6615 3.62894H30.6623ZM24.325 28.4698V24.9879C24.325 24.7406 24.5266 24.5397 24.7745 24.5397H28.4539L24.325 28.4698ZM22.2317 1.88655C22.2317 1.33488 22.6816 0.886297 23.2349 0.886297C23.7883 0.886297 24.2382 1.33488 24.2382 1.88655V5.68784C24.2382 6.23951 23.7883 6.6881 23.2349 6.6881C22.6816 6.6881 22.2317 6.23951 22.2317 5.68784V1.88655ZM5.77027 1.88655C5.77027 1.33488 6.22019 0.886297 6.77351 0.886297C7.32683 0.886297 7.77675 1.33488 7.77675 1.88655V5.61939C7.77675 6.17106 7.32683 6.61964 6.77351 6.61964C6.22019 6.61964 5.77027 6.17106 5.77027 5.61939V1.88655ZM1.33927 4.51524H4.88132V5.61939C4.88132 6.65951 5.73028 7.50594 6.77351 7.50594C7.81674 7.50594 8.6657 6.65951 8.6657 5.61939V4.51524H21.3432V5.68784C21.3432 6.72796 22.1921 7.5744 23.2353 7.5744C24.2786 7.5744 25.1275 6.72796 25.1275 5.68784V4.51524H28.6696C28.9176 4.51524 29.1191 4.71618 29.1191 4.96342V8.96323H0.890561V4.96342C0.890561 4.71618 1.0921 4.51524 1.34008 4.51524H1.33927ZM1.33927 29.1137C1.09129 29.1137 0.889753 28.9128 0.889753 28.6655V9.84953H29.1187V23.6534H24.7745C24.0367 23.6534 23.4361 24.2522 23.4361 24.9879V29.1137H1.33968H1.33927ZM31.1119 28.6655C31.1119 28.9128 30.9103 29.1137 30.6623 29.1137H25.0609L29.874 24.4132C29.874 24.4132 29.8748 24.412 29.8752 24.4112C29.9038 24.383 29.9232 24.3472 29.9434 24.3122C29.9515 24.2977 29.9648 24.286 29.9713 24.2711C29.9713 24.2703 29.9721 24.2695 29.9725 24.2687C29.9834 24.2425 29.9838 24.2143 29.9895 24.1869C29.9951 24.1591 30.006 24.1326 30.0064 24.1044C30.0064 24.1028 30.0064 24.1008 30.0064 24.0991C30.0064 24.0983 30.0068 24.0975 30.0068 24.0967V4.96342C30.0068 4.80557 29.9745 4.65618 29.9236 4.51524H30.6619C30.9099 4.51524 31.1115 4.71618 31.1115 4.96342L31.1119 28.6655Z" fill="white"/>
</svg>
