<svg width="90" height="115" viewBox="0 0 90 115" fill="none" xmlns="http://www.w3.org/2000/svg">
<path fill-rule="evenodd" clip-rule="evenodd" d="M64.2823 58.035C66.4328 58.8261 68.2899 60.2639 69.6022 62.1535C70.9144 64.043 71.6184 66.2932 71.6188 68.5992L71.6186 68.6288C69.468 67.8378 67.6107 66.4002 66.2984 64.5105C64.9861 62.6209 64.2822 60.3707 64.282 58.0646L64.2823 58.035ZM64.697 55.0143C67.5662 55.9244 70.0727 57.7323 71.8522 60.1752C73.6317 62.6181 74.5915 65.5689 74.5922 68.5988C74.5922 68.8249 74.586 69.0493 74.5755 69.273C74.8616 69.2952 75.1512 69.3069 75.4429 69.3069C77.5199 69.3063 79.5555 68.722 81.3207 67.6197C83.0859 66.5175 84.5108 64.941 85.4351 63.0676C86.3593 61.1942 86.7463 59.0982 86.5524 57.0154C86.3585 54.9325 85.5915 52.9455 84.3376 51.2778C83.0837 49.6101 81.3927 48.3279 79.4548 47.5753C77.5169 46.8228 75.409 46.6298 73.3681 47.018C71.3273 47.4063 69.4344 48.3604 67.9026 49.7731C66.3707 51.1857 65.2605 53.0009 64.697 55.0143ZM17.465 68.019C17.5886 65.6212 18.4707 63.3261 19.9822 61.4694C21.4937 59.6127 23.5553 58.2918 25.8656 57.6999C25.7419 60.0977 24.8598 62.3927 23.3483 64.2494C21.8368 66.1061 19.7752 67.427 17.465 68.019ZM34.3587 58.9604C35.8583 59.8677 37.1252 61.1174 38.0572 62.6086C38.9892 64.0998 39.5601 65.7907 39.724 67.5449C38.2243 66.6376 36.9574 65.388 36.0254 63.8968C35.0935 62.4056 34.5226 60.7147 34.3587 58.9604ZM14.4806 68.3598C14.5346 65.1497 15.6639 62.0521 17.6851 59.5695C19.7064 57.0869 22.5011 55.365 25.616 54.6831C25.1622 52.6244 24.1426 50.7357 22.6738 49.2329C21.205 47.73 19.3462 46.6736 17.3096 46.1842C15.273 45.6948 13.1408 45.7923 11.1566 46.4654C9.17243 47.1385 7.41619 48.3602 6.08854 49.9908C4.76089 51.6215 3.91535 53.5954 3.64851 55.687C3.38168 57.7787 3.7043 59.9038 4.57953 61.8195C5.45477 63.7353 6.84731 65.3645 8.59811 66.521C10.3489 67.6775 12.3873 68.3147 14.4806 68.3598ZM28.8505 57.3602C28.7961 60.5702 27.6666 63.6676 25.6451 66.1499C23.6237 68.6323 20.829 70.3539 17.7142 71.0357C18.2688 73.5502 19.6637 75.7966 21.6657 77.3994C23.6677 79.0021 26.1553 79.8639 28.7125 79.8407C31.2697 79.8175 33.7415 78.9106 35.7144 77.2718C37.6874 75.633 39.0419 73.3616 39.5514 70.8374C37.0989 69.6978 35.0217 67.8743 33.5659 65.5828C32.1101 63.2913 31.3364 60.6277 31.3366 57.9072C31.3366 57.8365 31.3383 57.7661 31.3393 57.6957C30.5248 57.49 29.69 57.3773 28.8505 57.3602ZM38.186 58.1276L35.6888 52.491C35.145 53.4847 34.7547 54.556 34.5315 55.6681C35.8694 56.2913 37.1024 57.1211 38.186 58.1276ZM46.6846 65.3839L45.1901 60.3071L42.4535 65.7013C42.6491 66.6545 42.7475 67.6254 42.747 68.5988C42.747 68.6699 42.7449 68.7399 42.744 68.8106C43.6357 69.0362 44.5516 69.1501 45.471 69.1496C45.7612 69.1496 46.0478 69.1379 46.3326 69.1161C46.3264 68.9444 46.3225 68.7723 46.3225 68.5988C46.3218 67.5169 46.4433 66.4382 46.6846 65.3839ZM55.2082 68.2248L56.3456 73.4952L59.8529 69.0456L59.8534 69.0461C59.8901 68.9995 59.9393 68.9645 59.9952 68.9453C60.0511 68.9262 60.1113 68.9236 60.1685 68.9381C60.2258 68.9525 60.2778 68.9832 60.3181 69.0266C60.3585 69.07 60.3856 69.1242 60.3961 69.1827L62.304 79.6875C64.3905 79.3331 66.3343 78.3895 67.9094 76.9664C69.4845 75.5433 70.6263 73.6991 71.202 71.6483C68.333 70.7382 65.8268 68.9303 64.0476 66.4875C62.2684 64.0446 61.309 61.094 61.3086 58.0644C61.3086 57.8386 61.3145 57.6139 61.3246 57.3905C61.0382 57.3682 60.7489 57.3571 60.4569 57.3571C60.1674 57.3571 59.8795 57.3679 59.5955 57.3898C59.6017 57.5615 59.6062 57.7339 59.6062 57.9071C59.6083 59.8377 59.2193 61.7485 58.4631 63.5226C57.7069 65.2967 56.5994 66.8966 55.2082 68.2248ZM53.4079 59.8829L54.4286 64.6124C55.8366 62.7104 56.6079 60.4069 56.6311 58.0346C55.4617 58.465 54.3722 59.0897 53.4079 59.8829ZM50.8563 48.0591L52.7177 56.6842C53.8132 55.9602 55.0038 55.3938 56.2549 55.0017C55.8646 53.5383 55.1854 52.1693 54.2578 50.9765C53.3302 49.7836 52.1733 48.7913 50.8563 48.0591ZM52.1694 57.0658L50.1478 47.6978C48.6818 47.0155 47.0859 46.6632 45.471 46.6654C44.9695 46.6653 44.4685 46.6989 43.9714 46.766L43.6714 47.2565C43.6391 47.3093 43.5918 47.3511 43.5356 47.3764C43.4794 47.4018 43.417 47.4095 43.3564 47.3986C43.2958 47.3878 43.2398 47.3588 43.1957 47.3155C43.1517 47.2722 43.1216 47.2165 43.1093 47.1558H43.1089L43.0621 46.9282C40.18 47.5718 37.6677 49.3378 36.0738 51.8407L39.4503 59.462C40.7433 61.0142 41.6917 62.8272 42.2316 64.7792L44.9932 59.336C45.0211 59.2809 45.0648 59.2355 45.1187 59.2057C45.1725 59.1759 45.234 59.163 45.2952 59.1688C45.3564 59.1745 45.4144 59.1987 45.4618 59.238C45.5093 59.2774 45.5439 59.3301 45.5612 59.3895L45.5617 59.3894L46.9934 64.2534C47.916 61.3641 49.7291 58.8462 52.1694 57.0658ZM53.9326 65.2358L52.8776 60.3472C51.7628 61.384 50.8701 62.6394 50.2545 64.0363C49.6388 65.4332 49.3132 66.9421 49.2975 68.4704C51.0915 67.8088 52.6872 66.6951 53.9326 65.2358ZM61.6945 79.7723L59.9135 69.9659L56.4235 74.3935C56.3872 74.4395 56.3387 74.4741 56.2837 74.4934C56.2287 74.5127 56.1693 74.5159 56.1126 74.5025C56.0558 74.4892 56.004 74.4599 55.9632 74.418C55.9223 74.3762 55.8941 74.3235 55.8818 74.2661H55.8814L54.6812 68.7049C53.2192 69.973 51.5144 70.9256 49.6724 71.5039C50.3636 74.1024 51.9564 76.3653 54.1621 77.8823C56.3677 79.3993 59.0401 80.0697 61.6945 79.7723ZM45.8612 43.6762C47.0589 43.7081 48.2477 43.8934 49.3988 44.2278L48.3882 39.5445L45.8612 43.6762ZM34.6851 48.7064C36.6918 46.3178 39.4241 44.6618 42.4592 43.9945L39.55 29.8383L32.2237 26.5987L27.0865 31.5551L34.6851 48.7064ZM29.6931 99.853L31.7915 100.189L32.5884 104.626L34.6903 100.653L36.7274 100.979L33.3965 106.434L31.2238 106.086L29.6931 99.853ZM37.6132 100.71L39.6374 100.921L39.0314 106.804L37.0072 106.592L37.6132 100.71ZM40.6827 104.757L42.615 104.648C42.6375 104.884 42.7262 105.108 42.8707 105.294C42.9846 105.417 43.124 105.513 43.2791 105.575C43.4341 105.637 43.6008 105.663 43.7672 105.652C44.0045 105.667 44.2402 105.603 44.4374 105.469C44.5072 105.422 44.5648 105.359 44.6055 105.285C44.6462 105.211 44.6688 105.128 44.6714 105.044C44.6687 104.962 44.6471 104.883 44.6083 104.811C44.5695 104.74 44.5146 104.678 44.4481 104.632C44.2983 104.511 43.9525 104.397 43.4077 104.289C42.5172 104.109 41.8823 103.869 41.5029 103.572C41.3231 103.442 41.177 103.271 41.0771 103.072C40.9772 102.873 40.9264 102.653 40.9291 102.43C40.9315 102.119 41.0345 101.816 41.2226 101.568C41.4501 101.275 41.7565 101.054 42.1054 100.931C42.6258 100.757 43.1731 100.678 43.7211 100.699C44.5611 100.699 45.2018 100.84 45.6431 101.121C45.8667 101.269 46.0537 101.468 46.1899 101.7C46.3262 101.932 46.4082 102.193 46.4296 102.462L44.5153 102.562C44.4865 102.334 44.3715 102.126 44.1942 101.981C43.9945 101.851 43.7587 101.788 43.521 101.801C43.3331 101.787 43.1458 101.835 42.9866 101.936C42.9324 101.972 42.8877 102.021 42.8565 102.078C42.8253 102.135 42.8085 102.2 42.8076 102.265C42.8104 102.316 42.8251 102.366 42.8508 102.41C42.8764 102.454 42.912 102.491 42.9548 102.518C43.1654 102.636 43.3974 102.71 43.6369 102.736C44.2892 102.841 44.9283 103.017 45.5435 103.259C45.8779 103.395 46.1683 103.622 46.3822 103.915C46.5564 104.173 46.6481 104.478 46.6452 104.79C46.6448 105.169 46.5219 105.537 46.2952 105.838C46.046 106.171 45.7063 106.424 45.3173 106.567C44.8095 106.747 44.2731 106.831 43.7351 106.815C42.618 106.815 41.8444 106.621 41.4141 106.233C40.9876 105.857 40.725 105.327 40.6827 104.757ZM47.6 100.942L53.0339 100.67L53.0964 101.931L49.6947 102.101L49.7421 103.041L52.8971 102.882L52.9565 104.087L49.8008 104.246L49.8585 105.409L53.3594 105.233L53.4257 106.571L47.8922 106.849L47.6 100.942ZM58.3156 100.104L60.3232 99.823L60.8058 103.316C60.8538 103.651 60.8386 103.992 60.761 104.322C60.6817 104.649 60.5268 104.953 60.3087 105.208C60.1062 105.457 59.8543 105.661 59.5692 105.807C59.1324 106.01 58.6663 106.142 58.1884 106.199C57.8419 106.246 57.4932 106.274 57.1438 106.284C56.8166 106.303 56.4886 106.267 56.173 106.178C55.8963 106.09 55.6382 105.951 55.4115 105.769C55.1942 105.606 55.0159 105.396 54.89 105.154C54.7316 104.852 54.6224 104.527 54.5666 104.19L54.0845 100.697L56.0924 100.416L56.5859 103.992C56.5973 104.132 56.6388 104.267 56.7074 104.39C56.7761 104.512 56.8703 104.617 56.9835 104.699C57.2447 104.841 57.5439 104.896 57.8378 104.855C58.1318 104.815 58.4055 104.681 58.6195 104.474C58.7066 104.364 58.7688 104.236 58.8015 104.099C58.8343 103.961 58.8369 103.819 58.8091 103.68L58.3156 100.104ZM8.36575 76.7722L9.76179 78.4535C10.0127 78.7372 10.2249 79.0534 10.3927 79.3936C10.5359 79.7193 10.5887 80.0779 10.5453 80.4314C10.4981 80.8049 10.3718 81.164 10.1751 81.4842C9.91605 81.8823 9.5959 82.2366 9.22659 82.5336C8.90634 82.8153 8.54176 83.0413 8.14781 83.2024C7.76694 83.3588 7.35461 83.4218 6.94481 83.3862C6.62304 83.3436 6.3155 83.2262 6.04646 83.0433C5.75542 82.8379 5.49596 82.5905 5.27641 82.309L3.84049 80.5776L8.36575 76.7722ZM8.36278 78.3358L5.36681 80.8563L5.93565 81.5434C6.08341 81.7355 6.25281 81.9096 6.44044 82.0624C6.58518 82.1746 6.7555 82.2486 6.9359 82.2777C7.15576 82.2919 7.37552 82.2483 7.57364 82.1513C7.90221 81.9931 8.20743 81.7898 8.48058 81.5472C8.75941 81.328 9.00434 81.0683 9.20735 80.7766C9.33154 80.5884 9.40773 80.3723 9.42917 80.1474C9.43911 79.9357 9.39025 79.7254 9.28809 79.5402C9.11946 79.258 8.92453 78.9925 8.70592 78.7475L8.36278 78.3358ZM8.23761 85.1807L12.1584 80.7464L13.0479 81.5434L9.12576 85.9767L8.23761 85.1807ZM12.2823 80.4008L13.4955 79.869L14.4413 80.7168L12.8164 80.8798L12.2823 80.4008ZM10.4165 87.1549L13.5449 82.1199L14.5267 82.7395L14.4827 87.3894L16.5724 84.03L17.5096 84.6198L14.3804 89.6551L13.3676 89.0159L13.3938 84.4631L11.354 87.7458L10.4165 87.1549ZM21.0854 92.5865L19.8957 92.0713L19.9523 90.626L17.7874 89.6883L16.812 90.735L15.6509 90.2322L20.0908 85.6906L21.2475 86.1921L21.0854 92.5865ZM19.9939 89.5567L20.1128 87.2078L18.5161 88.9164L19.9939 89.5567ZM22.3289 92.6532L24.2089 87.0252L25.8979 87.5985L25.6282 91.7805L27.913 88.2816L29.6048 88.8551L27.7238 94.4828L26.6768 94.1285L28.1582 89.6979L25.5675 93.7515L24.4798 93.3828L24.8562 88.5784L23.3755 93.0082L22.3289 92.6532ZM29.9298 92.0572C29.9886 91.5395 30.1535 91.0396 30.4141 90.5894C30.591 90.3105 30.8147 90.0648 31.0754 89.8634C31.3216 89.6696 31.604 89.5277 31.9059 89.4463C32.3289 89.3437 32.7682 89.3282 33.1973 89.4008C33.5805 89.4388 33.9517 89.5571 34.2869 89.7482C34.622 89.9393 34.9138 90.1989 35.1434 90.5104C35.581 91.1228 35.7304 91.9074 35.5915 92.8641C35.4532 93.8134 35.0889 94.5179 34.4985 94.9775C34.1915 95.2085 33.84 95.3722 33.4665 95.4582C33.093 95.5442 32.7057 95.5505 32.3297 95.4768C31.4611 95.3492 30.8098 94.9812 30.3758 94.3729C29.9421 93.764 29.7934 92.9921 29.9298 92.0572ZM31.1477 92.1968C31.0514 92.8616 31.1307 93.3885 31.3856 93.7772C31.5056 93.9652 31.6654 94.1242 31.8535 94.2429C32.0415 94.3616 32.2533 94.4371 32.4736 94.464C32.6909 94.5021 32.9138 94.4912 33.1265 94.4322C33.3391 94.3732 33.5361 94.2674 33.7034 94.1226C34.0525 93.8261 34.2771 93.3376 34.3772 92.6569C34.4756 91.9839 34.4026 91.4599 34.158 91.0848C34.0286 90.9046 33.8644 90.7524 33.6754 90.6373C33.4863 90.5222 33.2762 90.4466 33.0576 90.4149C32.839 90.3833 32.6162 90.3962 32.4027 90.453C32.1891 90.5098 31.989 90.6093 31.8144 90.7455C31.4691 91.0369 31.2469 91.5207 31.1477 92.1968ZM42.4267 94.2732L43.5795 94.6409C43.4534 95.2081 43.1428 95.7165 42.697 96.0857C42.165 96.4436 41.5265 96.6057 40.8896 96.5445C40.2526 96.4833 39.6561 96.2025 39.2009 95.7496C38.6972 95.2106 38.4451 94.4741 38.4444 93.5403C38.4444 92.5517 38.698 91.7839 39.2051 91.237C39.4607 90.9644 39.7713 90.7502 40.1161 90.6088C40.4608 90.4673 40.8316 90.4019 41.2035 90.4169C41.8507 90.3892 42.4825 90.6208 42.9606 91.0611C43.257 91.3635 43.4659 91.7417 43.5648 92.1549L42.3855 92.4381C42.3312 92.1497 42.176 91.8904 41.948 91.7075C41.72 91.5246 41.4344 91.4302 41.1432 91.4415C40.9419 91.4349 40.7417 91.4741 40.5575 91.5562C40.3733 91.6383 40.2099 91.7611 40.0793 91.9156C39.8076 92.231 39.6717 92.7426 39.6717 93.4505C39.6717 94.2009 39.8058 94.7355 40.074 95.0542C40.2003 95.209 40.3601 95.3325 40.5411 95.4155C40.7222 95.4984 40.9197 95.5384 41.1185 95.5325C41.4191 95.5388 41.711 95.4302 41.9354 95.2286C42.1935 94.9691 42.3652 94.6353 42.4267 94.2732ZM44.594 96.4562V95.3184H45.7237V96.4562H44.594ZM49.6274 96.4043L49.259 90.4775L53.6214 90.2031L53.6835 91.2055L50.5093 91.4058L50.5906 92.7194L53.5456 92.5337L53.6068 93.531L50.6524 93.7174L50.7532 95.3304L54.04 95.1234L54.1022 96.1222L49.6274 96.4043ZM55.2181 93.9098L56.3543 93.6553C56.4298 93.9778 56.6158 94.2632 56.8796 94.4612C57.1456 94.624 57.4612 94.6839 57.7678 94.6299C58.0766 94.615 58.3705 94.4913 58.5979 94.2803C58.6783 94.2035 58.7401 94.1091 58.7786 94.0045C58.8171 93.8998 58.8312 93.7876 58.8198 93.6766C58.8076 93.5465 58.7487 93.4254 58.6541 93.336C58.5229 93.2285 58.3654 93.1583 58.1981 93.1328C58.0547 93.1001 57.7282 93.0539 57.2212 92.9905C56.5685 92.9101 56.1008 92.77 55.8181 92.5703C55.5033 92.3605 55.2756 92.042 55.1779 91.6748C55.0801 91.3076 55.119 90.9171 55.2873 90.5769C55.4333 90.2866 55.6627 90.0474 55.9456 89.8904C56.2945 89.7006 56.6776 89.5831 57.0723 89.5448C57.8082 89.455 58.3797 89.5493 58.7909 89.8276C58.9944 89.9671 59.1658 90.1489 59.2937 90.3607C59.4216 90.5726 59.5029 90.8096 59.5322 91.0558L58.3571 91.2528C58.3031 91.0045 58.1588 90.7857 57.9527 90.6392C57.7144 90.5175 57.4426 90.4796 57.1805 90.5315C56.8939 90.5495 56.6204 90.6585 56.3994 90.843C56.3449 90.8904 56.3032 90.9507 56.278 91.0185C56.2528 91.0864 56.2449 91.1595 56.2552 91.2312C56.2635 91.3004 56.2877 91.3667 56.3257 91.425C56.3637 91.4833 56.4146 91.532 56.4743 91.5672C56.6382 91.6759 57.0167 91.7634 57.6072 91.829C58.0585 91.8661 58.5039 91.956 58.9345 92.097C59.2166 92.2019 59.4652 92.3818 59.6541 92.6175C59.8521 92.8823 59.9722 93.1978 60.0008 93.528C60.0418 93.8646 59.9843 94.206 59.8355 94.5102C59.6829 94.8304 59.4343 95.0942 59.1248 95.2644C58.7371 95.4699 58.3129 95.5962 57.8766 95.6361C57.1365 95.7265 56.5474 95.6238 56.1095 95.3279C55.6424 94.9882 55.3232 94.4804 55.2181 93.9098ZM60.7806 88.8071L63.2293 88.2241L62.2305 82.7244C61.6423 82.7987 61.0501 82.836 60.4572 82.836C57.1985 82.8405 54.0392 81.706 51.5183 79.6259L53.9208 87.7879L58.7837 83.7312C58.824 83.6977 58.872 83.675 58.9234 83.6654C58.9747 83.6557 59.0276 83.6593 59.0772 83.6759C59.1267 83.6925 59.1713 83.7215 59.2067 83.7602C59.2421 83.7989 59.2671 83.846 59.2794 83.8971L60.7806 88.8071ZM63.0037 94.3798L61.8765 89.5796L61.0754 89.7706L67.0722 109.383L63.4092 89.2142L63.0361 89.3031L64.1627 94.1045L63.0037 94.3798ZM71.8359 91.7958L70.612 92.2267L69.6847 91.1237L67.4588 91.9052L67.4424 93.3416L66.2506 93.7602L66.4751 87.3914L67.6641 86.9741L71.8359 91.7958ZM68.9983 90.3055L67.5093 88.4948L67.4787 90.8401L68.9983 90.3055ZM75.4578 87.7239L76.6534 87.5473C76.7863 88.113 76.7276 88.7071 76.4869 89.2353C76.2201 89.7311 75.7967 90.123 75.2836 90.3488C74.9646 90.5172 74.6136 90.6154 74.2541 90.6367C73.8945 90.6581 73.5345 90.6021 73.198 90.4725C72.5109 90.2101 71.9643 89.659 71.5582 88.819C71.1282 87.9298 71.0228 87.1275 71.2418 86.4119C71.3535 86.0542 71.54 85.7248 71.7887 85.4458C72.0374 85.1668 72.3425 84.9447 72.6836 84.7945C73.2535 84.4851 73.9218 84.4152 74.5426 84.6001C74.9405 84.7419 75.2926 84.9899 75.5613 85.3177L74.6229 86.0921C74.4485 85.8582 74.1976 85.6938 73.9146 85.628C73.6295 85.5663 73.332 85.6068 73.0735 85.7426C72.8898 85.8256 72.727 85.9491 72.5971 86.104C72.4672 86.2589 72.3735 86.4412 72.3229 86.6374C72.215 87.0403 72.3148 87.5603 72.6224 88.1975C72.948 88.8716 73.3005 89.2933 73.68 89.4626C73.8608 89.5459 74.0582 89.5865 74.257 89.5813C74.4559 89.576 74.6509 89.5251 74.8271 89.4323C75.1005 89.3058 75.3159 89.0795 75.4299 88.7992C75.55 88.4524 75.5597 88.0765 75.4578 87.7239ZM74.8629 92.2587L74.6553 91.8274C74.8949 91.7414 75.1299 91.6428 75.3594 91.5322C75.5329 91.4632 75.6801 91.3405 75.7799 91.1818C75.805 91.1393 75.8191 91.0911 75.8208 91.0416C75.8225 90.9922 75.8118 90.9432 75.7896 90.899C75.7688 90.8573 75.7385 90.8211 75.7014 90.7931C75.6643 90.7651 75.6212 90.7462 75.5756 90.7378C75.4394 90.7189 75.3009 90.7469 75.1825 90.8172C75.0226 90.8964 74.8751 90.9988 74.7445 91.1209L74.6648 90.7154C74.828 90.5524 75.0174 90.4183 75.225 90.3189C75.4618 90.1816 75.7394 90.1334 76.0082 90.183C76.1099 90.2049 76.2052 90.2499 76.287 90.3145C76.3688 90.3792 76.4348 90.4618 76.4801 90.5561C76.5306 90.6571 76.5561 90.7688 76.5545 90.8818C76.553 90.9949 76.5243 91.1059 76.4711 91.2054C76.2708 91.5499 75.9637 91.8187 75.597 91.9703C75.3634 92.0929 75.1172 92.1895 74.8629 92.2587ZM83.1635 84.9973L82.1572 85.8167L80.9143 85.094L79.0827 86.5882L79.5468 87.9451L78.5662 88.746L76.6413 82.6747L77.6203 81.8773L83.1635 84.9973ZM79.9922 84.5591L77.9855 83.3609L78.7422 85.5798L79.9922 84.5591ZM76.1994 82.6128L75.7994 82.9402C75.7581 82.8934 75.7263 82.8557 75.7046 82.829C75.5457 82.6546 75.4569 82.427 75.4552 82.1903C75.46 82.0905 75.4865 81.9931 75.5328 81.9048C75.5791 81.8165 75.644 81.7395 75.723 81.6793C75.7903 81.6222 75.865 81.5747 75.9452 81.5382C76.0908 81.4771 76.2414 81.429 76.3954 81.3942C76.5669 81.3574 76.7296 81.2872 76.8744 81.1876C76.9379 81.1387 76.9796 81.0664 76.9903 80.9866C76.9954 80.8868 76.9662 80.7882 76.9076 80.7075L77.3141 80.3772C77.5042 80.5771 77.6204 80.8366 77.6433 81.1124C77.6429 81.2106 77.6202 81.3073 77.5768 81.3952C77.5335 81.4831 77.4707 81.5598 77.3932 81.6194C77.3224 81.6773 77.2455 81.7272 77.164 81.7683C77.109 81.794 76.9526 81.8504 76.7019 81.9323C76.5215 81.9818 76.3503 82.0602 76.1947 82.1645C76.1645 82.1861 76.1393 82.2141 76.121 82.2466C76.1026 82.279 76.0916 82.3151 76.0885 82.3523C76.0925 82.4499 76.132 82.5426 76.1994 82.6128ZM81.7419 82.8111C81.3597 82.4591 81.054 82.0314 80.8438 81.5547C80.7227 81.2474 80.6565 80.9208 80.6485 80.5902C80.6357 80.2756 80.6866 79.9616 80.7983 79.6675C80.964 79.2626 81.2084 78.8951 81.517 78.5867C81.7729 78.2964 82.0861 78.0631 82.4365 77.9016C82.7869 77.7401 83.167 77.6539 83.5523 77.6487C84.3013 77.651 85.0198 77.9892 85.7078 78.663C86.391 79.331 86.7443 80.0412 86.7675 80.7937C86.7733 81.1793 86.699 81.562 86.5496 81.9171C86.4002 82.2723 86.1789 82.5921 85.8998 82.8562C85.2879 83.4892 84.6082 83.8048 83.8663 83.8033C83.1209 83.8013 82.4124 83.4682 81.7419 82.8111ZM14.7188 42.8841C17.9922 42.8849 21.1639 44.0295 23.6929 46.1227C26.222 48.2159 27.9517 51.128 28.587 54.3623L28.612 54.362C29.6491 54.3615 30.6831 54.4757 31.6955 54.7026C32.1492 52.7206 33.021 50.8601 34.2518 49.2475L26.6151 32.0101L23.0792 35.4216L23.9928 22.387L12.3342 16.2762L25.2489 13.8325L27.1081 0.94104L33.8388 12.1292L47.5877 10.2226L38.4161 20.3972L44.8043 32.1619L40.2405 30.1438L43.0627 43.8766C43.7496 43.7578 44.4442 43.6902 45.1409 43.6742L48.2554 38.582C48.2849 38.5258 48.3309 38.4802 48.3871 38.4512C48.4433 38.4223 48.507 38.4114 48.5696 38.4201C48.6321 38.4289 48.6904 38.4567 48.7367 38.5C48.783 38.5433 48.8149 38.5998 48.8282 38.662L50.0761 44.4439C52.2952 45.2168 54.2888 46.5332 55.8776 48.2747C57.4663 50.0161 58.6004 52.1281 59.1778 54.4205C59.5991 54.3825 60.0261 54.3621 60.4572 54.3621C60.9021 54.3621 61.3409 54.3836 61.7751 54.4241C62.4499 51.8529 63.8262 49.5235 65.748 47.6997C67.6698 45.876 70.0604 44.6308 72.6488 44.1054C75.2372 43.5799 77.9199 43.7951 80.3931 44.7266C82.8663 45.6581 85.031 47.2686 86.6421 49.3758C88.2531 51.4829 89.246 54.0024 89.5083 56.6487C89.7705 59.2951 89.2917 61.9626 88.126 64.3489C86.9604 66.7352 85.1544 68.745 82.9129 70.1506C80.6713 71.5561 78.0837 72.3012 75.4432 72.3015C74.9984 72.3015 74.5583 72.279 74.1242 72.2386C73.429 74.8779 71.9959 77.2606 69.9954 79.1035C67.9948 80.9463 65.511 82.1718 62.8391 82.6342L63.8285 88.0816L64.5039 87.9207L64.7338 88.8988L64.0081 89.0716L68.6122 114.422C68.63 114.5 68.617 114.582 68.576 114.651C68.5349 114.72 68.469 114.77 68.392 114.791C68.3151 114.811 68.2331 114.801 68.1634 114.763C68.0937 114.724 68.0417 114.659 68.0183 114.582L60.4756 89.9137L60.1751 89.9854L59.9449 89.006L60.1809 88.9499L58.8218 84.505L53.9548 88.565C53.9155 88.5976 53.8687 88.6199 53.8187 88.6299C53.7688 88.6398 53.7172 88.6372 53.6685 88.6222C53.6199 88.6072 53.5757 88.5802 53.5398 88.5438C53.504 88.5074 53.4777 88.4626 53.4633 88.4134L50.6473 78.8467C48.7467 77.0037 47.3965 74.6613 46.7498 72.085C46.3282 72.123 45.9027 72.1442 45.4713 72.1442C44.4338 72.1444 43.3993 72.0298 42.3867 71.8025C41.6584 74.9771 39.8712 77.8041 37.3234 79.8117C34.7756 81.8193 31.6212 82.8861 28.3868 82.8341C25.1523 82.7821 22.0334 81.6144 19.5506 79.5258C17.0677 77.4373 15.3711 74.5542 14.7438 71.3578L14.7188 71.3581C10.97 71.3581 7.37478 69.8581 4.72398 67.1882C2.07319 64.5182 0.583984 60.897 0.583984 57.1211C0.583984 53.3453 2.07319 49.724 4.72398 47.0541C7.37478 44.3841 10.97 42.8841 14.7188 42.8841ZM82.5675 81.8974C83.0457 82.3657 83.5159 82.6103 83.9784 82.6311C84.1986 82.6371 84.4176 82.5972 84.6217 82.5137C84.8258 82.4303 85.0105 82.3052 85.1642 82.1463C85.3179 81.9875 85.4373 81.7983 85.5148 81.5906C85.5924 81.383 85.6264 81.1614 85.6147 80.9399C85.5796 80.482 85.3201 80.0121 84.8294 79.5329C84.3445 79.0573 83.8806 78.813 83.4361 78.7883C83.215 78.7884 82.9962 78.8333 82.7927 78.9202C82.5892 79.0072 82.4052 79.1346 82.2516 79.2947C82.098 79.4549 81.978 79.6445 81.8987 79.8523C81.8194 80.0602 81.7824 80.2819 81.79 80.5045C81.8212 80.9558 82.0804 81.4201 82.5675 81.8974Z" fill="#00963F"/>
</svg>
