<svg width="22" height="20" viewBox="0 0 22 20" fill="none" xmlns="http://www.w3.org/2000/svg">
<path fill-rule="evenodd" clip-rule="evenodd" d="M21.3996 10C21.3996 10.3447 21.2627 10.6753 21.0189 10.9191C20.7751 11.1629 20.4445 11.2998 20.0998 11.2998H5.03964L10.6212 16.8784C10.7421 16.9992 10.8379 17.1427 10.9033 17.3006C10.9688 17.4585 11.0024 17.6277 11.0024 17.7986C11.0024 17.9695 10.9688 18.1388 10.9033 18.2966C10.8379 18.4545 10.7421 18.598 10.6212 18.7189C10.5004 18.8397 10.3569 18.9356 10.199 19.001C10.0411 19.0664 9.87183 19.1 9.70092 19.1C9.53 19.1 9.36076 19.0664 9.20286 19.001C9.04495 18.9356 8.90147 18.8397 8.78062 18.7189L0.98149 10.9203C0.86044 10.7995 0.764399 10.6561 0.698869 10.4982C0.63334 10.3403 0.599609 10.171 0.599609 10C0.599609 9.82906 0.63334 9.65978 0.698869 9.50187C0.764399 9.34396 0.86044 9.20053 0.98149 9.07979L8.78062 1.2812C9.0247 1.03714 9.35574 0.900024 9.70092 0.900024C10.0461 0.900024 10.3771 1.03714 10.6212 1.2812C10.8653 1.52526 11.0024 1.85628 11.0024 2.20143C11.0024 2.54659 10.8653 2.87761 10.6212 3.12167L5.03964 8.70026H20.0998C20.4445 8.70026 20.7751 8.8372 21.0189 9.08095C21.2627 9.32471 21.3996 9.6553 21.3996 10Z" fill="#004100"/>
</svg>
