<svg width="21" height="20" viewBox="0 0 21 20" fill="none" xmlns="http://www.w3.org/2000/svg">
<path fill-rule="evenodd" clip-rule="evenodd" d="M0.0554676 9.99998C0.0554676 9.65526 0.192415 9.32466 0.436186 9.0809C0.679955 8.83715 1.01058 8.70021 1.35532 8.70021H16.4154L10.8339 3.12162C10.713 3.00077 10.6171 2.85731 10.5517 2.69941C10.4863 2.54152 10.4527 2.37229 10.4527 2.20138C10.4527 2.03048 10.4863 1.86125 10.5517 1.70336C10.6171 1.54546 10.713 1.402 10.8339 1.28115C10.9547 1.1603 11.0982 1.06444 11.2561 0.999041C11.414 0.933638 11.5832 0.899977 11.7542 0.899977C11.9251 0.899977 12.0943 0.933638 12.2522 0.999041C12.4101 1.06444 12.5536 1.1603 12.6745 1.28115L20.4736 9.07974C20.5946 9.20048 20.6907 9.34391 20.7562 9.50182C20.8217 9.65973 20.8555 9.82901 20.8555 9.99998C20.8555 10.1709 20.8217 10.3402 20.7562 10.4981C20.6907 10.656 20.5946 10.7995 20.4736 10.9202L12.6745 18.7188C12.4304 18.9629 12.0993 19.1 11.7542 19.1C11.409 19.1 11.0779 18.9629 10.8339 18.7188C10.5898 18.4747 10.4527 18.1437 10.4527 17.7986C10.4527 17.4534 10.5898 17.1224 10.8339 16.8783L16.4154 11.2997H1.35532C1.01058 11.2997 0.679955 11.1628 0.436186 10.919C0.192415 10.6753 0.0554676 10.3447 0.0554676 9.99998Z" fill="#004100"/>
</svg>
