<svg width="81" height="129" viewBox="0 0 81 129" fill="none" xmlns="http://www.w3.org/2000/svg">
<path d="M51.3026 76.8401H28.8751C26.0206 76.8401 23.2821 75.6881 21.2639 73.6385L5.40559 57.5343C3.38736 55.4848 2.25293 52.7065 2.25293 49.8077V27.0324C2.25293 24.1336 3.38736 21.3553 5.40559 19.3058L21.2639 3.20156C23.2821 1.15202 26.0206 0 28.8725 0H51.2999C54.1545 0 56.8903 1.15202 58.9085 3.20156L74.7668 19.3058C76.785 21.3553 77.9195 24.1363 77.9195 27.0351V49.8104C77.9195 52.7092 76.785 55.4874 74.7668 57.537L58.9085 73.6412C56.8956 75.6908 54.1571 76.8401 51.3026 76.8401Z" fill="#FFCC00"/>
<path d="M53.2682 17.8159V23.2626H50.295V17.8159H45.4749V23.2626H42.499V17.8159H37.679V23.2626H34.7031V17.8159H29.8831V23.2626H26.9099V17.8159H22.0898V23.2626V23.8306V46.362L22.0951 46.5094C22.9209 58.0457 31.6059 63.2084 39.8476 63.2084C48.5089 63.2084 57.8429 57.2875 58.0856 46.2736V23.8279V23.2572V17.8105H53.2682V17.8159Z" fill="#3C3C3B"/>
<path d="M44.0579 38.4974C44.0579 38.184 43.7994 37.9294 43.4881 37.9294C43.1741 37.9294 42.9182 38.184 42.9182 38.4974C42.9182 38.8082 43.1741 39.06 43.4881 39.06C43.7994 39.0627 44.0579 38.8082 44.0579 38.4974Z" fill="white"/>
<path d="M34.576 42.936C34.576 42.936 33.4917 49.2212 33.3387 50.7992C33.2622 53.7731 36.0534 54.9519 37.5123 54.3089C42.9207 51.9003 37.5651 59.4555 36.9187 62.9919C37.8922 63.1393 38.8737 63.2143 39.8498 63.2143C43.8441 63.2143 47.9808 61.9524 51.3049 59.5144L50.6374 49.1408C50.5082 47.453 49.7062 46.5367 48.5981 45.8241L48.4688 41.8858C48.4715 41.8884 48.4767 41.8938 48.4767 41.8965L48.7406 42.3037L49.1099 41.9929C50.1995 41.0686 50.7957 39.9675 50.8696 38.7163C50.9593 37.2294 50.2813 35.6166 48.9754 34.1672C48.978 34.1511 48.9833 34.135 48.9886 34.1216C49.0255 33.9448 49.1099 33.5778 48.825 33.3099L48.7353 33.2429C48.6509 33.2 48.5559 33.1759 48.4583 33.1759C48.2525 33.1759 48.0863 33.275 47.9517 33.3554C47.928 33.3661 47.9016 33.3876 47.8779 33.3983C47.2948 33.2027 46.7065 33.1036 46.1314 33.1036C45.0101 33.1036 43.4272 33.484 42.0606 35.1986H42.0448V35.2201C41.9366 35.3567 41.8285 35.4987 41.7229 35.6568L41.4143 36.1069L41.9155 36.3051C41.9261 36.3105 41.934 36.3132 41.9419 36.3158L41.81 37.7733L40.0081 39.6085C39.6282 40.064 39.5992 40.9936 40.1083 41.433L40.2007 41.4919C40.2798 41.5321 40.2587 41.6875 40.2587 41.6875L40.1611 42.1376C33.8294 41.6366 33.0089 37.4706 36.6206 35.5068L33.4337 32.0078C29.4209 34.1163 28.553 40.8007 34.576 42.936ZM47.7354 45.8857L43.6699 46.159L43.5143 44.6051L43.7253 44.4149C45.3083 43.9246 46.5983 43.0378 47.6114 41.7491L47.7354 45.8857ZM40.6307 40.1925L42.6305 38.1644L42.7677 36.6802C44.5405 37.5402 46.105 38.8182 47.4478 40.4873C46.8041 41.5187 46.0258 42.3064 45.0787 42.877C45.0629 42.8877 45.0471 42.8958 45.0339 42.9038C44.8149 43.0351 44.5828 43.1557 44.3427 43.2628C44.3163 43.2735 44.2899 43.2843 44.2609 43.2977C44.0261 43.3968 43.7807 43.4932 43.5275 43.5709C43.4958 43.579 43.4615 43.5924 43.4298 43.6004C43.1739 43.6754 42.9075 43.7424 42.6305 43.7987C42.6041 43.8013 42.5751 43.8067 42.5461 43.8174C42.2585 43.8683 41.963 43.9165 41.6517 43.946C40.8259 43.9433 40.7389 43.7719 40.7257 43.4986L40.979 42.3707C41.0159 42.3332 41.0264 42.2983 41.0264 42.2957C41.0792 42.2421 41.1241 42.1831 41.1557 42.1135C41.1953 42.0411 41.219 41.9608 41.2296 41.8777C41.2744 41.5026 41.0871 40.9936 40.636 40.7418C40.541 40.6185 40.5595 40.281 40.6307 40.1925ZM37.6891 43.5415C38.3671 43.595 39.0953 43.6031 39.8788 43.5656C39.9606 44.8087 41.1979 44.814 41.6728 44.8167H41.6939L41.715 44.814C42.0421 44.7819 42.3535 44.7337 42.6621 44.6721L42.8653 46.4135C37.2169 52.0129 37.6891 43.5415 37.6891 43.5415Z" fill="white"/>
<path d="M0.807373 103.138V102.479L1.69117 102.262V96.2933L0.807373 96.0763V95.4172H3.2952L5.32927 101.89L7.40026 95.4172H9.91975V96.0763L9.04387 96.2933V102.262L9.91975 102.479V103.138H7.11797V102.479L8.00177 102.262V96.1299L5.70389 103.138H4.79107L2.55387 96.1781V102.26L3.42975 102.477V103.136H0.807373V103.138Z" fill="#3C3C3B"/>
<path d="M11.8295 96.2901L10.9536 96.0731V95.4141H13.7369V96.0731L12.8716 96.2901V100.049C12.8716 100.946 13.0141 101.573 13.299 101.935C13.5839 102.297 14.0614 102.476 14.7263 102.476C15.3832 102.476 15.8475 102.302 16.1166 101.951C16.3857 101.6 16.5202 100.946 16.5202 99.9873V96.2901L15.6549 96.0731V95.4141H18.2667V96.0731L17.3961 96.2901V99.9498C17.3961 100.577 17.3724 101.038 17.3249 101.335C17.2774 101.632 17.1983 101.879 17.0822 102.08C16.8527 102.482 16.5334 102.784 16.1219 102.988C15.7103 103.192 15.2143 103.293 14.6366 103.293C14.072 103.293 13.5865 103.205 13.175 103.028C12.7634 102.851 12.4442 102.597 12.2147 102.259C12.0722 102.048 11.9693 101.798 11.9113 101.512C11.8506 101.225 11.8216 100.756 11.8216 100.105V96.2901H11.8295Z" fill="#3C3C3B"/>
<path d="M19.3564 103.138V102.479L20.2271 102.262V96.2933L19.3564 96.0763V95.4172H21.3905L24.9204 101.485V96.2933L24.0498 96.0763V95.4172H26.6617V96.0763L25.7963 96.2933V103.141H24.8518L21.1003 96.7916V102.262L21.9656 102.479V103.138H19.3564Z" fill="#3C3C3B"/>
<path d="M28.614 96.2901L27.7434 96.0731V95.4141H30.532V96.0731L29.6667 96.2901V102.259L30.532 102.476V103.135H27.7434V102.476L28.614 102.259V96.2901Z" fill="#3C3C3B"/>
<path d="M37.7845 102.87C37.3756 103.014 36.9931 103.122 36.6343 103.191C36.2755 103.261 35.9193 103.293 35.5658 103.293C34.4577 103.293 33.5713 102.947 32.9091 102.253C32.2443 101.56 31.9119 100.635 31.9119 99.4779C31.9119 98.208 32.2786 97.1846 33.0146 96.4076C33.7507 95.6307 34.7163 95.2449 35.914 95.2449C36.228 95.2449 36.5366 95.2824 36.84 95.3547C37.1434 95.4271 37.4574 95.5396 37.7845 95.695V97.0586H36.9931L36.6448 96.0888C36.5709 96.0888 36.4707 96.0835 36.3441 96.0754C36.2174 96.0674 36.1383 96.062 36.104 96.062C35.1569 96.062 34.4102 96.3487 33.8668 96.9193C33.3233 97.49 33.0516 98.275 33.0516 99.2743C33.0516 100.266 33.318 101.026 33.8483 101.557C34.3786 102.087 35.1437 102.35 36.1409 102.35C36.381 102.35 36.6369 102.334 36.9113 102.304C37.183 102.272 37.4732 102.224 37.7845 102.157V102.87Z" fill="#3C3C3B"/>
<path d="M39.821 96.2903L38.9504 96.0733V95.4142H41.739V96.0733L40.8737 96.2903V102.259L41.739 102.476V103.135H38.9504V102.476L39.821 102.259V96.2903ZM39.2828 94.2676L40.5386 92.5315L41.404 93.0298L39.8474 94.5623L39.2828 94.2676Z" fill="#3C3C3B"/>
<path d="M43.0027 95.4121H45.3507C45.7913 95.4121 46.129 95.4202 46.3585 95.4362C46.5907 95.4523 46.7859 95.4818 46.9442 95.5246C47.4059 95.6479 47.7673 95.897 48.0258 96.2668C48.2844 96.6365 48.4163 97.0893 48.4163 97.6304C48.4163 98.4395 48.163 99.045 47.6539 99.4469C47.1447 99.8487 46.3822 100.05 45.3639 100.05H44.9286V102.26L45.7939 102.477V103.136H43.0053V102.477L43.8759 102.26V96.2909L43.0053 96.0739V95.4121H43.0027ZM44.9286 96.1649V99.2888H45.443C46.0445 99.2888 46.4957 99.1549 46.7964 98.8843C47.0998 98.6137 47.2502 98.2091 47.2502 97.6653C47.2502 97.1375 47.1157 96.757 46.8439 96.5186C46.5722 96.2828 46.1211 96.1649 45.4932 96.1649H44.9286Z" fill="#3C3C3B"/>
<path d="M50.353 96.2901L49.4824 96.0731V95.4141H52.271V96.0731L51.4057 96.2901V102.259L52.271 102.476V103.135H49.4824V102.476L50.353 102.259V96.2901Z" fill="#3C3C3B"/>
<path d="M60.4071 99.0149C60.4071 100.306 60.0905 101.34 59.4574 102.12C58.8242 102.9 57.9853 103.291 56.9379 103.291C55.9538 103.291 55.1624 102.948 54.5635 102.265C53.9646 101.579 53.6665 100.668 53.6665 99.5266C53.6665 98.2407 53.9831 97.2065 54.6163 96.4269C55.2494 95.6473 56.0884 95.2561 57.1305 95.2561C58.1198 95.2561 58.9139 95.599 59.5128 96.2822C60.109 96.9681 60.4071 97.879 60.4071 99.0149ZM56.9748 102.434C57.6819 102.434 58.2306 102.158 58.6237 101.606C59.0168 101.054 59.212 100.277 59.212 99.2721C59.212 98.2541 59.03 97.4744 58.6633 96.9306C58.2966 96.3867 57.7742 96.1161 57.0909 96.1161C56.3812 96.1161 55.8298 96.3921 55.4394 96.9413C55.0489 97.4905 54.8537 98.2675 54.8537 99.2721C54.8537 100.293 55.0357 101.075 55.4024 101.619C55.7692 102.163 56.2915 102.434 56.9748 102.434Z" fill="#3C3C3B"/>
<path d="M67.4592 95.4121C68.277 95.4121 68.8785 95.4335 69.2637 95.4764C69.6489 95.5193 69.9734 95.5916 70.2346 95.6907C70.8809 95.9479 71.3796 96.3766 71.7357 96.9767C72.0919 97.5769 72.2686 98.2949 72.2686 99.1334C72.2686 99.83 72.1473 100.46 71.9019 101.017C71.6566 101.574 71.3004 102.03 70.8361 102.383C70.4799 102.656 70.0736 102.852 69.6172 102.965C69.1582 103.08 68.4749 103.136 67.5647 103.136H65.4014V102.477L66.272 102.26V96.2909L65.4014 96.0739V95.4148H67.4592V95.4121ZM67.3246 102.372H68.2005C69.116 102.372 69.823 102.099 70.3243 101.55C70.8255 101.003 71.0762 100.227 71.0762 99.2218C71.0762 98.1797 70.8334 97.4134 70.348 96.9178C69.8626 96.4248 69.1107 96.1757 68.0923 96.1757H67.3273V102.372H67.3246Z" fill="#3C3C3B"/>
<path d="M73.6562 103.138V102.479L74.5269 102.262V96.2933L73.6562 96.0763V95.4172H78.9459V97.0595H78.2784L77.9038 96.1808H75.5821V98.8063H77.3339L77.6531 97.9222H78.2652V100.344H77.6531L77.3339 99.5163H75.5821V102.372H77.9908L78.3523 101.432H79.0197V103.138H73.6562Z" fill="#3C3C3B"/>
<path d="M14.3176 110.517L12.4893 109.941V108.199H18.7999V109.941L16.94 110.517L10.7428 128.59H7.61916L1.85994 110.517L0 109.941V108.199H6.73008V109.941L4.9018 110.517L9.57671 126.126L14.3176 110.517Z" fill="#3C3C3B"/>
<path d="M22.4959 110.517L20.198 109.941V108.199H27.5586V109.941L25.2766 110.517V126.273L27.5586 126.849V128.59H20.198V126.849L22.4959 126.273V110.517Z" fill="#3C3C3B"/>
<path d="M29.8489 127.653V124.087H32.0966L33.0675 126.847C33.2944 126.868 33.5134 126.884 33.7218 126.895C33.9328 126.906 34.1492 126.911 34.376 126.911C35.8957 126.911 37.0617 126.64 37.8717 126.096C38.6816 125.555 39.0852 124.778 39.0852 123.771C39.0852 123.058 38.8531 122.41 38.3888 121.823C37.9244 121.237 36.8903 120.441 35.2836 119.433C33.1466 118.086 31.7721 116.995 31.1574 116.165C30.5427 115.332 30.2341 114.346 30.2341 113.207C30.2341 111.586 30.7934 110.271 31.9093 109.263C33.0253 108.256 34.4895 107.752 36.3019 107.752C37.0908 107.752 37.8954 107.852 38.7212 108.047C39.5469 108.245 40.3859 108.54 41.238 108.934V112.532H39.0219L38.0669 109.872C37.8506 109.85 37.6448 109.834 37.4522 109.823C37.257 109.813 37.0433 109.807 36.8058 109.807C35.6186 109.807 34.6874 110.059 34.0067 110.563C33.326 111.067 32.9883 111.758 32.9883 112.634C32.9883 113.325 33.2232 113.949 33.6928 114.507C34.1624 115.064 35.2097 115.833 36.8401 116.805C38.9111 118.075 40.2619 119.133 40.8924 119.977C41.523 120.821 41.8395 121.818 41.8395 122.967C41.8395 124.765 41.2433 126.217 40.0508 127.329C38.8584 128.441 37.2913 128.995 35.3495 128.995C34.3576 128.995 33.3973 128.88 32.4686 128.65C31.5426 128.425 30.6694 128.09 29.8489 127.653Z" fill="#3C3C3B"/>
<path d="M63.1775 110.517L60.8638 109.941V108.199H68.2085V109.941L65.9265 110.517V120.44C65.9265 122.806 66.3038 124.464 67.0583 125.418C67.8128 126.372 69.0686 126.849 70.8283 126.849C72.5642 126.849 73.7884 126.385 74.5007 125.461C75.213 124.537 75.5692 122.809 75.5692 120.277V110.517L73.2871 109.941V108.199H80.1781V109.941L77.8802 110.517V120.178C77.8802 121.831 77.8169 123.05 77.6956 123.835C77.5716 124.617 77.3579 125.274 77.0571 125.799C76.453 126.862 75.6087 127.661 74.5244 128.196C73.4401 128.732 72.1316 129 70.6014 129C69.1135 129 67.826 128.767 66.7417 128.301C65.6574 127.835 64.8132 127.16 64.209 126.273C63.8318 125.716 63.5653 125.057 63.407 124.301C63.2513 123.546 63.1722 122.308 63.1722 120.588V110.517H63.1775Z" fill="#3C3C3B"/>
<path d="M56.6822 124.087L55.7271 126.568H49.369V119.026H51.0786H53.9965H56.4553V117.153H53.9965H51.0786H49.369V110.22H55.5002L56.4869 112.537H58.2519V108.199H44.2878V109.941L46.5857 110.517V126.273L44.2878 126.846V128.588H58.4445V124.087H56.6822Z" fill="#3C3C3B"/>
<path d="M0.807373 103.138V102.479L1.69117 102.262V96.2933L0.807373 96.0763V95.4172H3.2952L5.32927 101.89L7.40026 95.4172H9.91975V96.0763L9.04387 96.2933V102.262L9.91975 102.479V103.138H7.11797V102.479L8.00177 102.262V96.1299L5.70389 103.138H4.79107L2.55387 96.1781V102.26L3.42975 102.477V103.136H0.807373V103.138Z" fill="#3C3C3B"/>
<path d="M11.8295 96.2901L10.9536 96.0731V95.4141H13.7369V96.0731L12.8716 96.2901V100.049C12.8716 100.946 13.0141 101.573 13.299 101.935C13.5839 102.297 14.0614 102.476 14.7263 102.476C15.3832 102.476 15.8475 102.302 16.1166 101.951C16.3857 101.6 16.5202 100.946 16.5202 99.9873V96.2901L15.6549 96.0731V95.4141H18.2667V96.0731L17.3961 96.2901V99.9498C17.3961 100.577 17.3724 101.038 17.3249 101.335C17.2774 101.632 17.1983 101.879 17.0822 102.08C16.8527 102.482 16.5334 102.784 16.1219 102.988C15.7103 103.192 15.2143 103.293 14.6366 103.293C14.072 103.293 13.5865 103.205 13.175 103.028C12.7634 102.851 12.4442 102.597 12.2147 102.259C12.0722 102.048 11.9693 101.798 11.9113 101.512C11.8506 101.225 11.8216 100.756 11.8216 100.105V96.2901H11.8295Z" fill="#3C3C3B"/>
<path d="M19.3564 103.138V102.479L20.2271 102.262V96.2933L19.3564 96.0763V95.4172H21.3905L24.9204 101.485V96.2933L24.0498 96.0763V95.4172H26.6617V96.0763L25.7963 96.2933V103.141H24.8518L21.1003 96.7916V102.262L21.9656 102.479V103.138H19.3564Z" fill="#3C3C3B"/>
<path d="M28.614 96.2901L27.7434 96.0731V95.4141H30.532V96.0731L29.6667 96.2901V102.259L30.532 102.476V103.135H27.7434V102.476L28.614 102.259V96.2901Z" fill="#3C3C3B"/>
<path d="M37.7845 102.87C37.3756 103.014 36.9931 103.122 36.6343 103.191C36.2755 103.261 35.9193 103.293 35.5658 103.293C34.4577 103.293 33.5713 102.947 32.9091 102.253C32.2443 101.56 31.9119 100.635 31.9119 99.4779C31.9119 98.208 32.2786 97.1846 33.0146 96.4076C33.7507 95.6307 34.7163 95.2449 35.914 95.2449C36.228 95.2449 36.5366 95.2824 36.84 95.3547C37.1434 95.4271 37.4574 95.5396 37.7845 95.695V97.0586H36.9931L36.6448 96.0888C36.5709 96.0888 36.4707 96.0835 36.3441 96.0754C36.2174 96.0674 36.1383 96.062 36.104 96.062C35.1569 96.062 34.4102 96.3487 33.8668 96.9193C33.3233 97.49 33.0516 98.275 33.0516 99.2743C33.0516 100.266 33.318 101.026 33.8483 101.557C34.3786 102.087 35.1437 102.35 36.1409 102.35C36.381 102.35 36.6369 102.334 36.9113 102.304C37.183 102.272 37.4732 102.224 37.7845 102.157V102.87Z" fill="#3C3C3B"/>
<path d="M39.821 96.2903L38.9504 96.0733V95.4142H41.739V96.0733L40.8737 96.2903V102.259L41.739 102.476V103.135H38.9504V102.476L39.821 102.259V96.2903ZM39.2828 94.2676L40.5386 92.5315L41.404 93.0298L39.8474 94.5623L39.2828 94.2676Z" fill="#3C3C3B"/>
<path d="M43.0027 95.4121H45.3507C45.7913 95.4121 46.129 95.4202 46.3585 95.4362C46.5907 95.4523 46.7859 95.4818 46.9442 95.5246C47.4059 95.6479 47.7673 95.897 48.0258 96.2668C48.2844 96.6365 48.4163 97.0893 48.4163 97.6304C48.4163 98.4395 48.163 99.045 47.6539 99.4469C47.1447 99.8487 46.3822 100.05 45.3639 100.05H44.9286V102.26L45.7939 102.477V103.136H43.0053V102.477L43.8759 102.26V96.2909L43.0053 96.0739V95.4121H43.0027ZM44.9286 96.1649V99.2888H45.443C46.0445 99.2888 46.4957 99.1549 46.7964 98.8843C47.0998 98.6137 47.2502 98.2091 47.2502 97.6653C47.2502 97.1375 47.1157 96.757 46.8439 96.5186C46.5722 96.2828 46.1211 96.1649 45.4932 96.1649H44.9286Z" fill="#3C3C3B"/>
<path d="M50.353 96.2901L49.4824 96.0731V95.4141H52.271V96.0731L51.4057 96.2901V102.259L52.271 102.476V103.135H49.4824V102.476L50.353 102.259V96.2901Z" fill="#3C3C3B"/>
<path d="M60.4071 99.0149C60.4071 100.306 60.0905 101.34 59.4574 102.12C58.8242 102.9 57.9853 103.291 56.9379 103.291C55.9538 103.291 55.1624 102.948 54.5635 102.265C53.9646 101.579 53.6665 100.668 53.6665 99.5266C53.6665 98.2407 53.9831 97.2065 54.6163 96.4269C55.2494 95.6473 56.0884 95.2561 57.1305 95.2561C58.1198 95.2561 58.9139 95.599 59.5128 96.2822C60.109 96.9681 60.4071 97.879 60.4071 99.0149ZM56.9748 102.434C57.6819 102.434 58.2306 102.158 58.6237 101.606C59.0168 101.054 59.212 100.277 59.212 99.2721C59.212 98.2541 59.03 97.4744 58.6633 96.9306C58.2966 96.3867 57.7742 96.1161 57.0909 96.1161C56.3812 96.1161 55.8298 96.3921 55.4394 96.9413C55.0489 97.4905 54.8537 98.2675 54.8537 99.2721C54.8537 100.293 55.0357 101.075 55.4024 101.619C55.7692 102.163 56.2915 102.434 56.9748 102.434Z" fill="#3C3C3B"/>
<path d="M67.4592 95.4121C68.277 95.4121 68.8785 95.4335 69.2637 95.4764C69.6489 95.5193 69.9734 95.5916 70.2346 95.6907C70.8809 95.9479 71.3796 96.3766 71.7357 96.9767C72.0919 97.5769 72.2686 98.2949 72.2686 99.1334C72.2686 99.83 72.1473 100.46 71.9019 101.017C71.6566 101.574 71.3004 102.03 70.8361 102.383C70.4799 102.656 70.0736 102.852 69.6172 102.965C69.1582 103.08 68.4749 103.136 67.5647 103.136H65.4014V102.477L66.272 102.26V96.2909L65.4014 96.0739V95.4148H67.4592V95.4121ZM67.3246 102.372H68.2005C69.116 102.372 69.823 102.099 70.3243 101.55C70.8255 101.003 71.0762 100.227 71.0762 99.2218C71.0762 98.1797 70.8334 97.4134 70.348 96.9178C69.8626 96.4248 69.1107 96.1757 68.0923 96.1757H67.3273V102.372H67.3246Z" fill="#3C3C3B"/>
<path d="M73.6562 103.138V102.479L74.5269 102.262V96.2933L73.6562 96.0763V95.4172H78.9459V97.0595H78.2784L77.9038 96.1808H75.5821V98.8063H77.3339L77.6531 97.9222H78.2652V100.344H77.6531L77.3339 99.5163H75.5821V102.372H77.9908L78.3523 101.432H79.0197V103.138H73.6562Z" fill="#3C3C3B"/>
<path d="M14.3176 110.517L12.4893 109.941V108.199H18.7999V109.941L16.94 110.517L10.7428 128.59H7.61916L1.85994 110.517L0 109.941V108.199H6.73008V109.941L4.9018 110.517L9.57671 126.126L14.3176 110.517Z" fill="#3C3C3B"/>
<path d="M22.4959 110.517L20.198 109.941V108.199H27.5586V109.941L25.2766 110.517V126.273L27.5586 126.849V128.59H20.198V126.849L22.4959 126.273V110.517Z" fill="#3C3C3B"/>
<path d="M29.8489 127.653V124.087H32.0966L33.0675 126.847C33.2944 126.868 33.5134 126.884 33.7218 126.895C33.9328 126.906 34.1492 126.911 34.376 126.911C35.8957 126.911 37.0617 126.64 37.8717 126.096C38.6816 125.555 39.0852 124.778 39.0852 123.771C39.0852 123.058 38.8531 122.41 38.3888 121.823C37.9244 121.237 36.8903 120.441 35.2836 119.433C33.1466 118.086 31.7721 116.995 31.1574 116.165C30.5427 115.332 30.2341 114.346 30.2341 113.207C30.2341 111.586 30.7934 110.271 31.9093 109.263C33.0253 108.256 34.4895 107.752 36.3019 107.752C37.0908 107.752 37.8954 107.852 38.7212 108.047C39.5469 108.245 40.3859 108.54 41.238 108.934V112.532H39.0219L38.0669 109.872C37.8506 109.85 37.6448 109.834 37.4522 109.823C37.257 109.813 37.0433 109.807 36.8058 109.807C35.6186 109.807 34.6874 110.059 34.0067 110.563C33.326 111.067 32.9883 111.758 32.9883 112.634C32.9883 113.325 33.2232 113.949 33.6928 114.507C34.1624 115.064 35.2097 115.833 36.8401 116.805C38.9111 118.075 40.2619 119.133 40.8924 119.977C41.523 120.821 41.8395 121.818 41.8395 122.967C41.8395 124.765 41.2433 126.217 40.0508 127.329C38.8584 128.441 37.2913 128.995 35.3495 128.995C34.3576 128.995 33.3973 128.88 32.4686 128.65C31.5426 128.425 30.6694 128.09 29.8489 127.653Z" fill="#3C3C3B"/>
<path d="M63.1775 110.517L60.8638 109.941V108.199H68.2085V109.941L65.9265 110.517V120.44C65.9265 122.806 66.3038 124.464 67.0583 125.418C67.8128 126.372 69.0686 126.849 70.8283 126.849C72.5642 126.849 73.7884 126.385 74.5007 125.461C75.213 124.537 75.5692 122.809 75.5692 120.277V110.517L73.2871 109.941V108.199H80.1781V109.941L77.8802 110.517V120.178C77.8802 121.831 77.8169 123.05 77.6956 123.835C77.5716 124.617 77.3579 125.274 77.0571 125.799C76.453 126.862 75.6087 127.661 74.5244 128.196C73.4401 128.732 72.1316 129 70.6014 129C69.1135 129 67.826 128.767 66.7417 128.301C65.6574 127.835 64.8132 127.16 64.209 126.273C63.8318 125.716 63.5653 125.057 63.407 124.301C63.2513 123.546 63.1722 122.308 63.1722 120.588V110.517H63.1775Z" fill="#3C3C3B"/>
<path d="M56.6822 124.087L55.7271 126.568H49.369V119.026H51.0786H53.9965H56.4553V117.153H53.9965H51.0786H49.369V110.22H55.5002L56.4869 112.537H58.2519V108.199H44.2878V109.941L46.5857 110.517V126.273L44.2878 126.846V128.588H58.4445V124.087H56.6822Z" fill="#3C3C3B"/>
</svg>
