<svg width="341" height="150" viewBox="0 0 341 150" fill="none" xmlns="http://www.w3.org/2000/svg">
<rect width="341" height="150" fill="#F9F9F9"/>
<path d="M186.486 125.818C186.464 126.816 186.671 127.805 187.091 128.707C187.492 129.55 188.143 130.243 188.952 130.691C189.945 131.217 191.057 131.472 192.176 131.43C192.914 131.418 193.646 131.298 194.35 131.076C195.044 130.865 195.72 130.595 196.37 130.269C196.985 129.962 197.503 129.665 197.933 129.395C198.364 129.124 198.631 128.936 198.759 128.832C198.865 129.635 199.266 130.368 199.881 130.884C200.467 131.3 201.172 131.507 201.886 131.472C202.146 131.473 202.406 131.459 202.665 131.43C202.932 131.404 203.178 131.378 203.342 131.352L203.634 131.31L203.757 128.504H203.378C202.97 128.546 202.561 128.433 202.229 128.187C201.993 127.91 201.878 127.547 201.912 127.182C201.912 127.094 201.912 126.984 201.912 126.838C201.912 126.693 201.947 126.547 201.968 126.396C201.988 126.245 201.999 126.13 202.014 126.026L205.305 102.256H202.178L200.958 110.965C200.814 110.913 200.667 110.872 200.517 110.84C200.24 110.762 199.861 110.674 199.379 110.57C198.897 110.466 198.385 110.377 197.8 110.304C197.217 110.223 196.63 110.181 196.042 110.179C194.903 110.161 193.77 110.337 192.689 110.7C190.886 111.308 189.382 112.598 188.49 114.302C188.069 115.118 187.778 115.997 187.629 116.905C187.491 117.712 187.363 118.54 187.229 119.404C187.096 120.268 186.973 121.107 186.865 121.924C186.758 122.741 186.66 123.486 186.594 124.163C186.527 124.839 186.491 125.365 186.491 125.776L186.486 125.818ZM190.756 117.155C190.851 116.629 191.024 116.12 191.269 115.646C191.523 115.153 191.859 114.709 192.263 114.334C192.688 113.937 193.182 113.624 193.719 113.412C194.33 113.177 194.979 113.06 195.632 113.069C196.544 113.061 197.455 113.136 198.354 113.292C198.909 113.387 199.456 113.526 199.989 113.709C200.181 113.769 200.367 113.844 200.548 113.933L199.01 125.157C199.01 125.157 198.877 125.282 198.625 125.501C198.374 125.719 198.031 126.021 197.6 126.323C197.136 126.674 196.653 126.999 196.155 127.297C195.626 127.616 195.072 127.892 194.499 128.119C193.97 128.329 193.41 128.445 192.843 128.463C192.216 128.481 191.597 128.323 191.054 128.005C190.6 127.728 190.242 127.315 190.028 126.823C189.803 126.298 189.691 125.73 189.7 125.157C189.7 124.996 189.7 124.699 189.767 124.272C189.834 123.845 189.869 123.335 189.946 122.736C190.023 122.137 190.1 121.513 190.198 120.852C190.295 120.19 190.377 119.534 190.474 118.894C190.572 118.254 190.664 117.712 190.751 117.197L190.756 117.155Z" fill="#27304F"/>
<path d="M209.817 117.03C209.928 116.322 210.208 115.652 210.632 115.078C211.081 114.46 211.67 113.96 212.349 113.62C213.147 113.226 214.025 113.028 214.912 113.043C215.875 112.98 216.826 113.276 217.588 113.876C218.232 114.474 218.577 115.334 218.527 116.218C218.537 116.667 218.428 117.109 218.209 117.499C218 117.865 217.708 118.176 217.358 118.405C216.966 118.67 216.54 118.878 216.091 119.024L209.14 121.377L209.817 117.03ZM219.203 127.802L218.691 127.932C218.337 128.015 217.865 128.104 217.255 128.213C216.645 128.322 215.948 128.411 215.153 128.494C214.359 128.577 213.528 128.619 212.636 128.624C211.877 128.646 211.125 128.476 210.447 128.13C209.908 127.842 209.461 127.403 209.16 126.865C208.878 126.343 208.732 125.757 208.735 125.162C208.735 125.11 208.735 125.037 208.735 124.933C208.735 124.829 208.735 124.735 208.735 124.642V124.501L215.845 122.231C216.615 121.998 217.365 121.701 218.086 121.341C218.771 121.008 219.404 120.573 219.962 120.05C220.522 119.525 220.964 118.884 221.259 118.171C221.587 117.344 221.751 116.459 221.741 115.567C221.741 114.846 221.58 114.134 221.269 113.485C220.955 112.821 220.508 112.231 219.957 111.751C219.352 111.233 218.656 110.834 217.906 110.575C217.056 110.283 216.164 110.137 215.266 110.143C214.141 110.129 213.022 110.305 211.954 110.663C211.02 110.981 210.151 111.472 209.391 112.111C207.962 113.293 206.997 114.954 206.669 116.796C206.51 117.629 206.372 118.498 206.228 119.399C206.085 120.3 205.961 121.164 205.849 122.002C205.736 122.84 205.654 123.564 205.592 124.256C205.531 124.775 205.497 125.296 205.49 125.818C205.469 126.891 205.754 127.946 206.31 128.858C206.869 129.741 207.669 130.439 208.612 130.868C209.74 131.378 210.966 131.627 212.2 131.597C213.175 131.6 214.149 131.548 215.117 131.441C215.979 131.342 216.717 131.232 217.332 131.102C217.947 130.972 218.409 130.863 218.737 130.759L219.249 130.608L219.203 127.802Z" fill="#27304F"/>
<path d="M29.9833 102.256L26 131.144H30.7164L32.4184 118.925H45.1783L45.7884 114.349H33.0285L34.0896 106.837H48.0235L48.6336 102.256H29.9833Z" fill="#27304F"/>
<path d="M58.9635 110.096C58.2727 110.108 57.5852 110.196 56.9129 110.357C56.3057 110.51 55.711 110.71 55.134 110.955C54.6484 111.16 54.1758 111.394 53.719 111.658C53.314 111.893 53.0013 112.085 52.786 112.241C52.5707 112.398 52.4425 112.486 52.4425 112.491L52.5656 110.508H48.4644L45.6345 131.144H50.0946L52.0427 117.088C52.0427 117.088 52.1452 116.984 52.34 116.807C52.6101 116.565 52.8924 116.337 53.1859 116.125C53.6089 115.824 54.0526 115.554 54.5136 115.318C55.0763 115.035 55.6654 114.81 56.272 114.647C56.9608 114.459 57.671 114.364 58.3842 114.365L58.9635 110.096Z" fill="#27304F"/>
<path d="M62.2191 117.359C62.3219 116.801 62.5677 116.28 62.9316 115.849C63.3195 115.377 63.8112 115.004 64.3671 114.761C64.9833 114.483 65.6511 114.343 66.3254 114.35C67.0294 114.312 67.726 114.51 68.3094 114.912C68.7864 115.283 69.0606 115.863 69.0476 116.474C69.0511 116.846 68.94 117.21 68.7297 117.515C68.5289 117.784 68.2691 118.001 67.971 118.15C67.6772 118.302 67.37 118.426 67.0534 118.52L61.7731 120.17C61.7731 120.17 61.7731 120.04 61.8243 119.816C61.8756 119.592 61.9012 119.295 61.9474 118.983C61.9935 118.671 62.0499 118.337 62.096 118.03C62.1422 117.723 62.1832 117.51 62.2191 117.322V117.359ZM71.2827 126.318C71.2827 126.318 71.0623 126.376 70.6624 126.469C70.2626 126.563 69.7294 126.672 69.0681 126.797C68.4068 126.922 67.6634 127.031 66.8586 127.12C66.0465 127.212 65.2303 127.263 64.4132 127.271C63.828 127.277 63.2475 127.163 62.7061 126.938C62.2679 126.747 61.8926 126.432 61.6244 126.032C61.3685 125.641 61.2362 125.179 61.245 124.71L67.525 122.851C68.6434 122.527 69.7066 122.032 70.6778 121.383C71.5569 120.799 72.2932 120.019 72.8309 119.103C73.359 118.149 73.6329 117.073 73.6256 115.979C73.6334 114.919 73.3512 113.877 72.8104 112.97C72.2541 112.067 71.4555 111.345 70.5086 110.888C69.373 110.351 68.1314 110.086 66.8791 110.112C65.7471 110.107 64.6225 110.295 63.552 110.669C62.5665 111.006 61.6456 111.513 60.8298 112.168C60.0543 112.781 59.3913 113.529 58.8714 114.376C58.3663 115.192 58.0184 116.098 57.8461 117.046C57.7077 117.812 57.5796 118.608 57.4514 119.42C57.3232 120.232 57.2002 121.039 57.1028 121.82C57.0054 122.601 56.9131 123.294 56.8413 123.903C56.7696 124.512 56.7491 125.017 56.7491 125.376C56.7314 126.488 57.017 127.584 57.5744 128.541C58.1501 129.497 58.9873 130.262 59.9839 130.743C61.2111 131.316 62.5505 131.597 63.9006 131.566C64.9012 131.566 65.9009 131.505 66.8944 131.384C67.687 131.286 68.4741 131.147 69.2526 130.967C69.914 130.811 70.4215 130.67 70.7906 130.556C71.1597 130.441 71.3032 130.379 71.3391 130.369L71.2827 126.318Z" fill="#27304F"/>
<path d="M85.7546 131.513C85.6746 132.085 85.4444 132.625 85.0882 133.075C84.6841 133.584 84.1702 133.992 83.5861 134.267C82.9045 134.591 82.1598 134.755 81.4074 134.746C80.8716 134.776 80.3384 134.652 79.8694 134.387C79.5154 134.164 79.3017 133.769 79.3055 133.346C79.3042 133.038 79.3819 132.734 79.5311 132.466C79.6648 132.235 79.8385 132.03 80.0437 131.862C80.1887 131.737 80.3449 131.625 80.5102 131.529L81.756 130.831C82.2379 130.561 82.7403 130.311 83.2529 130.009C83.7656 129.707 84.2423 129.488 84.6883 129.238L85.7751 128.66L86.2006 128.437L85.7546 131.513ZM79.2132 128.582C78.7382 128.825 78.2358 129.106 77.706 129.426C77.1709 129.743 76.6723 130.121 76.2193 130.55C75.7475 130.987 75.3583 131.507 75.071 132.086C74.7634 132.735 74.609 133.448 74.6198 134.168C74.6042 134.897 74.7813 135.616 75.1325 136.251C75.4802 136.86 75.965 137.378 76.5474 137.76C77.1748 138.183 77.8681 138.495 78.598 138.682C79.4111 138.899 80.2489 139.006 81.0895 139C82.2698 139.007 83.4423 138.806 84.555 138.406C85.5622 138.05 86.4968 137.51 87.3131 136.813C88.0872 136.158 88.7385 135.366 89.2355 134.475C89.7262 133.604 90.0514 132.647 90.1942 131.654L92.9984 111.267L92.5216 111.142C92.2192 111.069 91.7937 110.97 91.2503 110.861C90.7069 110.752 90.0763 110.637 89.374 110.517C88.6716 110.398 87.9078 110.309 87.1132 110.231C86.3186 110.153 85.4932 110.111 84.6678 110.111C83.5072 110.098 82.3527 110.284 81.2536 110.663C80.311 110.988 79.4402 111.498 78.6903 112.162C77.9936 112.79 77.4136 113.539 76.978 114.375C76.5319 115.227 76.2123 116.141 76.0296 117.087C75.8964 117.749 75.7784 118.42 75.6708 119.123C75.5631 119.826 75.4657 120.492 75.3888 121.138C75.3119 121.783 75.2453 122.351 75.2043 122.85C75.1633 123.35 75.1376 123.725 75.1376 123.98C75.1204 124.738 75.2637 125.491 75.558 126.188C75.783 126.712 76.1232 127.176 76.5525 127.546C76.9066 127.853 77.3086 128.098 77.7419 128.27C78.0733 128.399 78.4169 128.493 78.7672 128.551C78.9147 128.575 79.0639 128.585 79.2132 128.582ZM80.5102 117.4C80.6151 116.88 80.8095 116.383 81.0844 115.932C81.3698 115.463 81.7664 115.075 82.2379 114.802C82.8033 114.485 83.4427 114.328 84.0885 114.349C84.796 114.349 85.4573 114.349 86.0571 114.422C86.6569 114.495 87.1439 114.51 87.5079 114.562L88.0718 114.635L86.8107 124.006L86.3647 124.22C86.0776 124.35 85.6931 124.506 85.2266 124.683C84.7245 124.873 84.2107 125.029 83.6887 125.152C83.1538 125.288 82.6048 125.36 82.0533 125.365C81.5754 125.387 81.1026 125.257 80.6999 124.995C80.3781 124.758 80.1364 124.425 80.0078 124.043C79.8749 123.631 79.8108 123.2 79.8181 122.767C79.8181 122.496 79.8181 122.153 79.8797 121.726C79.9412 121.299 79.9771 120.82 80.0437 120.299C80.1103 119.779 80.1872 119.284 80.2693 118.774C80.3513 118.264 80.4282 117.785 80.5102 117.4Z" fill="#27304F"/>
<path d="M105.974 129.286C105.992 129.421 106.031 129.553 106.092 129.676C106.218 129.961 106.391 130.221 106.604 130.447C106.888 130.773 107.238 131.034 107.63 131.212C108.162 131.45 108.739 131.567 109.321 131.555C109.569 131.553 109.815 131.533 110.059 131.493C110.341 131.451 110.603 131.404 110.859 131.352L111.5 131.207L111.761 131.144L111.926 127.266L111.741 127.297L111.336 127.354C111.195 127.375 111.053 127.388 110.91 127.391C110.692 127.409 110.479 127.313 110.347 127.136C110.251 126.961 110.206 126.762 110.218 126.563C110.222 126.361 110.237 126.159 110.265 125.959C110.3 125.735 110.341 125.511 110.382 125.282L112.433 110.507H107.963L105.851 125.532L105.338 125.813C105.01 125.99 104.589 126.204 104.077 126.438C103.548 126.68 103.005 126.89 102.452 127.068C101.932 127.236 101.392 127.331 100.847 127.349C100.412 127.362 99.983 127.246 99.6116 127.016C99.3091 126.811 99.0735 126.519 98.9349 126.178C98.8003 125.828 98.7324 125.455 98.735 125.079C98.736 124.858 98.7514 124.637 98.7811 124.418C98.7811 124.189 98.8324 123.97 98.8529 123.757L100.673 110.497H96.2025L94.2493 124.553C94.2493 124.756 94.2134 124.97 94.198 125.188C94.1827 125.407 94.1724 125.626 94.1724 125.829C94.1528 126.834 94.3633 127.83 94.7876 128.739C95.209 129.598 95.8801 130.305 96.71 130.764C97.746 131.302 98.8998 131.564 100.063 131.524C100.786 131.515 101.505 131.399 102.195 131.181C102.842 130.984 103.471 130.728 104.072 130.415C104.537 130.187 104.987 129.93 105.42 129.645C105.602 129.53 105.773 129.399 105.933 129.254" fill="#27304F"/>
<path d="M119.815 117.358C119.916 116.801 120.16 116.28 120.523 115.849C120.913 115.379 121.404 115.007 121.958 114.761C122.575 114.484 123.242 114.344 123.917 114.349C124.621 114.311 125.318 114.508 125.901 114.912C126.381 115.28 126.656 115.862 126.639 116.473C126.647 116.846 126.536 117.212 126.321 117.515C126.122 117.786 125.862 118.004 125.562 118.15C125.27 118.302 124.965 118.426 124.65 118.519L119.364 120.17C119.364 120.17 119.364 120.04 119.421 119.816C119.477 119.592 119.492 119.295 119.544 118.983C119.595 118.67 119.646 118.337 119.692 118.03C119.738 117.723 119.779 117.509 119.815 117.322V117.358ZM128.874 126.318C128.874 126.318 128.659 126.375 128.259 126.469C127.859 126.563 127.326 126.672 126.659 126.797C125.993 126.922 125.26 127.031 124.455 127.12C123.643 127.212 122.827 127.262 122.009 127.271C121.424 127.278 120.844 127.164 120.302 126.938C119.862 126.748 119.484 126.434 119.216 126.032C118.96 125.64 118.827 125.179 118.836 124.709L125.096 122.814C126.212 122.491 127.274 121.996 128.243 121.346C129.125 120.764 129.863 119.984 130.402 119.066C130.929 118.113 131.202 117.036 131.191 115.942C131.203 114.882 130.922 113.84 130.381 112.933C129.824 112.029 129.023 111.307 128.074 110.851C126.938 110.314 125.697 110.049 124.445 110.075C123.314 110.071 122.191 110.259 121.123 110.632C120.136 110.971 119.214 111.478 118.395 112.132C117.623 112.746 116.962 113.493 116.442 114.339C115.937 115.155 115.589 116.062 115.417 117.01C115.284 117.775 115.155 118.571 115.027 119.384C114.899 120.196 114.776 121.003 114.673 121.784C114.571 122.565 114.484 123.257 114.417 123.866C114.35 124.475 114.32 124.98 114.32 125.339C114.304 126.452 114.591 127.547 115.15 128.505C115.726 129.461 116.563 130.226 117.56 130.707C118.787 131.28 120.126 131.561 121.476 131.529C122.477 131.529 123.477 131.468 124.47 131.347C125.261 131.25 126.047 131.111 126.823 130.931C127.49 130.774 127.997 130.634 128.361 130.519C128.547 130.467 128.73 130.404 128.91 130.332L128.874 126.318Z" fill="#27304F"/>
<path d="M147.54 110.965C147.54 110.965 147.35 110.913 146.996 110.825C146.642 110.736 146.166 110.643 145.561 110.528C144.956 110.414 144.279 110.315 143.51 110.237C142.736 110.144 141.957 110.097 141.178 110.096C140.066 110.086 138.96 110.238 137.892 110.549C136.938 110.827 136.047 111.291 135.267 111.913C134.521 112.518 133.923 113.289 133.519 114.167C133.089 115.15 132.874 116.215 132.888 117.291C132.867 118.099 133.043 118.9 133.401 119.623C133.714 120.228 134.164 120.749 134.713 121.143C135.269 121.54 135.874 121.86 136.512 122.096C137.169 122.335 137.82 122.538 138.476 122.71C139.132 122.882 139.732 123.064 140.28 123.231C140.756 123.374 141.203 123.603 141.598 123.908C141.919 124.155 142.108 124.54 142.111 124.949C142.162 125.676 141.794 126.368 141.167 126.724C140.251 127.14 139.247 127.319 138.245 127.245C137.539 127.235 136.834 127.187 136.133 127.099C135.431 127.01 134.795 126.906 134.211 126.792C133.626 126.677 133.185 126.568 132.816 126.479C132.447 126.391 132.304 126.344 132.273 126.334L131.135 130.42L131.647 130.587C131.991 130.696 132.468 130.821 133.083 130.957C133.698 131.092 134.411 131.217 135.226 131.326C136.103 131.435 136.987 131.491 137.871 131.493C139.06 131.502 140.245 131.358 141.398 131.066C142.41 130.812 143.363 130.357 144.202 129.728C145.002 129.13 145.64 128.336 146.058 127.422C146.524 126.367 146.753 125.22 146.73 124.064C146.75 123.262 146.574 122.468 146.217 121.752C145.901 121.135 145.448 120.6 144.894 120.19C144.337 119.781 143.729 119.45 143.085 119.206C142.428 118.957 141.767 118.738 141.111 118.556C140.455 118.374 139.85 118.191 139.301 118.035C138.827 117.893 138.38 117.671 137.979 117.379C137.661 117.15 137.471 116.78 137.466 116.385C137.447 115.929 137.602 115.484 137.897 115.141C138.198 114.817 138.584 114.587 139.009 114.479C139.509 114.337 140.028 114.27 140.547 114.282C141.029 114.282 141.531 114.282 142.085 114.354C142.639 114.427 143.151 114.464 143.664 114.542C144.177 114.62 144.648 114.688 145.069 114.761C145.489 114.833 145.827 114.891 146.094 114.948L146.484 115.021L147.54 110.965Z" fill="#27304F"/>
<path d="M151.687 106.962H156.301L156.952 102.277H152.338L151.687 106.962ZM155.224 127.266L155.06 127.297C154.963 127.297 154.84 127.333 154.696 127.354C154.562 127.376 154.427 127.388 154.291 127.39C154.06 127.412 153.834 127.311 153.691 127.125C153.595 126.954 153.549 126.759 153.558 126.563C153.559 126.427 153.567 126.291 153.584 126.157C153.584 125.985 153.619 125.829 153.64 125.699L155.752 110.497H151.282L149.088 126.224C149.088 126.417 149.047 126.62 149.031 126.849C149.016 127.078 149.006 127.286 149.006 127.5C148.987 128.232 149.121 128.959 149.4 129.634C149.643 130.221 150.065 130.712 150.605 131.035C151.246 131.399 151.973 131.579 152.707 131.555C152.929 131.551 153.15 131.53 153.368 131.493C153.635 131.451 153.881 131.404 154.163 131.352L154.824 131.206L155.101 131.144L155.224 127.266Z" fill="#27304F"/>
<path d="M163.073 117.4C163.164 116.877 163.365 116.38 163.662 115.943C163.982 115.468 164.416 115.084 164.923 114.828C165.564 114.523 166.266 114.374 166.974 114.391C167.63 114.391 168.24 114.422 168.804 114.485C169.368 114.547 169.804 114.605 170.142 114.662L170.655 114.761L169.276 124.621L168.937 124.907C168.712 125.084 168.425 125.303 168.056 125.563C167.686 125.824 167.281 126.084 166.846 126.365C166.418 126.616 165.975 126.837 165.518 127.026C165.123 127.191 164.704 127.286 164.277 127.307C163.833 127.321 163.395 127.197 163.021 126.953C162.7 126.729 162.45 126.414 162.304 126.047C162.152 125.646 162.077 125.218 162.083 124.788C162.083 124.512 162.083 124.142 162.15 123.668C162.216 123.195 162.258 122.664 162.334 122.08C162.411 121.497 162.488 120.909 162.575 120.316C162.663 119.722 162.745 119.17 162.832 118.66C162.919 118.15 162.991 117.733 163.057 117.4H163.073ZM172.649 131.555C172.896 131.553 173.143 131.532 173.387 131.493C173.664 131.451 173.925 131.404 174.187 131.352L174.823 131.207L175.084 131.144L175.207 127.266L175.038 127.297L174.643 127.354C174.507 127.376 174.37 127.388 174.233 127.391C173.998 127.414 173.769 127.304 173.638 127.104C173.538 126.912 173.49 126.697 173.5 126.48C173.494 126.407 173.494 126.334 173.5 126.261C173.507 126.197 173.507 126.132 173.5 126.068L175.551 111.419C175.551 111.419 175.31 111.34 174.853 111.21C174.397 111.08 173.787 110.929 173.013 110.757C172.239 110.586 171.372 110.435 170.414 110.304C169.423 110.171 168.425 110.101 167.425 110.096C166.26 110.082 165.1 110.258 163.99 110.617C163.033 110.935 162.144 111.435 161.371 112.09C160.644 112.707 160.035 113.456 159.576 114.297C159.108 115.16 158.781 116.093 158.607 117.062C158.469 117.801 158.341 118.624 158.208 119.462C158.074 120.3 157.951 121.169 157.844 122.008C157.736 122.846 157.639 123.632 157.572 124.329C157.505 125.027 157.469 125.615 157.469 126.058C157.446 127.081 157.688 128.092 158.172 128.989C158.637 129.805 159.331 130.461 160.166 130.873C161.137 131.342 162.203 131.572 163.278 131.545C164.008 131.532 164.734 131.422 165.436 131.217C166.098 131.027 166.744 130.785 167.369 130.493C167.948 130.218 168.394 129.973 168.758 129.77C169.122 129.567 169.271 129.457 169.271 129.442C169.3 129.556 169.343 129.666 169.399 129.77C169.534 130.035 169.707 130.279 169.911 130.493C170.199 130.805 170.549 131.052 170.937 131.217C171.483 131.451 172.071 131.567 172.664 131.555H172.649Z" fill="#27304F"/>
<path d="M237.823 102.256H232.865L237.577 131.144H243.672L256.35 102.256H251.392L241.237 126.646L237.823 102.256Z" fill="#27304F"/>
<path d="M256.724 106.962H261.338L261.989 102.277H257.375L256.724 106.962ZM260.261 127.266L260.097 127.297L259.728 127.354C259.594 127.376 259.459 127.388 259.323 127.39C259.093 127.412 258.868 127.311 258.728 127.125C258.628 126.956 258.58 126.76 258.59 126.563C258.593 126.427 258.603 126.291 258.621 126.157C258.621 125.985 258.651 125.829 258.672 125.699L260.794 110.497H256.324L254.13 126.235C254.13 126.427 254.089 126.63 254.073 126.859C254.058 127.089 254.048 127.297 254.048 127.51C254.03 128.241 254.163 128.968 254.437 129.645C254.683 130.229 255.105 130.719 255.642 131.045C256.283 131.409 257.01 131.589 257.744 131.566C257.966 131.562 258.187 131.541 258.405 131.503C258.672 131.462 258.918 131.415 259.2 131.363L259.866 131.217L260.143 131.154L260.261 127.266Z" fill="#27304F"/>
<path d="M277.984 110.965C277.984 110.965 277.794 110.913 277.441 110.825C277.087 110.736 276.605 110.643 276.005 110.528C275.405 110.414 274.724 110.315 273.955 110.237C273.18 110.144 272.401 110.097 271.622 110.096C270.511 110.086 269.404 110.238 268.336 110.549C267.382 110.827 266.491 111.291 265.711 111.913C264.964 112.516 264.366 113.288 263.963 114.167C263.533 115.15 263.318 116.215 263.332 117.291C263.314 118.099 263.49 118.9 263.845 119.623C264.162 120.227 264.613 120.748 265.163 121.143C265.718 121.54 266.323 121.86 266.962 122.096C267.618 122.335 268.269 122.538 268.925 122.71C269.582 122.882 270.181 123.064 270.73 123.231C271.206 123.374 271.652 123.603 272.047 123.908C272.371 124.153 272.561 124.539 272.56 124.949C272.616 125.676 272.25 126.37 271.622 126.724C270.705 127.14 269.701 127.319 268.7 127.245C267.994 127.235 267.289 127.187 266.588 127.099C265.885 127.01 265.25 126.906 264.665 126.792C264.081 126.677 263.614 126.568 263.271 126.479C263.087 126.44 262.906 126.391 262.727 126.334L261.589 130.42L262.102 130.587C262.445 130.696 262.922 130.821 263.537 130.957C264.153 131.092 264.865 131.217 265.675 131.326C266.555 131.435 267.44 131.491 268.326 131.493C269.514 131.501 270.699 131.358 271.853 131.066C272.865 130.81 273.817 130.356 274.657 129.728C275.455 129.128 276.093 128.335 276.513 127.422C276.979 126.367 277.208 125.22 277.184 124.064C277.202 123.262 277.026 122.468 276.672 121.752C276.355 121.135 275.903 120.6 275.349 120.19C274.791 119.782 274.183 119.452 273.539 119.206C272.883 118.957 272.222 118.738 271.566 118.556C270.909 118.374 270.304 118.191 269.756 118.035C269.282 117.893 268.835 117.671 268.433 117.379C268.114 117.152 267.923 116.781 267.921 116.385C267.902 115.929 268.056 115.484 268.351 115.141C268.652 114.816 269.038 114.586 269.464 114.479C269.964 114.337 270.482 114.27 271.002 114.282C271.484 114.282 271.986 114.282 272.54 114.354C273.093 114.427 273.606 114.464 274.119 114.542C274.631 114.62 275.103 114.688 275.518 114.761C275.933 114.833 276.277 114.891 276.543 114.948L276.933 115.021L277.984 110.965Z" fill="#27304F"/>
<path d="M284.612 117.359C284.715 116.801 284.961 116.28 285.325 115.849C285.713 115.377 286.204 115.004 286.76 114.761C287.375 114.483 288.041 114.343 288.713 114.35C289.419 114.312 290.118 114.509 290.702 114.912C291.179 115.283 291.454 115.863 291.441 116.474C291.445 116.847 291.332 117.212 291.118 117.515C290.919 117.786 290.659 118.004 290.359 118.15C290.067 118.303 289.762 118.427 289.446 118.52L284.166 120.17C284.166 120.17 284.166 120.04 284.217 119.816C284.269 119.592 284.294 119.295 284.34 118.983C284.387 118.671 284.443 118.337 284.489 118.03C284.535 117.723 284.576 117.51 284.612 117.322V117.359ZM293.671 126.318C293.671 126.318 293.455 126.375 293.055 126.469C292.656 126.563 292.122 126.672 291.456 126.797C290.79 126.922 290.056 127.031 289.252 127.12C288.44 127.212 287.623 127.263 286.806 127.271C286.221 127.278 285.64 127.164 285.099 126.938C284.659 126.748 284.281 126.434 284.012 126.032C283.76 125.639 283.63 125.178 283.638 124.71L289.892 122.815C291.011 122.491 292.074 121.996 293.045 121.346C293.924 120.762 294.661 119.983 295.198 119.066C295.726 118.113 295.998 117.036 295.988 115.943C296 114.882 295.719 113.84 295.178 112.933C294.622 112.031 293.823 111.308 292.876 110.851C291.739 110.314 290.495 110.048 289.241 110.075C288.108 110.077 286.984 110.272 285.914 110.653C284.929 110.99 284.008 111.498 283.192 112.153C282.417 112.766 281.754 113.513 281.234 114.36C280.729 115.176 280.381 116.083 280.208 117.031C280.07 117.796 279.942 118.592 279.814 119.405C279.686 120.217 279.563 121.024 279.46 121.805C279.357 122.585 279.27 123.278 279.204 123.887C279.137 124.496 279.111 125.001 279.111 125.36C279.094 126.472 279.379 127.568 279.937 128.526C280.512 129.481 281.35 130.247 282.346 130.728C283.573 131.3 284.913 131.581 286.263 131.55C287.263 131.55 288.263 131.489 289.257 131.368C290.048 131.271 290.833 131.132 291.61 130.952C292.276 130.795 292.784 130.655 293.148 130.54C293.334 130.488 293.517 130.425 293.696 130.353L293.671 126.318Z" fill="#27304F"/>
<path d="M308.917 129.286C308.932 129.422 308.972 129.554 309.035 129.676C309.163 129.96 309.336 130.22 309.548 130.447C309.833 130.771 310.182 131.032 310.573 131.212C311.106 131.45 311.683 131.567 312.265 131.555C312.512 131.553 312.759 131.532 313.003 131.493C313.28 131.451 313.546 131.404 313.803 131.352L314.438 131.207L314.705 131.144L314.864 127.266L314.684 127.297L314.279 127.354C314.137 127.375 313.993 127.388 313.849 127.391C313.632 127.408 313.421 127.312 313.29 127.136C313.192 126.962 313.147 126.762 313.162 126.563C313.165 126.361 313.181 126.159 313.208 125.959C313.239 125.735 313.28 125.511 313.321 125.282L315.371 110.507H310.901L308.784 125.532L308.271 125.813C307.948 125.99 307.528 126.204 307.015 126.438C306.486 126.679 305.943 126.889 305.39 127.068C304.869 127.236 304.327 127.331 303.78 127.349C303.347 127.361 302.92 127.245 302.55 127.016C302.247 126.811 302.012 126.519 301.873 126.178C301.734 125.829 301.665 125.455 301.668 125.079C301.672 124.858 301.687 124.637 301.714 124.418C301.745 124.189 301.771 123.97 301.791 123.757L303.637 110.497H299.166L297.213 124.553C297.213 124.756 297.172 124.97 297.162 125.188C297.152 125.407 297.131 125.626 297.131 125.829C297.113 126.835 297.326 127.831 297.751 128.739C298.173 129.598 298.844 130.305 299.674 130.764C300.71 131.302 301.864 131.564 303.027 131.524C303.75 131.515 304.468 131.399 305.159 131.181C305.806 130.984 306.434 130.728 307.036 130.415C307.5 130.187 307.951 129.93 308.384 129.645C308.566 129.53 308.737 129.399 308.897 129.254" fill="#27304F"/>
<path fill-rule="evenodd" clip-rule="evenodd" d="M170.055 55.5056V83.1548C168.517 80.2915 166.877 76.3453 155.752 71.8733C133.708 61.8465 128.094 62.211 128.715 38.2372C128.807 34.5618 129.048 30.3136 129.402 25.3679C131.386 27.7158 131.832 30.2512 138.629 34.1661C141.388 35.7279 143.976 37.0086 146.673 38.2372C147.816 38.7578 148.98 39.2784 150.185 39.799C158.151 43.2819 168.04 46.2649 170.055 55.5056Z" fill="url(#paint0_linear_312_3962)"/>
<path fill-rule="evenodd" clip-rule="evenodd" d="M146.668 38.2369C143.972 39.4603 141.383 40.7358 138.625 42.2976C131.812 46.2125 131.366 48.7479 129.397 51.0906C129.043 46.1448 128.802 41.8967 128.71 38.2265C128.802 34.551 129.043 30.3029 129.397 25.3572C131.381 27.7051 131.827 30.2404 138.625 34.1554C141.383 35.7484 143.972 37.0083 146.668 38.2369Z" fill="#376287"/>
<path fill-rule="evenodd" clip-rule="evenodd" d="M185.609 71.8737C174.485 76.3457 172.854 80.2918 171.306 83.1551V55.5059C173.316 46.2652 183.205 43.2822 191.177 39.7941C192.381 39.2735 193.545 38.7529 194.683 38.2323C197.385 37.0037 199.968 35.7439 202.732 34.1612C209.545 30.2463 209.991 27.711 211.959 25.363C212.313 30.3088 212.554 34.5569 212.651 38.2323C213.267 62.2113 207.638 61.8469 185.609 71.8737Z" fill="url(#paint1_linear_312_3962)"/>
<path fill-rule="evenodd" clip-rule="evenodd" d="M212.651 38.2372C212.554 41.8814 212.313 46.1556 211.959 51.1013C209.975 48.7586 209.529 46.2233 202.731 42.3083C199.968 40.7465 197.385 39.4606 194.683 38.2372C197.385 37.0086 199.968 35.7487 202.731 34.1661C209.545 30.2512 209.991 27.7158 211.959 25.3679C212.313 30.3241 212.554 34.5618 212.651 38.2372Z" fill="#BE8023"/>
<path fill-rule="evenodd" clip-rule="evenodd" d="M170.055 24.0144V51.6688C167.886 47.353 166.046 46.2181 166.046 46.2181L163.237 44.1356C160.432 42.0532 150.815 38.206 149.436 37.5969L148.8 37.3262C146.458 36.3422 139.839 33.5622 135.682 30.5271C131.037 27.1276 130.145 22.7961 130.145 22.7961C130.145 22.7961 130.412 20.4326 133.144 17.3871C143.397 5.78806 165.754 8.21927 169.701 22.3432C169.85 22.893 169.968 23.451 170.055 24.0144Z" fill="url(#paint2_linear_312_3962)"/>
<path fill-rule="evenodd" clip-rule="evenodd" d="M169.681 22.3432C167.03 30.5167 157.741 33.3696 150.2 36.6806L148.8 37.2949C146.458 36.311 139.839 33.531 135.682 30.4959C131.037 27.0963 130.145 22.7649 130.145 22.7649C130.145 22.7649 130.412 20.4326 133.144 17.3871C143.397 5.78806 165.733 8.21927 169.681 22.3432Z" fill="#AA1723"/>
<path fill-rule="evenodd" clip-rule="evenodd" d="M211.216 22.7647C211.216 22.7647 210.324 27.0961 205.679 30.4957C201.527 33.5308 194.914 36.3056 192.566 37.2948L191.92 37.5655C190.546 38.1746 180.934 42.001 178.124 44.1042L175.315 46.1866C175.315 46.1866 173.475 47.3216 171.306 51.6374V23.9934C171.4 23.4301 171.524 22.8723 171.675 22.3222C175.623 8.19828 197.959 5.76706 208.232 17.3661C210.929 20.4324 211.216 22.7647 211.216 22.7647Z" fill="url(#paint3_linear_312_3962)"/>
<path fill-rule="evenodd" clip-rule="evenodd" d="M211.216 22.7649C211.216 22.7649 210.324 27.0963 205.679 30.4959C201.527 33.531 194.914 36.3058 192.566 37.2949L191.161 36.6806C183.599 33.3696 174.31 30.5167 171.68 22.3432C175.628 8.21927 197.964 5.78806 208.237 17.3871C210.929 20.4326 211.216 22.7649 211.216 22.7649Z" fill="#AA1723"/>
<defs>
<linearGradient id="paint0_linear_312_3962" x1="126.516" y1="2914.71" x2="4266.69" y2="2914.71" gradientUnits="userSpaceOnUse">
<stop stop-color="#345A83"/>
<stop offset="1" stop-color="#74ACC2"/>
</linearGradient>
<linearGradient id="paint1_linear_312_3962" x1="169.768" y1="2915.23" x2="4309.94" y2="2915.23" gradientUnits="userSpaceOnUse">
<stop stop-color="#DABE33"/>
<stop offset="1" stop-color="#BD7C21"/>
</linearGradient>
<linearGradient id="paint2_linear_312_3962" x1="4111.97" y1="2042.41" x2="147.876" y2="2214.06" gradientUnits="userSpaceOnUse">
<stop stop-color="#B6222A"/>
<stop offset="1" stop-color="#911F22"/>
</linearGradient>
<linearGradient id="paint3_linear_312_3962" x1="4158.01" y1="1952.84" x2="64.1704" y2="2130.32" gradientUnits="userSpaceOnUse">
<stop stop-color="#911F22"/>
<stop offset="1" stop-color="#B6222A"/>
</linearGradient>
</defs>
</svg>
