<svg width="95" height="95" viewBox="0 0 95 95" fill="none" xmlns="http://www.w3.org/2000/svg">
<g filter="url(#filter0_dd_151_644)">
<rect x="10.5391" y="10.1826" width="69" height="69" rx="32" transform="rotate(-0.036244 10.5391 10.1826)" fill="#A8FE39" fill-opacity="0.4"/>
<path fill-rule="evenodd" clip-rule="evenodd" d="M58.8615 44.652C58.8618 45.1094 58.6804 45.5482 58.3571 45.8719C58.0339 46.1955 57.5953 46.3775 57.1378 46.3778L37.1542 46.3904L44.5652 53.7881C44.7257 53.9484 44.853 54.1387 44.9399 54.3481C45.0269 54.5576 45.0717 54.7821 45.0718 55.0089C45.072 55.2357 45.0274 55.4602 44.9408 55.6698C44.8541 55.8794 44.727 56.0698 44.5668 56.2303C44.4065 56.3907 44.2162 56.5181 44.0067 56.605C43.7973 56.6919 43.5727 56.7367 43.3459 56.7368C43.1191 56.737 42.8945 56.6925 42.6849 56.6058C42.4754 56.5192 42.2849 56.3921 42.1244 56.2318L31.769 45.8902C31.6083 45.7301 31.4808 45.5399 31.3937 45.3304C31.3066 45.1209 31.2617 44.8963 31.2615 44.6695C31.2614 44.4426 31.306 44.218 31.3928 44.0084C31.4797 43.7988 31.607 43.6084 31.7675 43.4481L42.1098 33.0934C42.4335 32.7693 42.8726 32.5871 43.3306 32.5868C43.7887 32.5866 44.228 32.7682 44.5521 33.0919C44.8762 33.4155 45.0584 33.8546 45.0587 34.3126C45.059 34.7706 44.8773 35.21 44.5537 35.534L37.152 42.9411L57.1356 42.9284C57.5931 42.9281 58.0319 43.1096 58.3556 43.4328C58.6793 43.756 58.8613 44.1946 58.8615 44.652Z" fill="#004100"/>
</g>
<defs>
<filter id="filter0_dd_151_644" x="0.539062" y="0.138916" width="94.0439" height="94.0437" filterUnits="userSpaceOnUse" color-interpolation-filters="sRGB">
<feFlood flood-opacity="0" result="BackgroundImageFix"/>
<feColorMatrix in="SourceAlpha" type="matrix" values="0 0 0 0 0 0 0 0 0 0 0 0 0 0 0 0 0 0 127 0" result="hardAlpha"/>
<feOffset/>
<feGaussianBlur stdDeviation="5"/>
<feColorMatrix type="matrix" values="0 0 0 0 0.492212 0 0 0 0 0.768281 0 0 0 0 0.140852 0 0 0 0.8 0"/>
<feBlend mode="normal" in2="BackgroundImageFix" result="effect1_dropShadow_151_644"/>
<feColorMatrix in="SourceAlpha" type="matrix" values="0 0 0 0 0 0 0 0 0 0 0 0 0 0 0 0 0 0 127 0" result="hardAlpha"/>
<feOffset dx="5" dy="5"/>
<feGaussianBlur stdDeviation="5"/>
<feColorMatrix type="matrix" values="0 0 0 0 0.376088 0 0 0 0 0.788333 0 0 0 0 0.231245 0 0 0 0.32 0"/>
<feBlend mode="normal" in2="effect1_dropShadow_151_644" result="effect2_dropShadow_151_644"/>
<feBlend mode="normal" in="SourceGraphic" in2="effect2_dropShadow_151_644" result="shape"/>
</filter>
</defs>
</svg>
