<svg width="33" height="33" viewBox="0 0 118 82" fill="none" xmlns="http://www.w3.org/2000/svg">
<path d="M115.489 0.82959H2.51051C2.49341 0.82959 2.47656 0.831274 2.4597 0.831515L2.45994 0.832239C1.09716 0.859451 0 1.96961 0 3.34034V78.6595C0 80.0471 1.12437 81.1703 2.51051 81.1703H115.489C116.876 81.1703 118 80.0471 118 78.6595V3.34034C118 1.95252 116.876 0.82959 115.489 0.82959ZM109.429 5.85109L76.0561 39.2234C76.0556 39.2239 76.0551 39.2241 76.0546 39.2246L59 56.2795L41.9454 39.2246C41.9444 39.2237 41.9435 39.2229 41.9423 39.2217L8.57162 5.85109H109.429ZM5.02126 9.40096L36.62 40.9997L5.02126 72.5986V9.40096ZM8.57162 76.1488L40.1703 44.5498L57.2252 61.6047C58.0991 62.4786 59.4655 62.9145 60.7755 61.6047L77.8301 44.55L109.429 76.1488H8.57162ZM112.979 72.5982L81.3803 40.9997L112.979 9.40121V72.5982Z" fill="#006424"/>
</svg>
