<svg width="495" height="181" viewBox="0 0 495 181" fill="none" xmlns="http://www.w3.org/2000/svg">
<g filter="url(#filter0_d_88_194)">
<path d="M0 3H413.2L485.5 166H0V3Z" fill="#00963F"/>
</g>
<path d="M0 166L0 3L140 3L0 166Z" fill="#7EC424"/>
<path d="M0 3L0 166L161 166L0 3Z" fill="#004100" fill-opacity="0.8"/>
<g clip-path="url(#clip0_88_194)">
<path fill-rule="evenodd" clip-rule="evenodd" d="M235.439 84.6914C237.952 85.6156 240.122 87.295 241.656 89.5022C243.189 91.7094 244.012 94.3378 244.012 97.0315L244.012 97.066C241.499 96.1421 239.329 94.4628 237.795 92.2555C236.261 90.0483 235.439 87.4197 235.439 84.7261L235.439 84.6914ZM235.923 81.163C239.277 82.2261 242.206 84.3378 244.285 87.1914C246.365 90.045 247.486 93.4918 247.487 97.0311C247.487 97.2951 247.48 97.5573 247.468 97.8186C247.802 97.8445 248.141 97.8581 248.481 97.8581C250.909 97.8574 253.287 97.1749 255.35 95.8874C257.413 94.5998 259.078 92.7583 260.158 90.57C261.238 88.3817 261.691 85.9333 261.464 83.5004C261.238 81.0675 260.341 78.7464 258.876 76.7984C257.411 74.8503 255.434 73.3526 253.17 72.4735C250.905 71.5945 248.442 71.369 246.057 71.8225C243.672 72.2761 241.46 73.3906 239.67 75.0407C237.879 76.6908 236.582 78.8111 235.923 81.163ZM180.727 96.3538C180.872 93.5529 181.903 90.872 183.669 88.7032C185.435 86.5343 187.845 84.9914 190.544 84.3C190.4 87.1009 189.369 89.7817 187.603 91.9505C185.836 94.1193 183.427 95.6623 180.727 96.3538ZM200.47 85.7724C202.222 86.8323 203.703 88.292 204.792 90.0339C205.881 91.7757 206.548 93.7508 206.74 95.8C204.987 94.7402 203.507 93.2805 202.417 91.5386C201.328 89.7968 200.661 87.8216 200.47 85.7724ZM177.24 96.7519C177.303 93.0021 178.623 89.3838 180.985 86.4839C183.347 83.584 186.613 81.5727 190.253 80.7761C189.722 78.3713 188.531 76.1652 186.815 74.4097C185.098 72.6542 182.926 71.4202 180.546 70.8485C178.166 70.2769 175.674 70.3907 173.355 71.177C171.037 71.9633 168.984 73.3903 167.433 75.2951C165.881 77.1998 164.893 79.5055 164.581 81.9488C164.269 84.3921 164.646 86.8744 165.669 89.1121C166.692 91.3499 168.319 93.253 170.365 94.6039C172.411 95.9548 174.794 96.6992 177.24 96.7519ZM194.033 83.9032C193.969 87.6528 192.649 91.2709 190.287 94.1705C187.925 97.0701 184.659 99.0812 181.019 99.8776C181.667 102.815 183.297 105.439 185.636 107.311C187.976 109.183 190.883 110.19 193.871 110.163C196.86 110.136 199.748 109.076 202.054 107.162C204.36 105.248 205.943 102.594 206.538 99.646C203.672 98.3147 201.245 96.1847 199.543 93.508C197.842 90.8313 196.938 87.7199 196.938 84.5421C196.938 84.4596 196.94 84.3774 196.941 84.2951C195.989 84.0548 195.014 83.9232 194.033 83.9032ZM204.942 84.7996L202.024 78.2156C201.389 79.3762 200.932 80.6276 200.672 81.9266C202.235 82.6547 203.676 83.6239 204.942 84.7996ZM214.874 93.2756L213.127 87.3455L209.929 93.6464C210.158 94.7599 210.273 95.894 210.272 97.0311C210.272 97.1141 210.27 97.1959 210.269 97.2784C211.311 97.542 212.381 97.675 213.456 97.6745C213.795 97.6745 214.13 97.6608 214.463 97.6353C214.455 97.4348 214.451 97.2337 214.451 97.0311C214.45 95.7672 214.592 94.5072 214.874 93.2756ZM224.835 96.5941L226.164 102.751L230.263 97.553L230.263 97.5536C230.306 97.4991 230.364 97.4582 230.429 97.4358C230.494 97.4134 230.565 97.4105 230.631 97.4273C230.698 97.4441 230.759 97.4801 230.806 97.5308C230.853 97.5815 230.885 97.6448 230.897 97.7131L233.127 109.984C235.565 109.57 237.837 108.468 239.678 106.805C241.518 105.143 242.853 102.989 243.525 100.593C240.173 99.53 237.244 97.4183 235.165 94.5648C233.085 91.7113 231.964 88.2647 231.964 84.7257C231.964 84.462 231.971 84.1995 231.982 83.9386C231.648 83.9126 231.31 83.8996 230.969 83.8996C230.63 83.8996 230.294 83.9122 229.962 83.9378C229.969 84.1383 229.974 84.3398 229.974 84.542C229.977 86.7972 229.522 89.0292 228.638 91.1015C227.755 93.1738 226.46 95.0427 224.835 96.5941ZM222.731 86.85L223.924 92.3745C225.569 90.1528 226.47 87.4621 226.498 84.691C225.131 85.1937 223.858 85.9235 222.731 86.85ZM219.749 73.0387L221.924 83.1136C223.205 82.2678 224.596 81.6063 226.058 81.1482C225.602 79.4389 224.808 77.8397 223.724 76.4464C222.64 75.053 221.288 73.8939 219.749 73.0387ZM221.284 83.5593L218.921 72.6166C217.208 71.8196 215.343 71.408 213.456 71.4106C212.87 71.4104 212.284 71.4497 211.703 71.5282L211.353 72.1011C211.315 72.1628 211.26 72.2116 211.194 72.2412C211.128 72.2708 211.055 72.2798 210.984 72.2671C210.914 72.2544 210.848 72.2206 210.797 72.17C210.745 72.1194 210.71 72.0544 210.696 71.9834H210.695L210.641 71.7176C207.273 72.4694 204.337 74.5323 202.474 77.4558L206.42 86.3583C207.931 88.1715 209.039 90.2893 209.67 92.5693L212.897 86.2111C212.93 86.1468 212.981 86.0937 213.044 86.0589C213.107 86.0241 213.179 86.0091 213.25 86.0158C213.322 86.0226 213.39 86.0507 213.445 86.0967C213.5 86.1426 213.541 86.2043 213.561 86.2736L213.562 86.2735L215.235 91.9552C216.313 88.5802 218.432 85.6391 221.284 83.5593ZM223.344 93.1027L222.111 87.3923C220.808 88.6034 219.765 90.0699 219.046 91.7016C218.326 93.3333 217.946 95.0959 217.927 96.8811C220.024 96.1082 221.889 94.8073 223.344 93.1027ZM232.415 110.083L230.333 98.6279L226.255 103.8C226.213 103.854 226.156 103.894 226.092 103.917C226.027 103.939 225.958 103.943 225.892 103.927C225.825 103.912 225.765 103.877 225.717 103.828C225.669 103.78 225.636 103.718 225.622 103.651H225.622L224.219 97.155C222.51 98.6362 220.518 99.749 218.366 100.425C219.173 103.46 221.035 106.103 223.612 107.875C226.19 109.647 229.313 110.43 232.415 110.083ZM213.912 67.9189C215.311 67.9562 216.701 68.1727 218.046 68.5632L216.865 63.0927L213.912 67.9189ZM200.851 73.7947C203.196 71.0045 206.389 69.0702 209.936 68.2907L206.536 51.7549L197.975 47.9707L191.971 53.7603L200.851 73.7947ZM195.017 133.539L197.47 133.931L198.401 139.114L200.857 134.474L203.238 134.855L199.345 141.227L196.806 140.82L195.017 133.539ZM204.273 134.54L206.638 134.787L205.93 141.658L203.565 141.411L204.273 134.54ZM207.86 139.268L210.118 139.141C210.144 139.416 210.248 139.677 210.417 139.895C210.55 140.038 210.713 140.15 210.894 140.223C211.075 140.295 211.27 140.326 211.465 140.313C211.742 140.331 212.017 140.256 212.248 140.099C212.329 140.044 212.397 139.971 212.444 139.884C212.492 139.798 212.518 139.701 212.521 139.602C212.518 139.507 212.493 139.414 212.447 139.331C212.402 139.247 212.338 139.175 212.26 139.121C212.085 138.98 211.681 138.846 211.044 138.721C210.004 138.51 209.262 138.231 208.819 137.883C208.608 137.731 208.438 137.531 208.321 137.299C208.204 137.067 208.145 136.81 208.148 136.55C208.151 136.185 208.271 135.832 208.491 135.543C208.757 135.2 209.115 134.942 209.523 134.798C210.131 134.595 210.77 134.503 211.411 134.528C212.392 134.528 213.141 134.692 213.657 135.02C213.918 135.194 214.137 135.425 214.296 135.696C214.455 135.968 214.551 136.272 214.576 136.586L212.339 136.704C212.305 136.438 212.171 136.194 211.964 136.025C211.73 135.873 211.455 135.799 211.177 135.815C210.957 135.799 210.738 135.854 210.552 135.972C210.489 136.014 210.437 136.071 210.4 136.138C210.364 136.205 210.344 136.28 210.343 136.357C210.346 136.416 210.364 136.474 210.394 136.526C210.424 136.577 210.465 136.621 210.515 136.653C210.761 136.79 211.032 136.877 211.312 136.907C212.075 137.03 212.821 137.235 213.54 137.518C213.931 137.677 214.271 137.942 214.521 138.283C214.724 138.585 214.831 138.942 214.828 139.306C214.827 139.748 214.684 140.178 214.419 140.53C214.128 140.919 213.731 141.215 213.276 141.381C212.683 141.592 212.056 141.69 211.427 141.671C210.122 141.671 209.218 141.445 208.715 140.992C208.216 140.552 207.909 139.933 207.86 139.268ZM215.944 134.812L222.294 134.493L222.367 135.966L218.392 136.165L218.447 137.263L222.134 137.077L222.203 138.485L218.516 138.67L218.583 140.029L222.674 139.824L222.752 141.387L216.285 141.711L215.944 134.812ZM228.466 133.833L230.812 133.504L231.376 137.584C231.432 137.976 231.415 138.374 231.324 138.759C231.231 139.141 231.05 139.496 230.795 139.794C230.559 140.085 230.264 140.323 229.931 140.493C229.421 140.731 228.876 140.886 228.317 140.952C227.913 141.007 227.505 141.04 227.097 141.051C226.714 141.073 226.331 141.031 225.962 140.928C225.639 140.825 225.337 140.662 225.072 140.449C224.818 140.259 224.61 140.014 224.463 139.731C224.278 139.379 224.15 138.999 224.085 138.605L223.522 134.525L225.868 134.197L226.445 138.374C226.458 138.537 226.507 138.696 226.587 138.838C226.667 138.981 226.777 139.104 226.909 139.2C227.215 139.365 227.564 139.429 227.908 139.382C228.251 139.335 228.571 139.179 228.821 138.937C228.923 138.808 228.996 138.658 229.034 138.498C229.072 138.338 229.075 138.171 229.043 138.01L228.466 133.833ZM170.094 106.578L171.725 108.542C172.019 108.874 172.267 109.243 172.463 109.64C172.63 110.021 172.692 110.44 172.641 110.853C172.586 111.289 172.438 111.708 172.208 112.082C171.906 112.548 171.531 112.961 171.1 113.308C170.726 113.637 170.3 113.901 169.839 114.089C169.394 114.272 168.912 114.346 168.433 114.304C168.057 114.254 167.698 114.117 167.384 113.904C167.043 113.664 166.74 113.375 166.484 113.046L164.806 111.023L170.094 106.578ZM170.09 108.405L166.589 111.349L167.254 112.152C167.427 112.376 167.625 112.579 167.844 112.758C168.013 112.889 168.212 112.975 168.423 113.009C168.68 113.026 168.937 112.975 169.168 112.862C169.552 112.677 169.909 112.439 170.228 112.156C170.554 111.9 170.84 111.597 171.077 111.256C171.223 111.036 171.312 110.784 171.337 110.521C171.348 110.274 171.291 110.028 171.172 109.812C170.975 109.482 170.747 109.172 170.491 108.886L170.09 108.405ZM169.944 116.4L174.526 111.221L175.566 112.152L170.982 117.33L169.944 116.4ZM174.671 110.817L176.089 110.196L177.194 111.186L175.295 111.376L174.671 110.817ZM172.49 118.706L176.146 112.825L177.294 113.549L177.242 118.98L179.684 115.056L180.78 115.745L177.123 121.627L175.939 120.88L175.97 115.562L173.586 119.397L172.49 118.706ZM184.958 125.051L183.568 124.449L183.634 122.761L181.104 121.666L179.964 122.888L178.607 122.301L183.796 116.996L185.148 117.582L184.958 125.051ZM183.683 121.512L183.822 118.768L181.956 120.764L183.683 121.512ZM186.411 125.129L188.608 118.555L190.582 119.225L190.267 124.11L192.937 120.023L194.914 120.692L192.716 127.266L191.493 126.852L193.224 121.677L190.196 126.412L188.925 125.981L189.365 120.369L187.635 125.544L186.411 125.129ZM195.294 124.433C195.363 123.828 195.555 123.244 195.86 122.718C196.067 122.392 196.328 122.106 196.633 121.87C196.92 121.644 197.251 121.478 197.603 121.383C198.098 121.263 198.611 121.245 199.112 121.33C199.56 121.374 199.994 121.512 200.386 121.736C200.777 121.959 201.118 122.262 201.387 122.626C201.898 123.341 202.073 124.258 201.91 125.375C201.749 126.484 201.323 127.307 200.633 127.844C200.274 128.114 199.864 128.305 199.427 128.406C198.991 128.506 198.538 128.513 198.099 128.427C197.084 128.278 196.322 127.848 195.815 127.138C195.308 126.427 195.135 125.525 195.294 124.433ZM196.717 124.596C196.605 125.372 196.697 125.988 196.995 126.442C197.136 126.661 197.322 126.847 197.542 126.986C197.762 127.125 198.009 127.213 198.267 127.244C198.521 127.289 198.781 127.276 199.03 127.207C199.278 127.138 199.508 127.015 199.704 126.845C200.112 126.499 200.374 125.928 200.491 125.133C200.606 124.347 200.521 123.735 200.235 123.297C200.084 123.086 199.892 122.909 199.671 122.774C199.45 122.64 199.205 122.551 198.949 122.514C198.694 122.477 198.433 122.493 198.184 122.559C197.934 122.625 197.7 122.741 197.496 122.901C197.093 123.241 196.833 123.806 196.717 124.596ZM209.898 127.021L211.245 127.451C211.098 128.113 210.735 128.707 210.214 129.138C209.592 129.557 208.846 129.746 208.102 129.674C207.357 129.603 206.66 129.275 206.128 128.746C205.54 128.116 205.245 127.256 205.244 126.165C205.244 125.01 205.541 124.114 206.133 123.475C206.432 123.156 206.795 122.906 207.198 122.741C207.601 122.576 208.034 122.499 208.469 122.517C209.225 122.484 209.963 122.755 210.522 123.269C210.868 123.623 211.113 124.064 211.228 124.547L209.85 124.878C209.787 124.541 209.605 124.238 209.339 124.024C209.072 123.811 208.738 123.7 208.398 123.714C208.163 123.706 207.929 123.752 207.714 123.848C207.498 123.943 207.307 124.087 207.155 124.267C206.837 124.636 206.679 125.233 206.679 126.06C206.679 126.937 206.835 127.561 207.149 127.934C207.296 128.114 207.483 128.259 207.695 128.356C207.906 128.452 208.137 128.499 208.369 128.492C208.721 128.5 209.062 128.373 209.324 128.137C209.626 127.834 209.826 127.444 209.898 127.021ZM212.431 129.571V128.242H213.751V129.571H212.431ZM218.313 129.511L217.882 122.587L222.98 122.267L223.053 123.438L219.344 123.672L219.439 125.206L222.892 124.989L222.963 126.154L219.511 126.372L219.629 128.256L223.47 128.014L223.542 129.181L218.313 129.511ZM224.846 126.597L226.174 126.299C226.262 126.676 226.48 127.01 226.788 127.241C227.099 127.431 227.468 127.501 227.826 127.438C228.187 127.421 228.53 127.276 228.796 127.03C228.89 126.94 228.962 126.83 229.007 126.707C229.052 126.585 229.069 126.454 229.055 126.324C229.041 126.172 228.972 126.031 228.862 125.927C228.708 125.801 228.524 125.719 228.329 125.689C228.161 125.651 227.78 125.597 227.187 125.523C226.424 125.429 225.878 125.265 225.547 125.032C225.18 124.787 224.914 124.415 224.799 123.986C224.685 123.557 224.731 123.101 224.927 122.704C225.098 122.365 225.366 122.085 225.697 121.902C226.104 121.68 226.552 121.543 227.013 121.498C227.873 121.393 228.541 121.503 229.022 121.828C229.259 121.991 229.46 122.204 229.609 122.451C229.759 122.699 229.854 122.975 229.888 123.263L228.515 123.493C228.451 123.203 228.283 122.947 228.042 122.776C227.764 122.634 227.446 122.59 227.14 122.651C226.805 122.672 226.485 122.799 226.227 123.014C226.163 123.07 226.114 123.14 226.085 123.22C226.055 123.299 226.046 123.384 226.058 123.468C226.068 123.549 226.096 123.626 226.141 123.694C226.185 123.762 226.245 123.819 226.314 123.86C226.506 123.987 226.948 124.09 227.638 124.166C228.166 124.21 228.686 124.315 229.189 124.479C229.519 124.602 229.81 124.812 230.03 125.087C230.262 125.397 230.402 125.765 230.435 126.151C230.483 126.544 230.416 126.943 230.242 127.298C230.064 127.672 229.773 127.98 229.412 128.179C228.959 128.419 228.463 128.567 227.953 128.613C227.088 128.719 226.4 128.599 225.888 128.253C225.342 127.857 224.969 127.263 224.846 126.597ZM231.347 120.636L234.208 119.955L233.041 113.531C232.354 113.618 231.662 113.661 230.969 113.661C227.161 113.667 223.469 112.341 220.523 109.912L223.33 119.446L229.013 114.707C229.06 114.668 229.116 114.642 229.176 114.63C229.236 114.619 229.298 114.623 229.356 114.643C229.414 114.662 229.466 114.696 229.507 114.741C229.549 114.786 229.578 114.841 229.592 114.901L231.347 120.636ZM233.945 127.146L232.627 121.539L231.691 121.762L238.699 144.671L234.419 121.112L233.983 121.216L235.299 126.824L233.945 127.146ZM244.266 124.127L242.836 124.631L241.752 123.342L239.151 124.255L239.132 125.933L237.739 126.422L238.001 118.983L239.391 118.495L244.266 124.127ZM240.95 122.387L239.21 120.272L239.174 123.011L240.95 122.387ZM248.499 119.371L249.896 119.165C250.051 119.826 249.983 120.519 249.701 121.136C249.39 121.716 248.895 122.173 248.295 122.437C247.922 122.634 247.512 122.749 247.092 122.774C246.672 122.798 246.251 122.733 245.858 122.582C245.055 122.275 244.416 121.631 243.942 120.65C243.439 119.612 243.316 118.674 243.572 117.839C243.702 117.421 243.92 117.036 244.211 116.71C244.502 116.384 244.858 116.125 245.257 115.949C245.923 115.588 246.704 115.506 247.429 115.722C247.894 115.888 248.306 116.178 248.62 116.56L247.523 117.465C247.319 117.192 247.026 117 246.695 116.923C246.362 116.851 246.015 116.898 245.712 117.057C245.498 117.154 245.307 117.298 245.156 117.479C245.004 117.66 244.894 117.873 244.835 118.102C244.709 118.573 244.826 119.18 245.185 119.924C245.566 120.712 245.978 121.204 246.421 121.402C246.633 121.499 246.863 121.547 247.096 121.541C247.328 121.535 247.556 121.475 247.762 121.367C248.081 121.219 248.333 120.955 248.466 120.627C248.606 120.222 248.618 119.783 248.499 119.371ZM247.804 124.668L247.561 124.164C247.841 124.064 248.116 123.949 248.384 123.819C248.587 123.739 248.759 123.596 248.875 123.41C248.905 123.361 248.921 123.304 248.923 123.247C248.925 123.189 248.912 123.131 248.887 123.08C248.862 123.031 248.827 122.989 248.783 122.956C248.74 122.923 248.69 122.901 248.636 122.892C248.477 122.87 248.315 122.902 248.177 122.984C247.99 123.077 247.818 123.196 247.665 123.339L247.572 122.865C247.763 122.675 247.984 122.518 248.227 122.402C248.504 122.242 248.828 122.186 249.142 122.243C249.261 122.269 249.372 122.322 249.468 122.397C249.563 122.473 249.641 122.569 249.693 122.679C249.752 122.797 249.782 122.928 249.78 123.06C249.779 123.192 249.745 123.322 249.683 123.438C249.449 123.84 249.09 124.154 248.661 124.331C248.388 124.474 248.101 124.587 247.804 124.668ZM257.504 116.186L256.328 117.143L254.875 116.299L252.735 118.044L253.277 119.629L252.131 120.565L249.882 113.473L251.026 112.542L257.504 116.186ZM253.798 115.674L251.453 114.275L252.337 116.867L253.798 115.674ZM249.365 113.401L248.898 113.783C248.85 113.729 248.813 113.685 248.787 113.653C248.602 113.45 248.498 113.184 248.496 112.907C248.501 112.791 248.532 112.677 248.586 112.574C248.64 112.471 248.716 112.381 248.809 112.31C248.887 112.244 248.975 112.188 249.068 112.146C249.239 112.074 249.415 112.018 249.594 111.977C249.795 111.934 249.985 111.852 250.154 111.736C250.228 111.679 250.277 111.594 250.29 111.501C250.296 111.385 250.262 111.269 250.193 111.175L250.668 110.789C250.89 111.023 251.026 111.326 251.053 111.648C251.052 111.763 251.026 111.876 250.975 111.979C250.924 112.081 250.851 112.171 250.761 112.24C250.678 112.308 250.588 112.366 250.493 112.414C250.428 112.444 250.246 112.51 249.953 112.606C249.742 112.664 249.542 112.755 249.36 112.877C249.325 112.902 249.295 112.935 249.274 112.973C249.252 113.011 249.239 113.053 249.236 113.096C249.241 113.21 249.287 113.319 249.365 113.401ZM255.842 113.632C255.396 113.221 255.039 112.722 254.793 112.165C254.651 111.806 254.574 111.424 254.565 111.038C254.55 110.671 254.609 110.304 254.74 109.96C254.933 109.487 255.219 109.058 255.58 108.698C255.879 108.359 256.245 108.086 256.654 107.898C257.064 107.709 257.508 107.608 257.958 107.602C258.833 107.605 259.673 108 260.477 108.787C261.275 109.567 261.688 110.397 261.716 111.276C261.722 111.726 261.635 112.173 261.461 112.588C261.286 113.003 261.028 113.377 260.702 113.685C259.986 114.425 259.192 114.793 258.325 114.791C257.454 114.789 256.626 114.4 255.842 113.632ZM177.518 66.9937C181.343 66.9946 185.05 68.3316 188.006 70.7767C190.961 73.2217 192.982 76.6234 193.725 80.4014L193.754 80.401C194.966 80.4004 196.174 80.5338 197.357 80.7988C197.888 78.4836 198.906 76.3104 200.345 74.4268L191.42 54.2918L187.288 58.2767L188.356 43.0511L174.732 35.913L189.824 33.0586L191.996 18L199.862 31.0689L215.929 28.8418L205.211 40.7267L212.677 54.4691L207.343 52.1117L210.641 68.153C211.444 68.0143 212.256 67.9353 213.07 67.9166L216.71 61.9684C216.744 61.9028 216.798 61.8495 216.864 61.8156C216.929 61.7818 217.004 61.7691 217.077 61.7793C217.15 61.7895 217.218 61.8221 217.272 61.8726C217.326 61.9232 217.363 61.9892 217.379 62.0618L218.837 68.8157C221.431 69.7186 223.76 71.2562 225.617 73.2904C227.474 75.3246 228.799 77.7915 229.474 80.4693C229.966 80.4249 230.465 80.4011 230.969 80.4011C231.489 80.4011 232.002 80.4262 232.509 80.4736C233.298 77.4702 234.906 74.7492 237.152 72.6188C239.398 70.4885 242.191 69.034 245.216 68.4202C248.241 67.8064 251.376 68.0578 254.266 69.1459C257.156 70.234 259.686 72.1152 261.569 74.5766C263.452 77.0379 264.612 79.9809 264.918 83.0722C265.225 86.1634 264.665 89.2793 263.303 92.0667C261.941 94.8542 259.83 97.2018 257.211 98.8436C254.591 100.485 251.567 101.356 248.482 101.356C247.962 101.356 247.448 101.33 246.94 101.283C246.128 104.366 244.453 107.149 242.115 109.302C239.777 111.454 236.875 112.886 233.752 113.426L234.909 119.789L235.698 119.601L235.967 120.743L235.118 120.945L240.499 150.557C240.52 150.648 240.505 150.744 240.457 150.825C240.409 150.905 240.332 150.963 240.242 150.988C240.152 151.012 240.056 151 239.974 150.955C239.893 150.909 239.832 150.834 239.805 150.744L230.99 121.929L230.639 122.013L230.37 120.869L230.646 120.803L229.058 115.611L223.37 120.354C223.324 120.392 223.269 120.418 223.211 120.429C223.153 120.441 223.092 120.438 223.035 120.42C222.979 120.403 222.927 120.371 222.885 120.329C222.843 120.286 222.813 120.234 222.796 120.176L219.505 109.002C217.284 106.849 215.706 104.113 214.95 101.103C214.457 101.148 213.96 101.172 213.456 101.172C212.244 101.173 211.035 101.039 209.851 100.773C209 104.481 206.912 107.784 203.934 110.129C200.957 112.474 197.271 113.72 193.491 113.659C189.711 113.599 186.066 112.234 183.165 109.795C180.263 107.355 178.28 103.988 177.547 100.254L177.518 100.254C173.137 100.254 168.936 98.502 165.838 95.3833C162.74 92.2645 161 88.0345 161 83.624C161 79.2134 162.74 74.9834 165.838 71.8646C168.936 68.7459 173.137 66.9937 177.518 66.9937ZM256.807 112.565C257.366 113.112 257.916 113.398 258.456 113.422C258.713 113.429 258.969 113.383 259.208 113.285C259.446 113.188 259.662 113.041 259.842 112.856C260.021 112.67 260.161 112.449 260.252 112.207C260.342 111.964 260.382 111.705 260.368 111.447C260.327 110.912 260.024 110.363 259.451 109.803C258.884 109.248 258.342 108.962 257.822 108.933C257.564 108.933 257.308 108.986 257.07 109.088C256.833 109.189 256.618 109.338 256.438 109.525C256.259 109.712 256.118 109.933 256.026 110.176C255.933 110.419 255.89 110.678 255.899 110.938C255.935 111.465 256.238 112.008 256.807 112.565Z" fill="white"/>
</g>
<defs>
<filter id="filter0_d_88_194" x="-9" y="0" width="503.5" height="181" filterUnits="userSpaceOnUse" color-interpolation-filters="sRGB">
<feFlood flood-opacity="0" result="BackgroundImageFix"/>
<feColorMatrix in="SourceAlpha" type="matrix" values="0 0 0 0 0 0 0 0 0 0 0 0 0 0 0 0 0 0 127 0" result="hardAlpha"/>
<feOffset dy="6"/>
<feGaussianBlur stdDeviation="4.5"/>
<feComposite in2="hardAlpha" operator="out"/>
<feColorMatrix type="matrix" values="0 0 0 0 0 0 0 0 0 0 0 0 0 0 0 0 0 0 0.1 0"/>
<feBlend mode="normal" in2="BackgroundImageFix" result="effect1_dropShadow_88_194"/>
<feBlend mode="normal" in="SourceGraphic" in2="effect1_dropShadow_88_194" result="shape"/>
</filter>
<clipPath id="clip0_88_194">
<rect width="104" height="133" fill="white" transform="translate(161 18)"/>
</clipPath>
</defs>
</svg>
