<svg width="35" height="35" viewBox="0 0 35 35" fill="none" xmlns="http://www.w3.org/2000/svg">
<path d="M26.1428 9.64279H27.7142M8.07136 1.78564H26.9285C30.4 1.78564 33.2142 4.59985 33.2142 8.07136V26.9285C33.2142 30.4 30.4 33.2142 26.9285 33.2142H8.07136C4.59985 33.2142 1.78564 30.4 1.78564 26.9285V8.07136C1.78564 4.59985 4.59985 1.78564 8.07136 1.78564ZM17.4999 23.7856C14.0284 23.7856 11.2142 20.9714 11.2142 17.4999C11.2142 14.0284 14.0284 11.2142 17.4999 11.2142C20.9714 11.2142 23.7856 14.0284 23.7856 17.4999C23.7856 20.9714 20.9714 23.7856 17.4999 23.7856Z" stroke="white" stroke-width="2"/>
</svg>
