<svg width="26" height="36" viewBox="0 0 26 36" fill="none" xmlns="http://www.w3.org/2000/svg">
<path d="M13.002 8.18182C10.0196 8.18182 7.64901 10.7182 7.64901 13.9091C7.64901 17.1 10.0196 19.6364 13.002 19.6364C15.9843 19.6364 18.3549 17.1 18.3549 13.9091C18.3549 10.7182 15.9843 8.18182 13.002 8.18182ZM13.002 18C10.8608 18 9.17842 16.2 9.17842 13.9091C9.17842 11.6182 10.8608 9.81818 13.002 9.81818C15.1431 9.81818 16.8255 11.6182 16.8255 13.9091C16.8255 16.2 15.1431 18 13.002 18ZM13.002 0C5.81372 0 0.00195312 6.21818 0.00195312 13.9091C0.00195312 25.6091 12.0078 35.4273 12.5431 35.8364C12.6961 35.9182 12.849 36 13.002 36C13.1549 36 13.3078 35.9182 13.4608 35.8364C13.9961 35.4273 26.002 25.6091 26.002 13.9091C26.002 6.21818 20.1902 0 13.002 0ZM13.002 34.1182C10.7843 32.2364 1.53136 23.5636 1.53136 13.9091C1.53136 7.11818 6.65489 1.63636 13.002 1.63636C19.349 1.63636 24.4725 7.11818 24.4725 13.9091C24.4725 23.5636 15.2196 32.2364 13.002 34.1182Z" fill="#006424"/>
</svg>
