<svg width="37" height="37" viewBox="0 0 37 37" fill="none" xmlns="http://www.w3.org/2000/svg">
<path d="M18.4405 0.000244141C8.27494 0.000244141 0 8.16868 0 18.2152C0 28.2617 8.27494 36.4302 18.4405 36.4302C28.6061 36.4302 36.8811 28.2565 36.8811 18.2152C36.8811 8.17397 28.6061 0.000244141 18.4405 0.000244141ZM18.4405 34.314C9.45325 34.314 2.14238 27.0926 2.14238 18.2152C2.14238 9.33786 9.45325 2.11642 18.4405 2.11642C27.4278 2.11642 34.7387 9.33786 34.7387 18.2152C34.7387 27.0926 27.4278 34.314 18.4405 34.314Z" fill="#006424"/>
<path d="M18.4411 7.24292C17.852 7.24292 17.37 7.71906 17.37 8.30101V17.6968L12.8442 21.1568C12.3782 21.5165 12.2925 22.1778 12.6514 22.6434C12.8602 22.9132 13.1816 23.056 13.4976 23.056C13.7279 23.056 13.9582 22.982 14.151 22.8338L19.0892 19.0565C19.357 18.8501 19.5123 18.5433 19.5123 18.2153V8.30101C19.5123 7.71377 19.0303 7.24292 18.4411 7.24292Z" fill="#006424"/>
</svg>
