<svg width="33" height="33" viewBox="0 0 33 33" fill="none" xmlns="http://www.w3.org/2000/svg">
<path d="M32.3145 15.125C31.935 15.125 31.627 14.817 31.627 14.4375C31.627 7.23525 25.7667 1.375 18.5645 1.375C18.185 1.375 17.877 1.067 17.877 0.6875C17.877 0.308 18.185 0 18.5645 0C26.5257 0 33.002 6.47625 33.002 14.4375C33.002 14.817 32.694 15.125 32.3145 15.125ZM27.502 14.4375C27.502 9.5095 23.4925 5.5 18.5645 5.5C18.185 5.5 17.877 5.808 17.877 6.1875C17.877 6.567 18.185 6.875 18.5645 6.875C22.7348 6.875 26.127 10.2671 26.127 14.4375C26.127 14.817 26.435 15.125 26.8145 15.125C27.194 15.125 27.502 14.817 27.502 14.4375ZM30.5737 30.6226L31.9185 29.0758C32.617 28.3773 33.002 27.4478 33.002 26.4605C33.002 25.4732 32.617 24.5424 31.8511 23.7861L28.4878 21.2107C27.0468 19.7697 24.7025 19.7684 23.2587 21.2066L21.1522 23.2609C16.0922 21.1997 11.97 17.0734 9.74795 11.8443L11.794 9.74738C13.2363 8.305 13.2363 5.95787 11.8531 4.58287L9.15945 1.08625C7.76108 -0.312125 5.29158 -0.279125 3.96195 1.05463L2.3477 2.46263C0.833828 3.96825 0.00195312 6.01287 0.00195312 8.217C0.00195312 18.8719 14.1301 33 24.785 33C26.9891 33 29.0323 32.1681 30.5737 30.6226ZM8.12683 1.98825L10.8205 5.48488C11.7266 6.391 11.7266 7.86638 10.815 8.77938L8.4472 11.2076C8.25745 11.4029 8.1997 11.6916 8.30145 11.9446C10.6788 17.864 15.3318 22.5156 21.0697 24.7046C21.32 24.8009 21.6032 24.7417 21.7943 24.5561L24.2226 22.1884C24.2226 22.1884 24.2267 22.1842 24.2281 22.1815C25.1067 21.3015 26.5711 21.2451 27.5831 22.2406L30.9463 24.816C31.8525 25.7221 31.8525 27.1961 30.9147 28.138L29.5686 29.6849C28.3201 30.9361 26.6206 31.625 24.785 31.625C14.94 31.625 1.37695 18.062 1.37695 8.217C1.37695 6.38137 2.06583 4.68187 3.28408 3.465L4.8997 2.05562C5.3617 1.59363 5.97083 1.36812 6.57033 1.36812C7.14645 1.36812 7.71295 1.57713 8.1282 1.98962L8.12683 1.98825Z" fill="#006424"/>
</svg>
