<svg width="91" height="116" viewBox="0 0 91 116" fill="none" xmlns="http://www.w3.org/2000/svg">
<g clip-path="url(#clip0_93_238)">
<path fill-rule="evenodd" clip-rule="evenodd" d="M65.134 58.167C67.333 58.973 69.2319 60.4377 70.5738 62.3628C71.9156 64.2879 72.6355 66.5804 72.6359 68.9297L72.6357 68.9599C70.4366 68.154 68.5375 66.6894 67.1956 64.7642C65.8537 62.8391 65.1339 60.5466 65.1337 58.1972L65.134 58.167ZM65.558 55.0896C68.492 56.0168 71.0549 57.8586 72.8745 60.3474C74.6941 62.8363 75.6756 65.8425 75.6763 68.9294C75.6763 69.1597 75.67 69.3883 75.6593 69.6162C75.9518 69.6388 76.2479 69.6507 76.5462 69.6507C78.67 69.6501 80.7514 69.0548 82.5565 67.9318C84.3615 66.8089 85.8185 65.2028 86.7636 63.2941C87.7087 61.3855 88.1043 59.2501 87.9061 57.1282C87.7078 55.0062 86.9235 52.9819 85.6414 51.2828C84.3592 49.5838 82.6301 48.2774 80.6485 47.5107C78.667 46.744 76.5115 46.5474 74.4247 46.943C72.3378 47.3385 70.4023 48.3106 68.8359 49.7498C67.2695 51.189 66.1343 53.0382 65.558 55.0896ZM17.2615 68.3387C17.3879 65.8958 18.2898 63.5575 19.8354 61.6659C21.381 59.7743 23.4891 58.4286 25.8514 57.8255C25.7249 60.2684 24.823 62.6066 23.2774 64.4982C21.7319 66.3898 19.6238 67.7355 17.2615 68.3387ZM34.536 59.1097C36.0694 60.0342 37.3649 61.3073 38.3178 62.8265C39.2708 64.3457 39.8546 66.0684 40.0222 67.8557C38.4888 66.9313 37.1933 65.6582 36.2403 64.139C35.2873 62.6198 34.7035 60.897 34.536 59.1097ZM14.2098 68.6858C14.2651 65.4154 15.4198 62.2596 17.4866 59.7303C19.5534 57.2011 22.4112 55.4468 25.5962 54.7521C25.1322 52.6547 24.0897 50.7305 22.5877 49.1994C21.0858 47.6683 19.1851 46.592 17.1026 46.0935C15.0201 45.5949 12.8399 45.6942 10.811 46.3799C8.78203 47.0657 6.9862 48.3103 5.62863 49.9716C4.27105 51.6329 3.40645 53.6439 3.1336 55.7749C2.86075 57.9059 3.19065 60.0709 4.08561 62.0226C4.98057 63.9744 6.4045 65.6342 8.19476 66.8124C9.98501 67.9907 12.0694 68.6399 14.2098 68.6858ZM28.9036 57.4795C28.848 60.7498 27.693 63.9054 25.626 66.4344C23.559 68.9634 20.7013 70.7174 17.5163 71.412C18.0834 73.9738 19.5098 76.2624 21.5569 77.8953C23.604 79.5281 26.1477 80.4061 28.7625 80.3825C31.3774 80.3588 33.9048 79.4349 35.9223 77.7653C37.9397 76.0957 39.3247 73.7816 39.8457 71.21C37.3379 70.0489 35.214 68.1912 33.7253 65.8566C32.2367 63.5221 31.4456 60.8084 31.4457 58.0367C31.4457 57.9647 31.4475 57.8931 31.4485 57.8213C30.6157 57.6117 29.762 57.4969 28.9036 57.4795ZM38.4496 58.2613L35.8961 52.5188C35.34 53.5311 34.9409 54.6226 34.7127 55.7556C36.0807 56.3905 37.3415 57.2359 38.4496 58.2613ZM47.1397 65.654L45.6115 60.4818L42.8132 65.9773C43.0133 66.9485 43.1139 67.9377 43.1134 68.9294C43.1134 69.0017 43.1112 69.0731 43.1103 69.1451C44.0221 69.375 44.9586 69.491 45.8987 69.4905C46.1954 69.4905 46.4886 69.4786 46.7798 69.4564C46.7734 69.2814 46.7695 69.1061 46.7695 68.9294C46.7688 67.827 46.893 66.7281 47.1397 65.654ZM55.8554 68.5483L57.0185 73.9177L60.6048 69.3846L60.6053 69.3851C60.6428 69.3376 60.6931 69.3019 60.7503 69.2824C60.8074 69.2628 60.869 69.2603 60.9276 69.275C60.9861 69.2896 61.0392 69.321 61.0805 69.3652C61.1218 69.4094 61.1495 69.4646 61.1603 69.5242L63.1112 80.2265C65.2447 79.8654 67.2323 78.904 68.8429 77.4542C70.4535 76.0043 71.621 74.1255 72.2097 72.0361C69.276 71.1089 66.7133 69.2671 64.8941 66.7783C63.0748 64.2896 62.0937 61.2835 62.0933 58.1969C62.0933 57.9668 62.0993 57.738 62.1097 57.5103C61.8168 57.4877 61.521 57.4764 61.2224 57.4764C60.9263 57.4764 60.632 57.4874 60.3416 57.5096C60.348 57.6845 60.3525 57.8603 60.3525 58.0367C60.3546 60.0036 59.9569 61.9503 59.1837 63.7577C58.4104 65.5651 57.2779 67.1952 55.8554 68.5483ZM54.0146 60.0496L55.0583 64.868C56.498 62.9303 57.2866 60.5835 57.3103 58.1666C56.1146 58.6051 55.0006 59.2415 54.0146 60.0496ZM51.4054 48.0036L53.3088 56.7908C54.429 56.0531 55.6464 55.4762 56.9257 55.0766C56.5266 53.5858 55.8321 52.1911 54.8836 50.9758C53.9351 49.7605 52.7521 48.7496 51.4054 48.0036ZM52.7482 57.1796L50.6809 47.6355C49.1819 46.9404 47.55 46.5815 45.8987 46.5837C45.3859 46.5836 44.8736 46.6178 44.3654 46.6862L44.0586 47.1859C44.0255 47.2397 43.9772 47.2823 43.9197 47.3081C43.8623 47.3339 43.7984 47.3418 43.7364 47.3307C43.6745 47.3196 43.6172 47.2901 43.5722 47.246C43.5272 47.2019 43.4964 47.1452 43.4839 47.0833H43.4834L43.4356 46.8514C40.4885 47.5072 37.9196 49.3064 36.2897 51.8562L39.7423 59.6208C41.0645 61.2022 42.0342 63.0493 42.5863 65.0379L45.4101 59.4924C45.4387 59.4363 45.4834 59.39 45.5385 59.3597C45.5935 59.3293 45.6564 59.3162 45.719 59.3221C45.7815 59.3279 45.8409 59.3525 45.8894 59.3926C45.9379 59.4327 45.9733 59.4865 45.991 59.5469L45.9915 59.5468L47.4555 64.5023C48.3988 61.5587 50.2528 58.9935 52.7482 57.1796ZM54.5511 65.5031L53.4723 60.5226C52.3323 61.5789 51.4196 62.8579 50.79 64.2811C50.1605 65.7042 49.8275 67.2415 49.8115 68.7985C51.6459 68.1244 53.2776 66.9898 54.5511 65.5031ZM62.4879 80.3128L60.6667 70.3221L57.0981 74.833C57.061 74.8798 57.0114 74.9151 56.9551 74.9347C56.8989 74.9544 56.8382 74.9576 56.7802 74.944C56.7222 74.9304 56.6692 74.9005 56.6274 74.8579C56.5856 74.8152 56.5568 74.7616 56.5442 74.7031H56.5438L55.3166 69.0374C53.8215 70.3293 52.0784 71.2999 50.1948 71.8891C50.9016 74.5363 52.5303 76.8418 54.7857 78.3873C57.041 79.9328 59.7737 80.6158 62.4879 80.3128ZM46.2977 43.5383C47.5224 43.5708 48.738 43.7596 49.9151 44.1003L48.8817 39.329L46.2977 43.5383ZM34.8697 48.663C36.9217 46.2295 39.7155 44.5424 42.819 43.8626L39.8443 29.4404L32.3529 26.1399L27.0999 31.1894L34.8697 48.663ZM29.7653 100.771L31.9109 101.113L32.7257 105.633L34.8751 101.586L36.9581 101.918L33.5521 107.476L31.3304 107.121L29.7653 100.771ZM37.8638 101.644L39.9337 101.859L39.314 107.852L37.2441 107.637L37.8638 101.644ZM41.0025 105.767L42.9784 105.656C43.0014 105.896 43.0921 106.125 43.2399 106.315C43.3563 106.44 43.4989 106.537 43.6574 106.6C43.8159 106.663 43.9864 106.69 44.1565 106.679C44.3992 106.695 44.6401 106.629 44.8418 106.493C44.9132 106.445 44.9721 106.38 45.0138 106.305C45.0554 106.23 45.0785 106.145 45.0811 106.059C45.0783 105.976 45.0562 105.895 45.0166 105.822C44.9769 105.749 44.9208 105.687 44.8527 105.64C44.6996 105.516 44.346 105.4 43.7889 105.291C42.8783 105.107 42.2291 104.863 41.8412 104.559C41.6574 104.427 41.508 104.253 41.4058 104.05C41.3037 103.848 41.2517 103.624 41.2544 103.397C41.2569 103.079 41.3622 102.771 41.5546 102.519C41.7872 102.22 42.1006 101.994 42.4573 101.869C42.9894 101.692 43.549 101.612 44.1094 101.633C44.9684 101.633 45.6235 101.776 46.0747 102.062C46.3033 102.214 46.4946 102.416 46.6339 102.652C46.7732 102.889 46.857 103.155 46.879 103.429L44.9215 103.531C44.8921 103.299 44.7744 103.087 44.5931 102.939C44.389 102.806 44.1479 102.742 43.9048 102.756C43.7127 102.742 43.5212 102.79 43.3584 102.893C43.3029 102.93 43.2572 102.979 43.2253 103.038C43.1934 103.096 43.1762 103.162 43.1753 103.228C43.1781 103.28 43.1933 103.331 43.2194 103.376C43.2456 103.421 43.2821 103.459 43.3259 103.486C43.5411 103.607 43.7784 103.682 44.0233 103.708C44.6903 103.815 45.3438 103.994 45.9728 104.241C46.3148 104.38 46.6117 104.611 46.8305 104.909C47.0086 105.172 47.1024 105.483 47.0994 105.801C47.099 106.186 46.9734 106.561 46.7416 106.869C46.4867 107.208 46.1393 107.466 45.7415 107.611C45.2224 107.794 44.6739 107.88 44.1237 107.863C42.9815 107.863 42.1904 107.666 41.7504 107.271C41.3143 106.888 41.0458 106.348 41.0025 105.767ZM48.0757 101.881L53.6321 101.603L53.696 102.888L50.2177 103.062L50.2661 104.019L53.4922 103.857L53.553 105.085L50.3262 105.246L50.3852 106.431L53.965 106.252L54.0327 107.616L48.3745 107.898L48.0757 101.881ZM59.0328 101.027L61.0857 100.74L61.5792 104.299C61.6283 104.64 61.6127 104.988 61.5333 105.324C61.4523 105.657 61.2939 105.966 61.0709 106.227C60.8638 106.48 60.6063 106.688 60.3147 106.836C59.868 107.043 59.3915 107.178 58.9027 107.236C58.5485 107.284 58.192 107.313 57.8346 107.323C57.5001 107.342 57.1647 107.306 56.842 107.215C56.5591 107.125 56.2951 106.984 56.0633 106.798C55.841 106.632 55.6588 106.418 55.53 106.172C55.3681 105.864 55.2564 105.533 55.1993 105.19L54.7064 101.631L56.7596 101.345L57.2642 104.988C57.2758 105.13 57.3182 105.268 57.3884 105.393C57.4586 105.517 57.555 105.625 57.6707 105.708C57.9378 105.853 58.2437 105.908 58.5443 105.867C58.8449 105.826 59.1248 105.69 59.3436 105.479C59.4327 105.367 59.4962 105.236 59.5297 105.096C59.5632 104.956 59.5659 104.811 59.5375 104.67L59.0328 101.027ZM7.95717 77.2564L9.38467 78.9693C9.64124 79.2583 9.85821 79.5804 10.0298 79.927C10.1763 80.2588 10.2302 80.6242 10.1859 80.9843C10.1375 81.3649 10.0084 81.7306 9.80728 82.0569C9.5424 82.4625 9.21504 82.8234 8.83741 83.126C8.50994 83.413 8.13714 83.6433 7.73431 83.8074C7.34486 83.9667 6.92323 84.0309 6.5042 83.9946C6.17517 83.9512 5.8607 83.8316 5.5856 83.6453C5.288 83.436 5.02269 83.1839 4.79819 82.8972L3.3299 81.1333L7.95717 77.2564ZM7.95413 78.8493L4.89062 81.4172L5.47229 82.1172C5.62338 82.3129 5.79659 82.4903 5.98845 82.6459C6.13646 82.7603 6.31062 82.8357 6.49508 82.8653C6.7199 82.8797 6.94461 82.8354 7.1472 82.7365C7.48317 82.5753 7.79527 82.3682 8.07458 82.1211C8.35969 81.8978 8.61015 81.6332 8.81773 81.336C8.94472 81.1443 9.02263 80.9241 9.04455 80.6949C9.05471 80.4793 9.00476 80.2651 8.90029 80.0764C8.72786 79.7888 8.52853 79.5184 8.305 79.2688L7.95413 78.8493ZM7.82613 85.8228L11.8353 81.3052L12.7449 82.1172L8.7343 86.6339L7.82613 85.8228ZM11.962 80.9531L13.2025 80.4114L14.1697 81.2751L12.5081 81.4411L11.962 80.9531ZM10.0541 87.8342L13.253 82.7045L14.257 83.3358L14.212 88.0731L16.3488 84.6505L17.3071 85.2514L14.1073 90.3813L13.0718 89.7302L13.0986 85.0918L11.0128 88.4361L10.0541 87.8342ZM20.9635 93.3678L19.747 92.843L19.8048 91.3705L17.5911 90.4151L16.5938 91.4815L15.4065 90.9693L19.9465 86.3424L21.1292 86.8532L20.9635 93.3678ZM19.8474 90.2812L19.969 87.8881L18.3363 89.6288L19.8474 90.2812ZM22.235 93.4358L24.1574 87.702L25.8844 88.2861L25.6087 92.5467L27.9449 88.9821L29.6749 89.5663L27.7515 95.2998L26.681 94.9389L28.1957 90.425L25.5466 94.5547L24.4344 94.1791L24.8193 89.2844L23.3052 93.7974L22.235 93.4358ZM30.0072 92.8286C30.0674 92.3011 30.236 91.7919 30.5025 91.3332C30.6833 91.0491 30.9121 90.7988 31.1787 90.5936C31.4304 90.3961 31.7192 90.2516 32.0279 90.1686C32.4604 90.0641 32.9096 90.0483 33.3484 90.1222C33.7403 90.1609 34.1198 90.2815 34.4625 90.4762C34.8052 90.6709 35.1036 90.9354 35.3383 91.2527C35.7859 91.8766 35.9386 92.6759 35.7965 93.6506C35.6552 94.6178 35.2826 95.3355 34.6789 95.8038C34.365 96.0391 34.0056 96.2059 33.6237 96.2935C33.2417 96.3811 32.8458 96.3876 32.4612 96.3124C31.5731 96.1825 30.9071 95.8076 30.4633 95.1878C30.0198 94.5675 29.8677 93.7811 30.0072 92.8286ZM31.2526 92.9708C31.1541 93.6482 31.2352 94.1849 31.4958 94.5809C31.6186 94.7724 31.782 94.9344 31.9743 95.0554C32.1666 95.1763 32.3831 95.2532 32.6084 95.2806C32.8306 95.3194 33.0585 95.3084 33.276 95.2482C33.4934 95.1881 33.6948 95.0804 33.8659 94.9328C34.2229 94.6308 34.4525 94.133 34.5548 93.4396C34.6555 92.7539 34.5808 92.2201 34.3308 91.838C34.1984 91.6543 34.0306 91.4992 33.8373 91.382C33.644 91.2647 33.4291 91.1877 33.2056 91.1555C32.982 91.1232 32.7542 91.1364 32.5358 91.1943C32.3175 91.2521 32.1129 91.3535 31.9343 91.4923C31.5813 91.7892 31.354 92.282 31.2526 92.9708ZM42.7858 95.0863L43.9646 95.4608C43.8356 96.0387 43.518 96.5567 43.0622 96.9328C42.5182 97.2975 41.8654 97.4626 41.214 97.4002C40.5627 97.3378 39.9528 97.0518 39.4873 96.5904C38.9723 96.0412 38.7145 95.2909 38.7138 94.3396C38.7138 93.3324 38.9731 92.5502 39.4916 91.993C39.753 91.7153 40.0706 91.4971 40.4231 91.353C40.7756 91.2088 41.1547 91.1422 41.5351 91.1575C42.1969 91.1293 42.8429 91.3652 43.3317 91.8138C43.6349 92.1219 43.8485 92.5072 43.9496 92.9281L42.7437 93.2167C42.6882 92.9228 42.5295 92.6587 42.2963 92.4724C42.0632 92.286 41.7712 92.1898 41.4734 92.2013C41.2675 92.1946 41.0628 92.2346 40.8745 92.3182C40.6862 92.4018 40.519 92.5269 40.3855 92.6843C40.1077 93.0056 39.9688 93.5269 39.9687 94.248C39.9687 95.0126 40.1058 95.5573 40.38 95.8819C40.5092 96.0396 40.6726 96.1655 40.8578 96.25C41.0429 96.3344 41.2449 96.3752 41.4482 96.3693C41.7556 96.3756 42.054 96.265 42.2834 96.0596C42.5474 95.7953 42.723 95.4551 42.7858 95.0863ZM45.002 97.3102V96.1511H46.1571V97.3102H45.002ZM50.1489 97.2574L49.7721 91.2192L54.2328 90.9397L54.2963 91.9609L51.0506 92.165L51.1337 93.5032L54.1553 93.3141L54.2179 94.3301L51.1969 94.5199L51.3 96.1633L54.6609 95.9524L54.7245 96.97L50.1489 97.2574ZM55.8655 94.716L57.0273 94.4567C57.1046 94.7853 57.2948 95.076 57.5645 95.2778C57.8365 95.4436 58.1592 95.5047 58.4727 95.4496C58.7885 95.4345 59.089 95.3085 59.3215 95.0935C59.4037 95.0153 59.4669 94.9191 59.5063 94.8124C59.5456 94.7058 59.56 94.5915 59.5484 94.4784C59.5359 94.3459 59.4757 94.2225 59.379 94.1315C59.2448 94.0219 59.0838 93.9504 58.9127 93.9244C58.7661 93.8911 58.4322 93.844 57.9138 93.7794C57.2464 93.6975 56.7682 93.5548 56.479 93.3513C56.1572 93.1376 55.9244 92.8131 55.8244 92.439C55.7244 92.065 55.7642 91.6671 55.9363 91.3204C56.0856 91.0248 56.3202 90.7811 56.6095 90.6211C56.9662 90.4277 57.3579 90.308 57.7615 90.269C58.514 90.1774 59.0984 90.2735 59.5188 90.557C59.7269 90.6992 59.9022 90.8844 60.033 91.1003C60.1637 91.3161 60.2469 91.5575 60.2769 91.8083L59.0753 92.009C59.0201 91.7562 58.8725 91.5332 58.6617 91.3839C58.4181 91.2599 58.1401 91.2213 57.8721 91.2742C57.5791 91.2925 57.2995 91.4036 57.0734 91.5916C57.0178 91.6398 56.9751 91.7013 56.9493 91.7704C56.9236 91.8395 56.9155 91.914 56.926 91.987C56.9345 92.0576 56.9592 92.1252 56.9981 92.1845C57.037 92.2439 57.089 92.2935 57.1501 92.3294C57.3176 92.4401 57.7047 92.5292 58.3085 92.5961C58.7699 92.6339 59.2254 92.7255 59.6657 92.8691C59.9542 92.9761 60.2084 93.1593 60.4015 93.3994C60.6039 93.6692 60.7268 93.9906 60.756 94.327C60.7979 94.67 60.7392 95.0178 60.587 95.3277C60.4309 95.6539 60.1768 95.9226 59.8603 96.0961C59.4639 96.3054 59.0301 96.4341 58.584 96.4747C57.8272 96.5668 57.2248 96.4622 56.777 96.1608C56.2994 95.8147 55.973 95.2973 55.8655 94.716ZM61.5534 89.5174L64.0573 88.9235L63.036 83.3204C62.4345 83.3961 61.829 83.4341 61.2228 83.4341C57.8906 83.4387 54.66 82.2828 52.0824 80.1636L54.539 88.479L59.5115 84.3461C59.5527 84.312 59.6018 84.2889 59.6543 84.2791C59.7068 84.2692 59.7609 84.2729 59.8116 84.2898C59.8623 84.3067 59.9078 84.3362 59.944 84.3756C59.9802 84.4151 60.0058 84.4631 60.0184 84.5151L61.5534 89.5174ZM63.8266 95.1948L62.674 90.3044L61.8548 90.499L67.9868 110.48L64.2413 89.9322L63.8597 90.0227L65.0118 94.9144L63.8266 95.1948ZM72.8579 92.5622L71.6065 93.0013L70.6582 91.8776L68.3821 92.6738L68.3654 94.1371L67.1467 94.5636L67.3762 88.0751L68.592 87.65L72.8579 92.5622ZM69.9564 91.0439L68.4338 89.1992L68.4024 91.5887L69.9564 91.0439ZM76.5614 88.4138L77.784 88.234C77.9198 88.8102 77.8599 89.4155 77.6137 89.9536C77.3409 90.4588 76.9079 90.858 76.3833 91.0881C76.0571 91.2597 75.6982 91.3597 75.3306 91.3814C74.9629 91.4032 74.5948 91.3461 74.2507 91.2141C73.5481 90.9468 72.9892 90.3853 72.5739 89.5295C72.1343 88.6237 72.0264 87.8062 72.2504 87.0772C72.3646 86.7128 72.5553 86.3772 72.8096 86.0929C73.0639 85.8087 73.3759 85.5824 73.7247 85.4294C74.3075 85.1141 74.9908 85.043 75.6256 85.2313C76.0324 85.3758 76.3925 85.6285 76.6673 85.9624L75.7077 86.7514C75.5293 86.5131 75.2728 86.3456 74.9835 86.2785C74.692 86.2157 74.3877 86.257 74.1233 86.3953C73.9355 86.4798 73.7691 86.6057 73.6362 86.7635C73.5034 86.9213 73.4076 87.107 73.3559 87.307C73.2455 87.7174 73.3476 88.2472 73.6621 88.8964C73.995 89.5831 74.3555 90.0127 74.7435 90.1852C74.9285 90.2701 75.1303 90.3115 75.3336 90.3061C75.5369 90.3008 75.7363 90.2489 75.9165 90.1544C76.1961 90.0255 76.4164 89.795 76.5329 89.5093C76.6557 89.1561 76.6656 88.7731 76.5614 88.4138ZM75.9531 93.0339L75.7408 92.5945C75.9859 92.5069 76.2262 92.4064 76.4608 92.2937C76.6382 92.2234 76.7888 92.0984 76.8908 91.9367C76.9165 91.8934 76.9309 91.8443 76.9326 91.794C76.9344 91.7436 76.9234 91.6936 76.9007 91.6486C76.8794 91.6062 76.8485 91.5692 76.8105 91.5407C76.7725 91.5122 76.7285 91.493 76.6818 91.4844C76.5426 91.4652 76.401 91.4937 76.2799 91.5653C76.1164 91.646 75.9656 91.7503 75.8321 91.8747L75.7506 91.4616C75.9174 91.2955 76.1111 91.1589 76.3234 91.0576C76.5656 90.9177 76.8494 90.8687 77.1242 90.9191C77.2282 90.9414 77.3257 90.9873 77.4093 91.0532C77.4929 91.119 77.5605 91.2032 77.6068 91.2993C77.6584 91.4021 77.6845 91.516 77.6829 91.6311C77.6813 91.7463 77.652 91.8594 77.5976 91.9608C77.3928 92.3118 77.0788 92.5856 76.7038 92.74C76.4649 92.8649 76.2132 92.9634 75.9531 93.0339ZM84.4408 85.636L83.4118 86.4708L82.1409 85.7345L80.268 87.2568L80.7426 88.6392L79.7399 89.4552L77.7716 83.2698L78.7726 82.4573L84.4408 85.636ZM81.1981 85.1896L79.1461 83.9688L79.9198 86.2295L81.1981 85.1896ZM77.3198 83.2067L76.9108 83.5402C76.8685 83.4926 76.836 83.4542 76.8138 83.427C76.6514 83.2493 76.5605 83.0174 76.5587 82.7762C76.5637 82.6746 76.5908 82.5753 76.6381 82.4854C76.6854 82.3955 76.7518 82.317 76.8326 82.2557C76.9014 82.1975 76.9779 82.1491 77.0598 82.1119C77.2087 82.0497 77.3627 82.0006 77.5201 81.9652C77.6955 81.9277 77.8619 81.8562 78.01 81.7547C78.0749 81.7049 78.1175 81.6312 78.1285 81.5499C78.1337 81.4482 78.1038 81.3478 78.0439 81.2656L78.4596 80.9291C78.654 81.1327 78.7728 81.3971 78.7962 81.6781C78.7958 81.7781 78.7725 81.8767 78.7282 81.9662C78.6839 82.0558 78.6196 82.1339 78.5405 82.1947C78.4681 82.2536 78.3895 82.3045 78.3061 82.3463C78.2498 82.3725 78.0899 82.4299 77.8335 82.5135C77.6491 82.5639 77.474 82.6437 77.3149 82.75C77.284 82.772 77.2583 82.8005 77.2395 82.8336C77.2208 82.8666 77.2095 82.9034 77.2063 82.9413C77.2104 83.0407 77.2508 83.1352 77.3198 83.2067ZM82.9871 83.4087C82.5964 83.0501 82.2838 82.6144 82.0688 82.1288C81.945 81.8156 81.8773 81.4829 81.8691 81.1461C81.856 80.8256 81.9081 80.5057 82.0223 80.206C82.1917 79.7935 82.4416 79.4191 82.7572 79.1049C83.0189 78.8092 83.3391 78.5715 83.6974 78.4069C84.0558 78.2424 84.4444 78.1546 84.8384 78.1493C85.6043 78.1517 86.3389 78.4962 87.0424 79.1827C87.7411 79.8632 88.1023 80.5867 88.1261 81.3534C88.1319 81.7463 88.056 82.1361 87.9033 82.4979C87.7505 82.8598 87.5242 83.1856 87.2388 83.4547C86.6131 84.0996 85.9181 84.4211 85.1595 84.4196C84.3973 84.4175 83.6727 84.0781 82.9871 83.4087ZM14.4534 42.7314C17.8005 42.7321 21.0438 43.8982 23.6298 46.0308C26.2159 48.1633 27.9846 51.1302 28.6342 54.4253L28.6598 54.425C29.7202 54.4244 30.7776 54.5407 31.8127 54.7719C32.2767 52.7527 33.1682 50.8572 34.4267 49.2144L26.6178 31.653L23.0022 35.1286L23.9364 21.8491L12.0151 15.6234L25.2208 13.1338L27.1219 0L34.0044 11.3984L48.0631 9.456L38.6848 19.8218L45.217 31.8076L40.5503 29.7516L43.4362 43.7425C44.1385 43.6215 44.8488 43.5526 45.5612 43.5363L48.7459 38.3484C48.7761 38.2912 48.8231 38.2447 48.8806 38.2151C48.9381 38.1856 49.0032 38.1746 49.0671 38.1835C49.1311 38.1924 49.1908 38.2208 49.2381 38.2648C49.2854 38.3089 49.318 38.3665 49.3316 38.4298L50.6076 44.3205C52.8768 45.1079 54.9153 46.4491 56.5399 48.2232C58.1644 49.9974 59.324 52.149 59.9145 54.4845C60.3453 54.4458 60.7819 54.425 61.2228 54.425C61.6776 54.425 62.1264 54.447 62.5703 54.4883C63.2603 51.8687 64.6676 49.4955 66.6328 47.6375C68.5979 45.7795 71.0423 44.5109 73.6891 43.9755C76.3358 43.4402 79.079 43.6594 81.608 44.6084C84.1369 45.5574 86.3504 47.1983 87.9978 49.345C89.6451 51.4917 90.6604 54.0586 90.9286 56.7547C91.1968 59.4508 90.7072 62.1684 89.5152 64.5995C88.3232 67.0307 86.4766 69.0783 84.1845 70.5102C81.8924 71.9422 79.2465 72.7013 76.5465 72.7016C76.0917 72.7016 75.6416 72.6787 75.1978 72.6375C74.4869 75.3264 73.0215 77.7539 70.9759 79.6314C68.9303 81.5089 66.3904 82.7574 63.6583 83.2285L64.67 88.7783L65.3607 88.6144L65.5957 89.6109L64.8537 89.7869L69.5615 115.614C69.5797 115.693 69.5665 115.777 69.5245 115.847C69.4825 115.917 69.4151 115.968 69.3364 115.989C69.2577 116.01 69.1739 116 69.1027 115.961C69.0314 115.921 68.9782 115.855 68.9543 115.777L61.2416 90.6448L60.9343 90.7178L60.6989 89.7201L60.9402 89.6629L59.5504 85.1344L54.5737 89.2708C54.5336 89.304 54.4857 89.3267 54.4346 89.3368C54.3836 89.347 54.3308 89.3443 54.2811 89.329C54.2313 89.3137 54.1861 89.2863 54.1495 89.2492C54.1128 89.2121 54.086 89.1664 54.0712 89.1163L51.1917 79.3699C49.2482 77.4922 47.8676 75.1057 47.2064 72.481C46.7753 72.5197 46.3402 72.5414 45.899 72.5414C44.8381 72.5415 43.7804 72.4248 42.7449 72.1932C42.0002 75.4275 40.1727 78.3076 37.5675 80.353C34.9622 82.3983 31.7368 83.4852 28.4295 83.4322C25.1221 83.3792 21.9329 82.1895 19.3941 80.0617C16.8552 77.9339 15.1204 74.9967 14.479 71.7402L14.4534 71.7405C10.6201 71.7405 6.94386 70.2123 4.23331 67.4922C1.52277 64.7721 0 61.0828 0 57.2359C0 53.3891 1.52277 49.6998 4.23331 46.9797C6.94386 44.2596 10.6201 42.7314 14.4534 42.7314ZM83.8314 82.4779C84.3203 82.955 84.8012 83.2041 85.2741 83.2253C85.4992 83.2315 85.7232 83.1908 85.9319 83.1058C86.1405 83.0208 86.3294 82.8933 86.4866 82.7315C86.6438 82.5696 86.7658 82.3768 86.8451 82.1653C86.9244 81.9538 86.9592 81.728 86.9473 81.5023C86.9114 81.0359 86.646 80.5572 86.1443 80.0689C85.6484 79.5844 85.174 79.3354 84.7195 79.3104C84.4935 79.3104 84.2697 79.3561 84.0617 79.4447C83.8536 79.5334 83.6654 79.6631 83.5084 79.8263C83.3513 79.9894 83.2286 80.1826 83.1475 80.3943C83.0664 80.6061 83.0286 80.832 83.0364 81.0587C83.0683 81.5185 83.3333 81.9916 83.8314 82.4779Z" fill="white"/>
</g>
<defs>
<clipPath id="clip0_93_238">
<rect width="91" height="116" fill="white"/>
</clipPath>
</defs>
</svg>
