<svg width="15" height="8" viewBox="0 0 15 8" fill="none" xmlns="http://www.w3.org/2000/svg">
<path d="M1.00002 1.32859L0.850024 1.32698C0.849317 1.39289 0.864075 1.45759 0.892596 1.51688C0.920844 1.57561 0.961693 1.62722 1.01146 1.66931L7.13645 7.01749C7.13658 7.01761 7.13671 7.01772 7.13684 7.01783C7.18543 7.06073 7.2422 7.09389 7.30343 7.11624C7.36481 7.13865 7.43011 7.15 7.49567 7.15C7.56124 7.15 7.62654 7.13865 7.68792 7.11624C7.74914 7.09389 7.80591 7.06074 7.8545 7.01785C7.85463 7.01773 7.85476 7.01761 7.8549 7.01749L13.9805 1.66994C14.0308 1.62835 14.0726 1.57736 14.1021 1.51922C14.1321 1.4602 14.1487 1.39553 14.1499 1.32924C14.1512 1.26295 14.1371 1.19769 14.1093 1.1376C14.0815 1.07761 14.0408 1.02458 13.991 0.981038C13.9411 0.937527 13.8829 0.904145 13.8202 0.881985C13.7574 0.859826 13.6908 0.849089 13.624 0.85006C13.5573 0.851032 13.491 0.863705 13.429 0.887737C13.3678 0.91144 13.3114 0.945978 13.2635 0.990215L7.49569 6.0254L1.72779 0.989025C1.72776 0.989002 1.72774 0.98898 1.72771 0.988957C1.679 0.946187 1.62216 0.913149 1.56088 0.890893C1.49958 0.868627 1.43441 0.857348 1.36897 0.857348C1.30353 0.857348 1.23836 0.868627 1.17706 0.890893C1.11591 0.913101 1.05918 0.946043 1.01054 0.988677C0.91161 1.07454 0.850888 1.19579 0.850019 1.3276L1.00002 1.32859ZM1.00002 1.32859C0.999561 1.3709 1.00901 1.41285 1.02777 1.45186C1.04654 1.49087 1.07422 1.52613 1.10914 1.55547M1.00002 1.32859C1.00058 1.24334 1.03982 1.16176 1.10914 1.10172V1.55547M1.10914 1.55547L7.23585 6.90515C7.26981 6.9352 7.31026 6.95905 7.35487 6.97533C7.39947 6.99162 7.44733 7 7.49567 7C7.54402 7 7.59188 6.99162 7.63648 6.97533C7.68109 6.95905 7.72154 6.9352 7.7555 6.90515L1.10914 1.55547Z" fill="#FBC201" stroke="#FBC201" stroke-width="0.3"/>
</svg>
