<svg width="26" height="30" viewBox="0 0 26 30" fill="none" xmlns="http://www.w3.org/2000/svg">
<path d="M14.6795 15.0004L25.7057 2.04167C26.1606 1.50792 26.0774 0.72042 25.5211 0.28292C24.9647 -0.15208 24.147 -0.0758303 23.692 0.46042L13 13.0267L2.30666 0.45917C1.85038 -0.0770803 1.03272 -0.15333 0.477641 0.28167C-0.0787346 0.72042 -0.160631 1.50667 0.293049 2.04042L11.3205 15.0004L0.294349 27.9592C-0.160631 28.4929 -0.0774348 29.2804 0.478941 29.7179C1.03142 30.1529 1.85168 30.0779 2.30796 29.5404L13 16.9742L23.6933 29.5404C24.1496 30.0779 24.9699 30.1517 25.5224 29.7179C26.0787 29.2792 26.1606 28.4929 25.707 27.9592L14.6795 15.0004Z" fill="white"/>
</svg>
