<svg width="308" height="350" viewBox="0 0 308 350" fill="none" xmlns="http://www.w3.org/2000/svg">
<rect width="308" height="350" fill="#01B04A"/>
<path d="M98.425 244.675H91.475L90.325 248H86.65L92.925 230.525H97L103.275 248H99.575L98.425 244.675ZM97.475 241.875L94.95 234.575L92.425 241.875H97.475ZM117.496 230.55V233.375H112.846V248H109.346V233.375H104.696V230.55H117.496ZM123.549 245.225H129.299V248H120.049V230.55H123.549V245.225ZM135.024 233.375V237.75H140.899V240.525H135.024V245.15H141.649V248H131.524V230.525H141.649V233.375H135.024ZM156.704 230.55V233.375H152.054V248H148.554V233.375H143.904V230.55H156.704ZM162.758 230.55V248H159.258V230.55H162.758ZM172.241 248.175C171.025 248.175 169.925 247.967 168.941 247.55C167.975 247.133 167.208 246.533 166.641 245.75C166.075 244.967 165.783 244.042 165.766 242.975H169.516C169.566 243.692 169.816 244.258 170.266 244.675C170.733 245.092 171.366 245.3 172.166 245.3C172.983 245.3 173.625 245.108 174.091 244.725C174.558 244.325 174.791 243.808 174.791 243.175C174.791 242.658 174.633 242.233 174.316 241.9C174 241.567 173.6 241.308 173.116 241.125C172.65 240.925 172 240.708 171.166 240.475C170.033 240.142 169.108 239.817 168.391 239.5C167.691 239.167 167.083 238.675 166.566 238.025C166.066 237.358 165.816 236.475 165.816 235.375C165.816 234.342 166.075 233.442 166.591 232.675C167.108 231.908 167.833 231.325 168.766 230.925C169.7 230.508 170.766 230.3 171.966 230.3C173.766 230.3 175.225 230.742 176.341 231.625C177.475 232.492 178.1 233.708 178.216 235.275H174.366C174.333 234.675 174.075 234.183 173.591 233.8C173.125 233.4 172.5 233.2 171.716 233.2C171.033 233.2 170.483 233.375 170.066 233.725C169.666 234.075 169.466 234.583 169.466 235.25C169.466 235.717 169.616 236.108 169.916 236.425C170.233 236.725 170.616 236.975 171.066 237.175C171.533 237.358 172.183 237.575 173.016 237.825C174.15 238.158 175.075 238.492 175.791 238.825C176.508 239.158 177.125 239.658 177.641 240.325C178.158 240.992 178.416 241.867 178.416 242.95C178.416 243.883 178.175 244.75 177.691 245.55C177.208 246.35 176.5 246.992 175.566 247.475C174.633 247.942 173.525 248.175 172.241 248.175ZM200.476 230.55V248H196.976V236.65L192.301 248H189.651L184.951 236.65V248H181.451V230.55H185.426L190.976 243.525L196.526 230.55H200.476ZM212.036 248.175C210.403 248.175 208.903 247.792 207.536 247.025C206.169 246.258 205.086 245.2 204.286 243.85C203.486 242.483 203.086 240.942 203.086 239.225C203.086 237.525 203.486 236 204.286 234.65C205.086 233.283 206.169 232.217 207.536 231.45C208.903 230.683 210.403 230.3 212.036 230.3C213.686 230.3 215.186 230.683 216.536 231.45C217.903 232.217 218.978 233.283 219.761 234.65C220.561 236 220.961 237.525 220.961 239.225C220.961 240.942 220.561 242.483 219.761 243.85C218.978 245.2 217.903 246.258 216.536 247.025C215.169 247.792 213.669 248.175 212.036 248.175ZM212.036 245.05C213.086 245.05 214.011 244.817 214.811 244.35C215.611 243.867 216.236 243.183 216.686 242.3C217.136 241.417 217.361 240.392 217.361 239.225C217.361 238.058 217.136 237.042 216.686 236.175C216.236 235.292 215.611 234.617 214.811 234.15C214.011 233.683 213.086 233.45 212.036 233.45C210.986 233.45 210.053 233.683 209.236 234.15C208.436 234.617 207.811 235.292 207.361 236.175C206.911 237.042 206.686 238.058 206.686 239.225C206.686 240.392 206.911 241.417 207.361 242.3C207.811 243.183 208.436 243.867 209.236 244.35C210.053 244.817 210.986 245.05 212.036 245.05Z" fill="white"/>
<path d="M195.051 183.709L194.174 173.907C193.569 167.151 188.715 161.606 182.095 160.108L176.589 158.863C176.573 158.859 176.557 158.855 176.541 158.852L164.113 156.041C163.611 153.736 163.533 151.385 163.883 149.042L164.277 146.402C169.082 141.918 171.429 137.924 171.429 134.256C171.429 133.791 171.41 133.336 171.371 132.886C171.354 132.708 171.338 132.519 171.324 132.321C174.253 131.74 176.495 129.156 176.533 126.066C176.554 124.326 175.893 122.687 174.67 121.449C174.505 121.282 174.332 121.125 174.153 120.978C175.577 120.186 176.825 119.071 177.783 117.695C178.254 117.017 178.087 116.086 177.409 115.615C176.731 115.144 175.8 115.311 175.33 115.988C173.863 118.097 171.456 119.356 168.891 119.356C165.583 119.356 162.616 117.264 161.507 114.149C161.342 113.685 160.959 113.333 160.484 113.206C160.009 113.08 159.501 113.195 159.127 113.515C157.573 114.847 155.587 115.58 153.537 115.58C151.653 115.58 149.864 114.983 148.364 113.851C147.99 113.569 147.505 113.478 147.054 113.607C146.603 113.736 146.239 114.069 146.07 114.506C144.913 117.508 141.974 119.525 138.756 119.525C134.436 119.525 130.92 116.01 130.92 111.689C130.92 108.685 132.673 105.907 135.387 104.613C135.811 104.41 136.115 104.02 136.208 103.559C136.301 103.098 136.171 102.62 135.858 102.269C135.211 101.544 134.854 100.608 134.854 99.6344C134.854 97.4511 136.631 95.6747 138.814 95.6747C139.358 95.6747 139.884 95.7827 140.378 95.9952C140.776 96.1664 141.228 96.1568 141.619 95.9686C142.009 95.7801 142.298 95.4317 142.411 95.0135C143.053 92.6436 145.218 90.9883 147.677 90.9883C149.536 90.9883 151.25 91.9218 152.262 93.4855C152.558 93.9431 153.08 94.2039 153.623 94.1642C154.167 94.1252 154.646 93.7931 154.874 93.2976C155.518 91.8947 156.932 90.9883 158.474 90.9883C159.967 90.9883 161.318 91.8142 162 93.1434C162.198 93.5287 162.553 93.8092 162.974 93.9124C163.395 94.0154 163.839 93.9311 164.192 93.6811C165.115 93.0285 166.203 92.6836 167.338 92.6836C170.346 92.6836 172.793 95.1308 172.793 98.1388C172.793 99.5258 172.272 100.848 171.326 101.861C170.991 102.22 170.853 102.72 170.959 103.2C171.064 103.68 171.398 104.078 171.853 104.263C174.386 105.299 176.218 107.617 176.635 110.313C176.761 111.129 177.525 111.689 178.339 111.562C179.155 111.436 179.714 110.673 179.588 109.857C179.109 106.753 177.274 104.013 174.653 102.358C175.388 101.086 175.781 99.6368 175.781 98.1386C175.781 93.4829 171.993 89.6952 167.338 89.6952C166.099 89.6952 164.896 89.9611 163.793 90.4727C162.49 88.9196 160.561 88 158.474 88C156.519 88 154.681 88.8303 153.386 90.2193C151.848 88.8048 149.825 88 147.677 88C144.39 88 141.442 89.9119 140.059 92.7974C139.651 92.7235 139.235 92.6862 138.814 92.6862C134.983 92.6862 131.866 95.8032 131.866 99.6342C131.866 100.736 132.126 101.81 132.616 102.776C129.726 104.776 127.932 108.117 127.932 111.689C127.932 115.655 130.077 119.13 133.267 121.015C133.106 121.149 132.951 121.292 132.802 121.443C131.579 122.681 130.918 124.321 130.939 126.06C130.977 129.151 133.219 131.735 136.149 132.315C136.134 132.524 136.118 132.723 136.099 132.911C136.062 133.334 136.043 133.786 136.043 134.256C136.043 137.906 138.368 141.881 143.125 146.336L143.522 148.99C143.87 151.324 143.795 153.664 143.298 155.958L124.976 160.106C118.357 161.605 113.504 167.15 112.9 173.905L112.023 183.709C111.879 185.319 112.422 186.927 113.514 188.12C114.606 189.315 116.161 190 117.78 190H135.186C136.011 190 136.68 189.331 136.68 188.506C136.68 187.681 136.011 187.012 135.186 187.012H131.989V175.344C131.989 174.519 131.32 173.85 130.495 173.85C129.67 173.85 129.001 174.519 129.001 175.344V178.37L115.691 176.241L115.877 174.171C116.365 168.713 120.287 164.232 125.636 163.021L130.336 161.957L143.405 176.564C143.172 177.441 143.047 178.362 143.047 179.311C143.047 182.333 144.308 185.066 146.33 187.012H142.156C141.331 187.012 140.662 187.681 140.662 188.506C140.662 189.331 141.331 190 142.156 190H189.293C190.912 190 192.468 189.315 193.56 188.121C194.651 186.927 195.195 185.319 195.051 183.709ZM129.001 181.397V187.012H117.78C116.986 187.012 116.254 186.689 115.719 186.104C115.184 185.52 114.929 184.764 115 183.975L115.425 179.224L129.001 181.397ZM153.736 168.623C151.983 168.623 150.327 169.047 148.866 169.798L139.996 159.77L144.134 158.833C144.521 159.159 144.92 159.489 145.325 159.817C147.694 161.744 150.679 162.805 153.727 162.805H153.78C156.83 162.805 159.811 161.746 162.175 159.825C162.549 159.521 162.918 159.217 163.278 158.915L167.104 159.781L158.355 169.673C156.956 169 155.389 168.623 153.736 168.623ZM146.202 156.668C146.736 154.245 146.862 151.778 146.578 149.312C148.616 150.888 151.138 151.752 153.713 151.752H153.758C156.309 151.752 158.804 150.907 160.826 149.365C160.542 151.84 160.67 154.317 161.209 156.749C160.91 156.999 160.603 157.251 160.292 157.503C158.457 158.996 156.145 159.817 153.774 159.817C153.76 159.817 153.747 159.817 153.733 159.817C151.364 159.817 149.048 158.994 147.208 157.496C146.866 157.219 146.529 156.942 146.202 156.668ZM173.545 126.029C173.526 127.518 172.555 128.789 171.22 129.259C171.208 127.252 171.282 124.946 171.432 122.792C171.843 122.966 172.221 123.221 172.544 123.549C173.201 124.214 173.556 125.095 173.545 126.029ZM133.927 126.023C133.916 125.089 134.271 124.208 134.928 123.544C135.251 123.216 135.628 122.961 136.039 122.786C136.19 124.938 136.264 127.243 136.253 129.254C134.916 128.783 133.945 127.513 133.927 126.023ZM139.032 134.256C139.032 133.873 139.047 133.509 139.075 133.188C139.323 130.658 139.292 126.38 139.016 122.51C142.752 122.418 146.186 120.364 148.07 117.202C149.741 118.1 151.602 118.568 153.537 118.568C155.651 118.568 157.713 117.99 159.504 116.914C161.342 120.105 164.723 122.19 168.469 122.336C168.181 126.248 168.146 130.612 168.396 133.159C168.425 133.506 168.44 133.875 168.44 134.256C168.44 137.599 165.255 141.943 159.227 146.821C157.686 148.074 155.745 148.763 153.753 148.763C153.741 148.763 153.729 148.763 153.718 148.763C151.729 148.763 149.784 148.072 148.238 146.814C142.215 141.941 139.032 137.599 139.032 134.256ZM133.67 161.202L136.672 160.522L146.412 171.533C145.771 172.137 145.205 172.818 144.729 173.562L133.67 161.202ZM146.036 179.311C146.036 175.065 149.49 171.611 153.736 171.611C157.982 171.611 161.436 175.065 161.436 179.311C161.436 183.557 157.982 187.012 153.736 187.012C149.49 187.012 146.036 183.557 146.036 179.311ZM164.425 179.311C164.425 178.25 164.27 177.225 163.98 176.257L167.795 172.019C168.347 171.405 168.297 170.46 167.684 169.908C167.07 169.357 166.125 169.406 165.573 170.02L162.592 173.333C162.098 172.603 161.515 171.936 160.86 171.35L170.428 160.533L173.436 161.213L170.015 165.055C169.467 165.671 169.521 166.616 170.138 167.165C170.422 167.418 170.777 167.543 171.131 167.543C171.542 167.543 171.952 167.374 172.247 167.042L176.766 161.966L181.436 163.023C186.786 164.233 190.709 168.714 191.197 174.173L191.382 176.241L178.073 178.37V175.344C178.073 174.519 177.404 173.85 176.579 173.85C175.753 173.85 175.085 174.519 175.085 175.344V187.012H161.142C163.164 185.066 164.425 182.333 164.425 179.311ZM191.355 186.104C190.819 186.689 190.087 187.012 189.293 187.012H178.073V181.397L191.649 179.224L192.074 183.975C192.145 184.764 191.889 185.519 191.355 186.104Z" fill="white"/>
<path d="M153.735 174.553C151.111 174.553 148.977 176.687 148.977 179.311C148.977 181.935 151.111 184.07 153.735 184.07C156.359 184.07 158.494 181.935 158.494 179.311C158.494 176.687 156.359 174.553 153.735 174.553ZM153.735 181.081C152.759 181.081 151.965 180.287 151.965 179.311C151.965 178.335 152.759 177.541 153.735 177.541C154.711 177.541 155.505 178.335 155.505 179.311C155.505 180.287 154.711 181.081 153.735 181.081Z" fill="white"/>
<path d="M149.713 142.137H157.756C158.581 142.137 159.25 141.468 159.25 140.643C159.25 139.818 158.581 139.149 157.756 139.149H149.713C148.888 139.149 148.219 139.818 148.219 140.643C148.219 141.468 148.888 142.137 149.713 142.137Z" fill="white"/>
<path d="M307.716 339.442L305.448 314.101C303.886 296.634 291.337 282.297 274.22 278.426L259.985 275.205C259.944 275.196 259.903 275.186 259.862 275.178L227.732 267.909C226.432 261.951 226.231 255.874 227.136 249.815L228.155 242.989C240.578 231.398 246.645 221.071 246.645 211.589C246.645 210.386 246.596 209.21 246.496 208.047C246.451 207.586 246.41 207.098 246.373 206.585C253.947 205.084 259.743 198.404 259.84 190.414C259.896 185.917 258.186 181.678 255.025 178.478C254.598 178.046 254.151 177.64 253.687 177.261C257.369 175.212 260.596 172.331 263.072 168.771C264.29 167.02 263.857 164.613 262.106 163.394C260.353 162.176 257.947 162.609 256.73 164.36C252.938 169.812 246.715 173.068 240.085 173.068C231.532 173.068 223.86 167.657 220.994 159.604C220.567 158.406 219.578 157.494 218.348 157.166C217.119 156.84 215.807 157.139 214.841 157.966C210.821 161.409 205.689 163.305 200.388 163.305C195.516 163.305 190.892 161.76 187.015 158.835C186.048 158.104 184.794 157.87 183.628 158.204C182.462 158.536 181.521 159.398 181.084 160.529C178.093 168.289 170.493 173.503 162.174 173.503C151.004 173.503 141.916 164.415 141.916 153.245C141.916 145.478 146.448 138.296 153.463 134.95C154.56 134.426 155.346 133.417 155.586 132.225C155.826 131.033 155.491 129.798 154.682 128.891C153.008 127.015 152.086 124.597 152.086 122.079C152.086 116.435 156.679 111.842 162.324 111.842C163.729 111.842 165.09 112.121 166.367 112.671C167.395 113.113 168.566 113.088 169.575 112.602C170.584 112.114 171.331 111.213 171.624 110.132C173.282 104.005 178.881 99.7258 185.238 99.7258C190.045 99.7258 194.475 102.139 197.091 106.182C197.856 107.365 199.207 108.039 200.611 107.937C202.017 107.836 203.256 106.977 203.844 105.696C205.51 102.069 209.165 99.7258 213.153 99.7258C217.012 99.7258 220.505 101.861 222.269 105.298C222.78 106.294 223.698 107.019 224.786 107.286C225.873 107.552 227.022 107.334 227.936 106.688C230.322 105 233.134 104.109 236.068 104.109C243.844 104.109 250.171 110.436 250.171 118.213C250.171 121.798 248.825 125.216 246.379 127.835C245.512 128.763 245.157 130.058 245.429 131.298C245.701 132.539 246.566 133.566 247.741 134.047C254.29 136.723 259.027 142.716 260.104 149.687C260.43 151.796 262.406 153.243 264.511 152.916C266.62 152.59 268.064 150.617 267.739 148.508C266.501 140.484 261.757 133.4 254.981 129.12C256.881 125.832 257.897 122.085 257.897 118.212C257.897 106.175 248.104 96.3826 236.068 96.3826C232.866 96.3826 229.755 97.0702 226.903 98.3928C223.535 94.3775 218.548 92 213.153 92C208.096 92 203.346 94.1467 199.998 97.7377C196.021 94.0808 190.792 92 185.238 92C176.74 92 169.118 96.943 165.544 104.403C164.489 104.212 163.413 104.116 162.324 104.116C152.419 104.116 144.361 112.174 144.361 122.079C144.361 124.927 145.034 127.704 146.299 130.2C138.829 135.373 134.19 144.008 134.19 153.244C134.19 163.499 139.735 172.483 147.984 177.356C147.567 177.703 147.166 178.072 146.779 178.463C143.619 181.663 141.909 185.902 141.964 190.399C142.062 198.39 147.859 205.071 155.435 206.571C155.396 207.111 155.353 207.626 155.305 208.111C155.209 209.204 155.16 210.374 155.16 211.587C155.16 221.026 161.17 231.3 173.47 242.818L174.495 249.68C175.396 255.715 175.201 261.764 173.916 267.695L126.547 278.421C109.435 282.295 96.8889 296.631 95.3267 314.094L93.0589 339.441C92.6866 343.604 94.0911 347.761 96.9131 350.847C99.7376 353.936 103.758 355.706 107.944 355.706H152.943C155.076 355.706 156.806 353.977 156.806 351.844C156.806 349.71 155.076 347.981 152.943 347.981H144.678V317.815C144.678 315.682 142.949 313.952 140.816 313.952C138.682 313.952 136.953 315.682 136.953 317.815V325.64L102.544 320.134L103.023 314.783C104.285 300.672 114.424 289.088 128.253 285.957L140.405 283.205L174.194 320.97C173.59 323.238 173.268 325.618 173.268 328.072C173.268 335.885 176.527 342.95 181.756 347.981H170.965C168.832 347.981 167.102 349.71 167.102 351.844C167.102 353.977 168.832 355.706 170.965 355.706H292.831C297.017 355.706 301.037 353.936 303.861 350.848C306.683 347.762 308.088 343.605 307.716 339.442ZM136.953 333.464V347.981H107.944C105.891 347.981 103.999 347.147 102.615 345.634C101.233 344.123 100.573 342.168 100.755 340.13L101.854 327.847L136.953 333.464ZM200.903 300.438C196.37 300.438 192.09 301.535 188.312 303.477L165.379 277.55L176.077 275.128C177.078 275.972 178.11 276.824 179.157 277.672C185.282 282.655 192.999 285.398 200.88 285.398H201.016C208.901 285.398 216.609 282.661 222.72 277.692C223.688 276.908 224.642 276.122 225.571 275.341L235.464 277.579L212.843 303.154C209.226 301.413 205.176 300.438 200.903 300.438ZM181.424 269.531C182.804 263.268 183.131 256.89 182.397 250.513C187.664 254.587 194.187 256.822 200.842 256.821H200.96C207.554 256.821 214.006 254.636 219.233 250.651C218.498 257.05 218.83 263.454 220.224 269.742C219.45 270.388 218.657 271.04 217.852 271.691C213.108 275.549 207.131 277.672 201 277.672C200.965 277.672 200.93 277.672 200.894 277.672C194.77 277.672 188.783 275.544 184.025 271.672C183.14 270.957 182.271 270.24 181.424 269.531ZM252.115 190.319C252.068 194.169 249.557 197.453 246.104 198.67C246.074 193.48 246.264 187.517 246.654 181.95C247.717 182.401 248.692 183.06 249.529 183.907C251.226 185.626 252.144 187.903 252.115 190.319ZM149.689 190.304C149.66 187.889 150.578 185.612 152.276 183.893C153.113 183.046 154.088 182.386 155.151 181.935C155.54 187.498 155.73 193.457 155.702 198.656C152.247 197.439 149.736 194.155 149.689 190.304ZM162.887 211.588C162.887 210.598 162.925 209.656 162.998 208.826C163.639 202.287 163.56 191.227 162.846 181.22C172.506 180.983 181.384 175.672 186.254 167.497C190.574 169.819 195.385 171.03 200.388 171.03C205.852 171.03 211.186 169.534 215.816 166.752C220.566 175.004 229.307 180.393 238.992 180.771C238.248 190.885 238.156 202.166 238.803 208.752C238.879 209.65 238.919 210.604 238.919 211.588C238.919 220.231 230.684 231.463 215.099 244.073C211.115 247.312 206.096 249.094 200.945 249.094C200.915 249.094 200.885 249.094 200.857 249.094C195.713 249.094 190.685 247.308 186.687 244.055C171.117 231.458 162.887 220.231 162.887 211.588ZM149.026 281.253L156.786 279.496L181.966 307.964C180.311 309.523 178.848 311.285 177.616 313.208L149.026 281.253ZM180.994 328.072C180.994 317.095 189.925 308.164 200.903 308.164C211.88 308.164 220.811 317.095 220.811 328.072C220.811 339.05 211.88 347.981 200.903 347.981C189.925 347.981 180.994 339.05 180.994 328.072ZM228.537 328.072C228.537 325.33 228.135 322.68 227.388 320.177L237.25 309.218C238.677 307.632 238.548 305.19 236.962 303.762C235.376 302.336 232.934 302.464 231.506 304.05L223.799 312.616C222.521 310.728 221.015 309.006 219.321 307.489L244.057 279.523L251.833 281.282L242.99 291.215C241.572 292.808 241.713 295.25 243.306 296.669C244.043 297.324 244.96 297.646 245.874 297.646C246.937 297.646 247.997 297.209 248.76 296.352L260.444 283.229L272.516 285.96C286.348 289.09 296.491 300.674 297.753 314.789L298.231 320.133L263.822 325.639V317.815C263.822 315.681 262.093 313.952 259.959 313.952C257.826 313.952 256.097 315.681 256.097 317.815V347.981H220.049C225.278 342.95 228.537 335.884 228.537 328.072ZM298.161 345.634C296.776 347.147 294.884 347.981 292.831 347.981H263.822V333.464L298.922 327.847L300.021 340.13C300.203 342.168 299.543 344.122 298.161 345.634Z" fill="white" fill-opacity="0.07"/>
<path d="M200.904 309.77C194.121 309.77 188.602 315.289 188.602 322.073C188.602 328.856 194.121 334.375 200.904 334.375C207.687 334.375 213.207 328.856 213.207 322.072C213.207 315.288 207.688 309.77 200.904 309.77ZM200.904 326.649C198.381 326.649 196.327 324.596 196.327 322.072C196.327 319.548 198.38 317.495 200.904 317.495C203.427 317.495 205.481 319.548 205.481 322.072C205.481 324.596 203.428 326.649 200.904 326.649Z" fill="white" fill-opacity="0.07"/>
<path d="M190.505 225.965H211.299C213.432 225.965 215.162 224.235 215.162 222.102C215.162 219.969 213.432 218.239 211.299 218.239H190.505C188.372 218.239 186.643 219.969 186.643 222.102C186.643 224.235 188.372 225.965 190.505 225.965Z" fill="white" fill-opacity="0.07"/>
</svg>
