<svg width="308" height="349" viewBox="0 0 308 349" fill="none" xmlns="http://www.w3.org/2000/svg">
<rect width="308" height="349" fill="#FBC201"/>
<path d="M294.895 322.65V282.256C294.895 270.729 285.617 261.356 274.207 261.356H197.487C186.077 261.356 176.799 270.729 176.799 282.256V322.65C176.799 325.363 178.98 327.626 181.724 327.626H289.98C292.724 327.566 294.905 325.363 294.905 322.65H294.895ZM197.487 271.188H274.148C279.912 271.188 284.6 275.765 284.995 281.468H186.689C187.083 275.765 191.722 271.188 197.477 271.188H197.487ZM285.104 317.685H186.58V291.36H199.668V302.319C199.668 305.031 201.849 307.294 204.593 307.294C207.337 307.294 209.518 305.091 209.518 302.319V291.36H285.114V317.685H285.104Z" fill="white" fill-opacity="0.1"/>
<path d="M281.897 348.706H302.842V340.489C300.463 339.801 297.946 339.432 295.34 339.432H284.325C281.641 339.432 279.4 341.636 279.4 344.408C279.4 346.273 280.407 347.868 281.887 348.716L281.897 348.706Z" fill="white" fill-opacity="0.1"/>
<path d="M147.151 348.706C147.506 348.656 147.862 348.606 148.227 348.576V348.706H271.475C273.015 347.868 274.091 346.253 274.091 344.338C274.091 341.566 271.91 339.363 269.166 339.363H176.288C169.24 339.363 162.864 342.075 157.949 346.422V282.196C157.949 264.118 172.488 249.43 190.382 249.43H281.247C289.538 249.43 297.098 252.591 302.843 257.766V245.541C296.536 241.742 289.163 239.549 281.306 239.549H273.814C271.357 220.573 255.308 205.825 235.844 205.825C216.38 205.825 200.341 220.573 197.874 239.549H190.382C167.118 239.549 148.168 258.704 148.168 282.196V338.685C140.222 339.034 133.136 342.853 128.427 348.696H147.141L147.151 348.706ZM235.844 215.717C249.879 215.717 261.506 226.057 263.856 239.559H207.823C210.172 226.057 221.799 215.717 235.834 215.717H235.844Z" fill="white" fill-opacity="0.1"/>
<path d="M153.813 193.062C155.096 195.435 158.116 196.342 160.465 195.036C162.814 193.74 163.712 190.738 162.419 188.315L139.945 147.024C138.208 143.863 133.066 143.863 131.388 147.024L56.8585 284.011C55.5753 286.384 56.4143 289.436 58.8127 290.732C59.5431 291.131 60.3821 291.35 61.1618 291.35C62.899 291.35 64.5769 290.443 65.4652 288.807L135.701 159.677L153.823 193.062H153.813Z" fill="white" fill-opacity="0.1"/>
<path d="M328.975 226.961L248.572 88.9273C246.348 85.0242 240.055 85.0242 237.768 88.9273L91.8721 339.459C90.7222 341.411 90.7223 343.873 91.7963 345.824C92.9462 347.776 95.0185 349 97.2424 349H115.716C119.153 349 122.022 346.181 122.022 342.635C122.022 339.089 119.229 336.271 115.716 336.271H108.198L195.677 186.043L198.255 188.505C199.468 189.666 201.047 190.24 202.627 190.24C204.206 190.24 205.773 189.666 206.999 188.505L222.895 173.046L238.854 188.505C241.293 190.89 245.084 190.89 247.523 188.505L263.482 173.046L279.441 188.505C281.88 190.814 285.671 190.814 288.11 188.505L290.688 185.979L329 251.769V226.961H328.975ZM283.725 175.278L267.766 159.819C266.186 158.301 264.038 157.868 262.042 158.301C260.968 158.518 259.969 158.952 259.11 159.819L243.151 175.278L227.191 159.819C224.753 157.434 220.962 157.434 218.523 159.819L202.627 175.278L202.273 174.921L243.227 104.616L284.18 174.921L283.75 175.278H283.725Z" fill="white" fill-opacity="0.1"/>
<path d="M75.7002 221.25C75.7002 219.533 76.0835 218 76.8502 216.65C77.6335 215.283 78.6919 214.225 80.0252 213.475C81.3752 212.708 82.8835 212.325 84.5502 212.325C86.5002 212.325 88.2085 212.825 89.6752 213.825C91.1419 214.825 92.1669 216.208 92.7502 217.975H88.7252C88.3252 217.141 87.7585 216.516 87.0252 216.1C86.3085 215.683 85.4752 215.475 84.5252 215.475C83.5085 215.475 82.6002 215.716 81.8002 216.2C81.0169 216.666 80.4002 217.333 79.9502 218.2C79.5169 219.066 79.3002 220.083 79.3002 221.25C79.3002 222.4 79.5169 223.416 79.9502 224.3C80.4002 225.166 81.0169 225.841 81.8002 226.325C82.6002 226.791 83.5085 227.025 84.5252 227.025C85.4752 227.025 86.3085 226.816 87.0252 226.4C87.7585 225.966 88.3252 225.333 88.7252 224.5H92.7502C92.1669 226.283 91.1419 227.675 89.6752 228.675C88.2252 229.658 86.5169 230.15 84.5502 230.15C82.8835 230.15 81.3752 229.775 80.0252 229.025C78.6919 228.258 77.6335 227.2 76.8502 225.85C76.0835 224.5 75.7002 222.966 75.7002 221.25ZM106.44 226.675H99.4896L98.3396 230H94.6646L100.94 212.525H105.015L111.29 230H107.59L106.44 226.675ZM105.49 223.875L102.965 216.575L100.44 223.875H105.49ZM132.66 212.55V230H129.16V218.65L124.485 230H121.835L117.135 218.65V230H113.635V212.55H117.61L123.16 225.525L128.71 212.55H132.66ZM148.846 217.95C148.846 218.883 148.621 219.758 148.171 220.575C147.737 221.391 147.046 222.05 146.096 222.55C145.162 223.05 143.979 223.3 142.546 223.3H139.621V230H136.121V212.55H142.546C143.896 212.55 145.046 212.783 145.996 213.25C146.946 213.716 147.654 214.358 148.121 215.175C148.604 215.991 148.846 216.916 148.846 217.95ZM142.396 220.475C143.362 220.475 144.079 220.258 144.546 219.825C145.012 219.375 145.246 218.75 145.246 217.95C145.246 216.25 144.296 215.4 142.396 215.4H139.621V220.475H142.396ZM154.83 212.55V230H151.33V212.55H154.83ZM164.313 230.175C163.097 230.175 161.997 229.966 161.013 229.55C160.047 229.133 159.28 228.533 158.713 227.75C158.147 226.966 157.855 226.041 157.838 224.975H161.588C161.638 225.691 161.888 226.258 162.338 226.675C162.805 227.091 163.438 227.3 164.238 227.3C165.055 227.3 165.697 227.108 166.163 226.725C166.63 226.325 166.863 225.808 166.863 225.175C166.863 224.658 166.705 224.233 166.388 223.9C166.072 223.566 165.672 223.308 165.188 223.125C164.722 222.925 164.072 222.708 163.238 222.475C162.105 222.141 161.18 221.816 160.463 221.5C159.763 221.166 159.155 220.675 158.638 220.025C158.138 219.358 157.888 218.475 157.888 217.375C157.888 216.341 158.147 215.441 158.663 214.675C159.18 213.908 159.905 213.325 160.838 212.925C161.772 212.508 162.838 212.3 164.038 212.3C165.838 212.3 167.297 212.741 168.413 213.625C169.547 214.491 170.172 215.708 170.288 217.275H166.438C166.405 216.675 166.147 216.183 165.663 215.8C165.197 215.4 164.572 215.2 163.788 215.2C163.105 215.2 162.555 215.375 162.138 215.725C161.738 216.075 161.538 216.583 161.538 217.25C161.538 217.716 161.688 218.108 161.988 218.425C162.305 218.725 162.688 218.975 163.138 219.175C163.605 219.358 164.255 219.575 165.088 219.825C166.222 220.158 167.147 220.491 167.863 220.825C168.58 221.158 169.197 221.658 169.713 222.325C170.23 222.991 170.488 223.866 170.488 224.95C170.488 225.883 170.247 226.75 169.763 227.55C169.28 228.35 168.572 228.991 167.638 229.475C166.705 229.941 165.597 230.175 164.313 230.175ZM192.548 212.55V230H189.048V218.65L184.373 230H181.723L177.023 218.65V230H173.523V212.55H177.498L183.048 225.525L188.598 212.55H192.548ZM204.108 230.175C202.475 230.175 200.975 229.791 199.608 229.025C198.242 228.258 197.158 227.2 196.358 225.85C195.558 224.483 195.158 222.941 195.158 221.225C195.158 219.525 195.558 218 196.358 216.65C197.158 215.283 198.242 214.216 199.608 213.45C200.975 212.683 202.475 212.3 204.108 212.3C205.758 212.3 207.258 212.683 208.608 213.45C209.975 214.216 211.05 215.283 211.833 216.65C212.633 218 213.033 219.525 213.033 221.225C213.033 222.941 212.633 224.483 211.833 225.85C211.05 227.2 209.975 228.258 208.608 229.025C207.242 229.791 205.742 230.175 204.108 230.175ZM204.108 227.05C205.158 227.05 206.083 226.816 206.883 226.35C207.683 225.866 208.308 225.183 208.758 224.3C209.208 223.416 209.433 222.391 209.433 221.225C209.433 220.058 209.208 219.041 208.758 218.175C208.308 217.291 207.683 216.616 206.883 216.15C206.083 215.683 205.158 215.45 204.108 215.45C203.058 215.45 202.125 215.683 201.308 216.15C200.508 216.616 199.883 217.291 199.433 218.175C198.983 219.041 198.758 220.058 198.758 221.225C198.758 222.391 198.983 223.416 199.433 224.3C199.883 225.183 200.508 225.866 201.308 226.35C202.125 226.816 203.058 227.05 204.108 227.05ZM225.094 215.375V219.75H230.969V222.525H225.094V227.15H231.719V230H221.594V212.525H231.719V215.375H225.094ZM78.0337 251.55V269H74.5337V257.65L69.8587 269H67.2087L62.5087 257.65V269H59.0087V251.55H62.9837L68.5337 264.525L74.0837 251.55H78.0337ZM89.594 269.175C87.9607 269.175 86.4607 268.791 85.094 268.025C83.7274 267.258 82.644 266.2 81.844 264.85C81.044 263.483 80.644 261.941 80.644 260.225C80.644 258.525 81.044 257 81.844 255.65C82.644 254.283 83.7274 253.216 85.094 252.45C86.4607 251.683 87.9607 251.3 89.594 251.3C91.244 251.3 92.744 251.683 94.094 252.45C95.4607 253.216 96.5357 254.283 97.319 255.65C98.119 257 98.519 258.525 98.519 260.225C98.519 261.941 98.119 263.483 97.319 264.85C96.5357 266.2 95.4607 267.258 94.094 268.025C92.7274 268.791 91.2274 269.175 89.594 269.175ZM89.594 266.05C90.644 266.05 91.569 265.816 92.369 265.35C93.169 264.866 93.794 264.183 94.244 263.3C94.694 262.416 94.919 261.391 94.919 260.225C94.919 259.058 94.694 258.041 94.244 257.175C93.794 256.291 93.169 255.616 92.369 255.15C91.569 254.683 90.644 254.45 89.594 254.45C88.544 254.45 87.6107 254.683 86.794 255.15C85.994 255.616 85.369 256.291 84.919 257.175C84.469 258.041 84.244 259.058 84.244 260.225C84.244 261.391 84.469 262.416 84.919 263.3C85.369 264.183 85.994 264.866 86.794 265.35C87.6107 265.816 88.544 266.05 89.594 266.05ZM116.048 269H112.548L104.623 257.025V269H101.123V251.525H104.623L112.548 263.525V251.525H116.048V269ZM131.382 251.55V254.375H126.732V269H123.232V254.375H118.582V251.55H131.382ZM144.635 265.675H137.685L136.535 269H132.86L139.135 251.525H143.21L149.485 269H145.785L144.635 265.675ZM143.685 262.875L141.16 255.575L138.635 262.875H143.685ZM166.756 269H163.256L155.331 257.025V269H151.831V251.525H155.331L163.256 263.525V251.525H166.756V269ZM184.69 251.55V269H181.19V261.575H173.715V269H170.215V251.55H173.715V258.725H181.19V251.55H184.69ZM191.635 251.55V269H188.135V251.55H191.635ZM201.118 269.175C199.901 269.175 198.801 268.966 197.818 268.55C196.851 268.133 196.084 267.533 195.518 266.75C194.951 265.966 194.659 265.041 194.643 263.975H198.393C198.443 264.691 198.693 265.258 199.143 265.675C199.609 266.091 200.243 266.3 201.043 266.3C201.859 266.3 202.501 266.108 202.968 265.725C203.434 265.325 203.668 264.808 203.668 264.175C203.668 263.658 203.509 263.233 203.193 262.9C202.876 262.566 202.476 262.308 201.993 262.125C201.526 261.925 200.876 261.708 200.043 261.475C198.909 261.141 197.984 260.816 197.268 260.5C196.568 260.166 195.959 259.675 195.443 259.025C194.943 258.358 194.693 257.475 194.693 256.375C194.693 255.341 194.951 254.441 195.468 253.675C195.984 252.908 196.709 252.325 197.643 251.925C198.576 251.508 199.643 251.3 200.843 251.3C202.643 251.3 204.101 251.741 205.218 252.625C206.351 253.491 206.976 254.708 207.093 256.275H203.243C203.209 255.675 202.951 255.183 202.468 254.8C202.001 254.4 201.376 254.2 200.593 254.2C199.909 254.2 199.359 254.375 198.943 254.725C198.543 255.075 198.343 255.583 198.343 256.25C198.343 256.716 198.493 257.108 198.793 257.425C199.109 257.725 199.493 257.975 199.943 258.175C200.409 258.358 201.059 258.575 201.893 258.825C203.026 259.158 203.951 259.491 204.668 259.825C205.384 260.158 206.001 260.658 206.518 261.325C207.034 261.991 207.293 262.866 207.293 263.95C207.293 264.883 207.051 265.75 206.568 266.55C206.084 267.35 205.376 267.991 204.443 268.475C203.509 268.941 202.401 269.175 201.118 269.175ZM229.352 251.55V269H225.852V257.65L221.177 269H218.527L213.827 257.65V269H210.327V251.55H214.302L219.852 264.525L225.402 251.55H229.352ZM240.912 269.175C239.279 269.175 237.779 268.791 236.412 268.025C235.046 267.258 233.962 266.2 233.162 264.85C232.362 263.483 231.962 261.941 231.962 260.225C231.962 258.525 232.362 257 233.162 255.65C233.962 254.283 235.046 253.216 236.412 252.45C237.779 251.683 239.279 251.3 240.912 251.3C242.562 251.3 244.062 251.683 245.412 252.45C246.779 253.216 247.854 254.283 248.637 255.65C249.437 257 249.837 258.525 249.837 260.225C249.837 261.941 249.437 263.483 248.637 264.85C247.854 266.2 246.779 267.258 245.412 268.025C244.046 268.791 242.546 269.175 240.912 269.175ZM240.912 266.05C241.962 266.05 242.887 265.816 243.687 265.35C244.487 264.866 245.112 264.183 245.562 263.3C246.012 262.416 246.237 261.391 246.237 260.225C246.237 259.058 246.012 258.041 245.562 257.175C245.112 256.291 244.487 255.616 243.687 255.15C242.887 254.683 241.962 254.45 240.912 254.45C239.862 254.45 238.929 254.683 238.112 255.15C237.312 255.616 236.687 256.291 236.237 257.175C235.787 258.041 235.562 259.058 235.562 260.225C235.562 261.391 235.787 262.416 236.237 263.3C236.687 264.183 237.312 264.866 238.112 265.35C238.929 265.816 239.862 266.05 240.912 266.05Z" fill="white"/>
<path d="M155.29 163.246C155.434 163.246 155.595 163.23 155.739 163.182L171.214 158.044C171.79 157.852 172.174 157.324 172.174 156.716V149.963C172.174 149.194 171.55 148.554 170.766 148.554H139.815C139.047 148.554 138.406 149.178 138.406 149.963V156.716C138.406 157.324 138.791 157.852 139.367 158.044L154.842 163.182C154.986 163.214 155.146 163.246 155.29 163.246ZM141.223 151.355H169.374V155.692L155.29 160.365L141.223 155.692V151.355Z" fill="white"/>
<path d="M157.339 155.9C157.339 154.764 156.427 153.852 155.291 153.852C154.155 153.852 153.242 154.764 153.242 155.9C153.242 157.036 154.155 157.949 155.291 157.949C156.427 157.949 157.339 157.036 157.339 155.9Z" fill="white"/>
<path d="M172.191 137.112V126.853V125.669C172.191 122.404 169.534 119.748 166.269 119.748H144.312C141.047 119.748 138.391 122.404 138.391 125.669V126.853V137.112C138.391 137.88 139.015 138.52 139.799 138.52H170.782C171.567 138.504 172.191 137.88 172.191 137.112ZM144.312 122.532H166.253C167.902 122.532 169.246 123.829 169.358 125.445H141.224C141.336 123.829 142.664 122.532 144.312 122.532ZM169.39 135.703H141.192V128.246H144.936V131.35C144.936 132.119 145.561 132.759 146.345 132.759C147.129 132.759 147.753 132.135 147.753 131.35V128.246H169.39V135.703Z" fill="white"/>
<path d="M180.386 141.657V125.653C180.386 118.995 174.96 113.57 168.303 113.57H166.158C165.454 108.193 160.861 104.016 155.292 104.016C149.723 104.016 145.129 108.193 144.425 113.57H142.281C135.623 113.57 130.198 118.995 130.198 125.653V141.657C126.117 141.833 122.836 145.177 122.836 149.306V158.733C122.836 162.782 126.741 165.886 130.598 166.35C131.638 169.599 134.647 171.984 138.232 171.984H142.057C142.825 171.984 143.465 171.36 143.465 170.575C143.465 169.791 142.841 169.167 142.057 169.167H138.232C135.335 169.167 132.983 166.814 132.983 163.918V149.914C132.983 147.018 135.335 144.665 138.232 144.665H164.83C165.598 144.665 166.238 144.041 166.238 143.257C166.238 142.473 165.614 141.849 164.83 141.849H138.248C136.231 141.849 134.407 142.617 132.999 143.849V125.653C132.999 120.532 137.16 116.371 142.281 116.371H168.287C173.408 116.371 177.569 120.532 177.569 125.653V143.865C176.161 142.633 174.336 141.865 172.32 141.865H169.167C168.399 141.865 167.759 142.489 167.759 143.273C167.759 144.057 168.383 144.681 169.167 144.681H172.32C175.216 144.681 177.569 147.034 177.569 149.93V163.934C177.569 166.83 175.216 169.183 172.32 169.183H146.346C145.578 169.183 144.937 169.807 144.937 170.591C144.937 171.376 145.562 172 146.346 172H172.32C175.889 172 178.881 169.647 179.938 166.43H180.05C184.291 166.43 187.731 162.99 187.731 158.749V149.322C187.731 145.177 184.467 141.833 180.386 141.657ZM125.653 158.733V149.306C125.653 146.73 127.669 144.633 130.214 144.457V149.93V163.438C127.893 162.862 125.653 160.989 125.653 158.733ZM155.292 106.816C159.309 106.816 162.638 109.745 163.31 113.57H147.274C147.946 109.745 151.275 106.816 155.292 106.816ZM184.931 158.733C184.931 161.309 182.914 163.406 180.37 163.582V149.93V144.457C182.914 144.633 184.931 146.73 184.931 149.306V158.733Z" fill="white"/>
<path d="M206.52 126.165L185.187 87.3397C184.691 86.4435 183.218 86.4435 182.738 87.3397L176.305 99.0385C175.937 99.7106 176.177 100.575 176.865 100.943C177.537 101.311 178.401 101.071 178.769 100.383L183.971 90.9085L204.071 127.493C204.327 127.957 204.808 128.213 205.304 128.213C205.528 128.213 205.768 128.165 205.976 128.037C206.648 127.685 206.888 126.837 206.52 126.165Z" fill="white"/>
<path d="M131.813 100.399C132.181 101.071 133.046 101.327 133.718 100.959C134.39 100.591 134.646 99.7427 134.278 99.0546L127.844 87.3558C127.348 86.4596 125.876 86.4596 125.396 87.3558L104.063 126.165C103.695 126.837 103.935 127.701 104.623 128.069C104.831 128.181 105.071 128.245 105.295 128.245C105.791 128.245 106.271 127.989 106.527 127.525L126.628 90.9407L131.813 100.399Z" fill="white"/>
<path d="M156.492 70.648C155.996 69.7838 154.588 69.7838 154.076 70.648L121.46 126.133C121.204 126.565 121.204 127.109 121.444 127.541C121.7 127.973 122.164 128.246 122.66 128.246H126.789C127.557 128.246 128.198 127.621 128.198 126.837C128.198 126.053 127.573 125.429 126.789 125.429H125.109L144.665 92.157L145.242 92.7012C145.514 92.9572 145.866 93.0852 146.218 93.0852C146.57 93.0852 146.922 92.9572 147.194 92.7012L150.747 89.2764L154.316 92.7012C154.86 93.2293 155.708 93.2293 156.252 92.7012L159.821 89.2764L163.39 92.7012C163.934 93.2133 164.782 93.2133 165.326 92.7012L165.902 92.141L185.459 125.413H183.779C183.01 125.413 182.37 126.037 182.37 126.821C182.37 127.605 182.994 128.23 183.779 128.23H187.908C188.404 128.23 188.868 127.957 189.124 127.525C189.38 127.093 189.364 126.549 189.108 126.117L156.492 70.648ZM160.781 86.3477C160.429 86.0116 159.949 85.9156 159.501 86.0116C159.261 86.0596 159.037 86.1556 158.845 86.3477L155.276 89.7725L151.707 86.3477C151.163 85.8195 150.315 85.8195 149.771 86.3477L146.218 89.7725L146.138 89.6924L155.292 74.1208L164.446 89.6924L164.35 89.7725L160.781 86.3477Z" fill="white"/>
</svg>
