<svg width="307" height="350" viewBox="0 0 307 350" fill="none" xmlns="http://www.w3.org/2000/svg">
<rect width="306" height="350" fill="#00BD2A" fill-opacity="0.9"/>
<path fill-rule="evenodd" clip-rule="evenodd" d="M104.818 350.003C99.9982 344.623 95.6207 338.978 91.7074 333.112L125.158 341.773L127.291 350.003H138.898L136.046 338.978L175.577 299.32L229.721 313.879L239.405 350.003H251.045L240.587 310.974L280.162 271.426L297.727 276.121L306.007 278.341V266.709L283.08 260.567L268.599 206.536L306.018 169.142V132.975L303.52 123.496C304.36 124.071 305.189 124.656 306.018 125.242V111.698C288.431 100.43 269.163 92.8411 249.309 88.9967L249.088 88.9525C240.267 87.2513 231.346 86.2902 222.403 86.0582H222.138L222.005 86.0472C191.13 85.3071 160.09 93.2719 132.885 109.942C122.45 116.272 112.611 123.993 103.536 132.93L103.48 132.986C103.248 133.218 103.005 133.461 102.773 133.693C102.53 133.925 102.286 134.179 102.054 134.422L102.021 134.444C93.0671 143.502 85.3622 153.279 79.0392 163.718C62.2697 190.971 54.2774 222.079 55.0512 253.022V253.099C55.1065 255.784 55.2502 258.457 55.4602 261.13C55.9356 267.449 56.7757 273.724 57.9806 279.965V279.987C59.1082 286.163 60.6668 292.161 62.5461 298.027C63.8837 302.28 65.387 306.467 67.0784 310.599L67.1557 310.775L67.3105 311.173L67.3879 311.35C73.0256 324.982 80.6199 338.006 90.1267 350.003H104.818ZM272.114 263.395L232.54 302.943L178.473 288.472L163.992 234.441L203.566 194.893L257.633 209.364L272.114 263.395ZM224.194 97.3814C231.81 97.7238 239.416 98.5965 247.043 100.022C256.075 101.822 264.487 104.23 272.335 107.224L272.667 107.357L273.452 107.655C273.739 107.766 274.027 107.876 274.314 107.997L274.988 108.263L289.702 115.288L300.955 157.996L260.485 198.439L206.474 184.023L191.926 129.749L224.205 97.3703L224.194 97.3814ZM208.132 97.5581L183.812 121.972L150.704 112.913C168.834 103.965 188.378 98.8396 208.132 97.5581ZM109.98 142.353L110.677 141.646L111.395 140.939L112.081 140.266C119.752 132.776 128.043 126.28 136.743 120.757L138.644 121.276C145.398 123.121 152.164 124.977 158.929 126.821L181.004 132.864L195.596 186.939L156.055 226.454L101.922 211.96L89.8061 167.651C95.4991 158.692 102.209 150.208 109.969 142.365L109.98 142.353ZM95.9081 221.98C95.9081 221.98 96.0186 222.013 96.0629 222.024L95.897 221.98H95.9081C94.2278 221.538 92.7908 220.345 92.1054 218.688C91.9285 218.246 91.8069 217.804 91.7406 217.351L91.9175 218.036L94.1173 219.715C95.4438 221.041 96.9472 221.936 97.2788 222.135V222.168L95.886 221.98H95.9081ZM81.9686 181.57L91.0552 214.833L66.5477 239.213C67.819 219.384 72.9593 199.764 81.9686 181.57ZM77.3257 305.959C75.9108 302.358 74.5732 298.723 73.3793 295.022C71.5996 289.411 70.1515 283.721 69.035 277.966C67.9406 271.945 67.0894 265.892 66.6251 259.816C66.5256 258.291 66.4372 256.767 66.3709 255.242L98.9812 222.797L153.07 237.324L167.596 291.366L127.944 330.881L83.5825 319.392C81.648 315.636 79.7909 311.836 78.1438 307.936C77.8785 307.284 77.591 306.622 77.3257 305.948V305.959Z" fill="white" fill-opacity="0.03"/>
<path fill-rule="evenodd" clip-rule="evenodd" d="M126.353 97.4939C134.863 92.2768 144.576 89.7826 154.232 90.0148H154.275L154.359 90.0183C157.156 90.0922 159.949 90.3948 162.707 90.926L162.778 90.94C172.413 92.808 181.613 97.4728 189.071 104.931C195.515 111.375 199.874 119.118 202.143 127.319C202.52 128.638 202.836 129.957 203.072 131.276L203.076 131.29C203.491 133.443 203.765 135.621 203.902 137.802L203.909 137.939L203.913 137.981C203.944 138.541 203.969 139.096 203.983 139.652V139.691C204.296 151.919 200.24 164.239 191.818 174.096L191.741 174.191L191.702 174.233C191.013 175.035 190.291 175.823 189.539 176.594L189.528 176.604C189.458 176.678 189.384 176.752 189.313 176.826L189.208 176.931L189.071 177.069L188.933 177.206L188.828 177.311C188.754 177.382 188.68 177.455 188.606 177.526L188.596 177.536C185.996 180.073 183.224 182.25 180.283 184.111L180.135 184.203L180.082 184.238C171.46 189.645 161.567 192.227 151.728 191.984C151.707 191.984 151.689 191.984 151.668 191.981H151.64C148.839 191.907 146.046 191.604 143.285 191.07L143.235 191.063C140.572 190.546 137.944 189.817 135.376 188.875C134.859 188.688 134.346 188.491 133.835 188.28L133.786 188.259C132.741 187.847 131.711 187.383 130.69 186.883C125.72 184.467 121.058 181.195 116.932 177.069C112.045 172.182 108.359 166.55 105.875 160.541L105.85 160.485L105.801 160.362L105.776 160.306C105.249 159.011 104.777 157.699 104.359 156.369C103.771 154.533 103.282 152.654 102.93 150.723V150.716C102.554 148.764 102.29 146.797 102.142 144.82C102.079 143.983 102.033 143.146 102.016 142.305V142.28C101.776 132.595 104.274 122.858 109.505 114.33C111.486 111.062 113.896 108.002 116.696 105.166L116.707 105.159C116.78 105.082 116.854 105.005 116.932 104.931C117.006 104.857 117.079 104.783 117.153 104.709L117.171 104.691C120.01 101.891 123.088 99.4744 126.353 97.4939ZM136.72 185.62C135.13 185.04 133.565 184.375 132.027 183.619C131.665 183.439 131.306 183.253 130.944 183.067L127.352 169.188L139.717 156.774L156.656 161.333L161.187 178.251L151.042 188.431C148.635 188.308 146.275 188.041 143.957 187.619C141.512 187.073 139.091 186.468 136.72 185.62ZM174.095 183.559C168.403 186.377 162.26 187.988 156.055 188.386L163.675 180.738L174.095 183.559ZM177.929 149.513L189.359 152.577L193.169 166.346C191.857 168.411 190.436 170.328 188.853 172.15L188.656 172.372L188.458 172.597L188.254 172.822L188.082 173.016L188.05 173.048L187.875 173.241L187.839 173.28L187.667 173.463L187.621 173.512L187.456 173.684L187.396 173.748L187.245 173.906L187.16 173.994L187.03 174.131L186.809 174.353L186.583 174.581L186.358 174.807L186.133 175.025L185.915 175.236L185.7 175.44C183.438 177.593 181.015 179.475 178.468 181.096C178.327 181.061 164.586 177.339 164.586 177.339L160.055 160.422L172.434 148.042L177.929 149.513ZM113.484 167.352L123.947 170.064L126.652 180.52C124.098 178.813 121.674 176.836 119.419 174.581C117.167 172.33 115.19 169.906 113.484 167.352ZM105.558 142.977L115.76 132.82L132.682 137.369L137.227 154.287L124.822 166.656L110.944 163.06C110.339 161.885 109.759 160.696 109.242 159.476C109.157 159.272 109.069 159.064 108.985 158.853C108.541 157.727 108.123 156.587 107.75 155.43C107.194 153.675 106.74 151.891 106.392 150.09C106.051 148.204 105.783 146.312 105.639 144.408C105.607 143.93 105.579 143.455 105.558 142.977ZM200.388 144.021C199.997 150.199 198.407 156.313 195.614 161.987L192.754 151.655L200.388 144.021ZM148.474 124.082L165.388 128.613L169.919 145.527L157.539 157.907L140.625 153.376L136.094 136.462L148.474 124.082ZM196.997 123.094L197.007 123.122C197.651 124.793 198.235 126.46 198.717 128.131C199.069 129.38 199.368 130.639 199.61 131.909L199.614 131.913C200.022 134.108 200.303 136.314 200.419 138.537L200.43 138.745L200.441 138.991L198.85 140.584C197.683 141.752 196.518 142.917 195.35 144.085L190.26 149.175L173.345 144.644L168.814 127.73L181.482 115.062L194.798 118.443C195.618 119.998 196.353 121.546 196.997 123.094ZM110.438 119.913L113.28 130.326L105.615 137.957C106.012 131.751 107.62 125.609 110.438 119.913ZM127.574 100.878L128.168 101.04C130.282 101.617 132.397 102.197 134.514 102.774L141.42 104.667L145.986 121.595L133.617 133.964L116.682 129.426L112.893 115.555C114.673 112.751 116.773 110.095 119.201 107.639L119.419 107.418L119.644 107.196L119.859 106.985C122.258 104.642 124.851 102.609 127.574 100.878ZM113.498 131.114C113.516 131.255 113.555 131.396 113.611 131.533C113.832 132.068 114.3 132.451 114.849 132.578L114.796 132.564V132.56L115.236 132.62L115.233 132.609C115.131 132.55 114.659 132.268 114.244 131.853L113.555 131.329L113.498 131.114ZM115.229 132.606L115.233 132.609L115.243 132.616L115.229 132.606ZM144.833 103.696L154.929 93.5609C157.311 93.6664 159.692 93.9408 162.077 94.3876C164.902 94.9504 167.534 95.7068 169.989 96.6425L170.091 96.6847L170.338 96.7797C170.429 96.8149 170.517 96.8501 170.608 96.8853L170.82 96.9697L175.421 99.1684L178.942 112.536L166.281 125.197L149.385 120.684L144.833 103.696ZM179.738 101.74C182.147 103.383 184.441 105.279 186.583 107.418C188.687 109.525 190.555 111.78 192.184 114.151L182.348 111.653L179.738 101.74ZM149.905 93.6171L142.296 101.258L131.939 98.4226C137.61 95.6223 143.724 94.0182 149.905 93.6171Z" fill="white"/>
<path d="M112.5 232.55V235.375H105.225V239.85H110.8V242.625H105.225V250H101.725V232.55H112.5ZM118.432 232.55V243.35C118.432 244.533 118.74 245.442 119.357 246.075C119.974 246.692 120.84 247 121.957 247C123.09 247 123.965 246.692 124.582 246.075C125.199 245.442 125.507 244.533 125.507 243.35V232.55H129.032V243.325C129.032 244.808 128.707 246.067 128.057 247.1C127.424 248.117 126.565 248.883 125.482 249.4C124.415 249.917 123.224 250.175 121.907 250.175C120.607 250.175 119.424 249.917 118.357 249.4C117.307 248.883 116.474 248.117 115.857 247.1C115.24 246.067 114.932 244.808 114.932 243.325V232.55H118.432ZM144.288 232.55V235.375H139.638V250H136.138V235.375H131.488V232.55H144.288ZM150.342 235.375V239.75H156.217V242.525H150.342V247.15H156.967V250H146.842V232.525H156.967V235.375H150.342ZM170.048 241.05C171.031 241.233 171.84 241.725 172.473 242.525C173.106 243.325 173.423 244.242 173.423 245.275C173.423 246.208 173.19 247.033 172.723 247.75C172.273 248.45 171.615 249 170.748 249.4C169.881 249.8 168.856 250 167.673 250H160.148V232.55H167.348C168.531 232.55 169.548 232.742 170.398 233.125C171.265 233.508 171.915 234.042 172.348 234.725C172.798 235.408 173.023 236.183 173.023 237.05C173.023 238.067 172.748 238.917 172.198 239.6C171.665 240.283 170.948 240.767 170.048 241.05ZM163.648 239.75H166.848C167.681 239.75 168.323 239.567 168.773 239.2C169.223 238.817 169.448 238.275 169.448 237.575C169.448 236.875 169.223 236.333 168.773 235.95C168.323 235.567 167.681 235.375 166.848 235.375H163.648V239.75ZM167.173 247.15C168.023 247.15 168.681 246.95 169.148 246.55C169.631 246.15 169.873 245.583 169.873 244.85C169.873 244.1 169.623 243.517 169.123 243.1C168.623 242.667 167.948 242.45 167.098 242.45H163.648V247.15H167.173ZM184.312 250.175C182.679 250.175 181.179 249.792 179.812 249.025C178.446 248.258 177.362 247.2 176.562 245.85C175.762 244.483 175.362 242.942 175.362 241.225C175.362 239.525 175.762 238 176.562 236.65C177.362 235.283 178.446 234.217 179.812 233.45C181.179 232.683 182.679 232.3 184.312 232.3C185.962 232.3 187.462 232.683 188.812 233.45C190.179 234.217 191.254 235.283 192.037 236.65C192.837 238 193.237 239.525 193.237 241.225C193.237 242.942 192.837 244.483 192.037 245.85C191.254 247.2 190.179 248.258 188.812 249.025C187.446 249.792 185.946 250.175 184.312 250.175ZM184.312 247.05C185.362 247.05 186.287 246.817 187.087 246.35C187.887 245.867 188.512 245.183 188.962 244.3C189.412 243.417 189.637 242.392 189.637 241.225C189.637 240.058 189.412 239.042 188.962 238.175C188.512 237.292 187.887 236.617 187.087 236.15C186.287 235.683 185.362 235.45 184.312 235.45C183.262 235.45 182.329 235.683 181.512 236.15C180.712 236.617 180.087 237.292 179.637 238.175C179.187 239.042 178.962 240.058 178.962 241.225C178.962 242.392 179.187 243.417 179.637 244.3C180.087 245.183 180.712 245.867 181.512 246.35C182.329 246.817 183.262 247.05 184.312 247.05ZM199.341 247.225H205.091V250H195.841V232.55H199.341V247.225Z" fill="white"/>
</svg>
