<svg width="309" height="350" viewBox="0 0 309 350" fill="none" xmlns="http://www.w3.org/2000/svg">
<rect width="308" height="350" fill="#7EC424"/>
<path d="M81.7503 130H71.5703V142.57H81.7503C117.52 142.33 146.72 171.11 147 206.87V229.5C146.52 265.12 117.38 293.67 81.7503 293.43H71.5703V306H81.7503C124.36 306.35 159.19 272.11 159.57 229.5V206.87C159.36 164.21 124.61 129.79 81.9403 129.99C81.8803 129.99 81.8103 129.99 81.7503 129.99V130Z" fill="white" fill-opacity="0.08"/>
<path d="M308.42 337.43H71.57V98.57H308.42V86H59V350H308.42V337.43Z" fill="white" fill-opacity="0.08"/>
<path d="M247.57 255.15V337.43H260.14V255.15C255.98 255.9 251.73 255.9 247.57 255.15Z" fill="white" fill-opacity="0.08"/>
<path d="M260.14 180.85V98.5701H247.57V180.85C251.73 180.1 255.98 180.1 260.14 180.85Z" fill="white" fill-opacity="0.08"/>
<path d="M260.14 180.85C255.98 180.1 251.73 180.1 247.57 180.85C227.05 184.44 213.34 203.99 216.93 224.51C219.67 240.16 231.92 252.41 247.57 255.15C251.73 255.9 255.98 255.9 260.14 255.15C280.66 251.56 294.37 232.01 290.78 211.49C288.04 195.84 275.79 183.59 260.14 180.85ZM260.14 242.26C256.03 243.43 251.68 243.43 247.57 242.26C234.17 238.62 226.26 224.8 229.9 211.4C232.24 202.79 238.96 196.07 247.57 193.73C251.68 192.56 256.03 192.56 260.14 193.73C273.54 197.37 281.45 211.19 277.81 224.59C275.47 233.2 268.75 239.92 260.14 242.26Z" fill="white" fill-opacity="0.08"/>
<path d="M121.5 232.55V235.375H114.225V239.85H119.8V242.625H114.225V250H110.725V232.55H121.5ZM127.432 232.55V243.35C127.432 244.533 127.74 245.442 128.357 246.075C128.974 246.692 129.84 247 130.957 247C132.09 247 132.965 246.692 133.582 246.075C134.199 245.442 134.507 244.533 134.507 243.35V232.55H138.032V243.325C138.032 244.808 137.707 246.067 137.057 247.1C136.424 248.117 135.565 248.883 134.482 249.4C133.415 249.917 132.224 250.175 130.907 250.175C129.607 250.175 128.424 249.917 127.357 249.4C126.307 248.883 125.474 248.117 124.857 247.1C124.24 246.067 123.932 244.808 123.932 243.325V232.55H127.432ZM153.288 232.55V235.375H148.638V250H145.138V235.375H140.488V232.55H153.288ZM161.867 250.175C160.651 250.175 159.551 249.967 158.567 249.55C157.601 249.133 156.834 248.533 156.267 247.75C155.701 246.967 155.409 246.042 155.392 244.975H159.142C159.192 245.692 159.442 246.258 159.892 246.675C160.359 247.092 160.992 247.3 161.792 247.3C162.609 247.3 163.251 247.108 163.717 246.725C164.184 246.325 164.417 245.808 164.417 245.175C164.417 244.658 164.259 244.233 163.942 243.9C163.626 243.567 163.226 243.308 162.742 243.125C162.276 242.925 161.626 242.708 160.792 242.475C159.659 242.142 158.734 241.817 158.017 241.5C157.317 241.167 156.709 240.675 156.192 240.025C155.692 239.358 155.442 238.475 155.442 237.375C155.442 236.342 155.701 235.442 156.217 234.675C156.734 233.908 157.459 233.325 158.392 232.925C159.326 232.508 160.392 232.3 161.592 232.3C163.392 232.3 164.851 232.742 165.967 233.625C167.101 234.492 167.726 235.708 167.842 237.275H163.992C163.959 236.675 163.701 236.183 163.217 235.8C162.751 235.4 162.126 235.2 161.342 235.2C160.659 235.2 160.109 235.375 159.692 235.725C159.292 236.075 159.092 236.583 159.092 237.25C159.092 237.717 159.242 238.108 159.542 238.425C159.859 238.725 160.242 238.975 160.692 239.175C161.159 239.358 161.809 239.575 162.642 239.825C163.776 240.158 164.701 240.492 165.417 240.825C166.134 241.158 166.751 241.658 167.267 242.325C167.784 242.992 168.042 243.867 168.042 244.95C168.042 245.883 167.801 246.75 167.317 247.55C166.834 248.35 166.126 248.992 165.192 249.475C164.259 249.942 163.151 250.175 161.867 250.175ZM181.777 246.675H174.827L173.677 250H170.002L176.277 232.525H180.352L186.627 250H182.927L181.777 246.675ZM180.827 243.875L178.302 236.575L175.777 243.875H180.827ZM192.472 247.225H198.222V250H188.972V232.55H192.472V247.225Z" fill="white"/>
<path d="M87.7917 107H83.8574V111.857H87.7917C94.4282 111.812 100.811 114.403 105.538 119.062C110.265 123.72 112.949 130.065 113 136.701V145.444C112.911 152.055 110.21 158.363 105.487 162.99C100.764 167.617 94.4032 170.188 87.7917 170.143H83.8574V175H87.7917C95.6971 175.065 103.305 171.988 108.943 166.446C114.58 160.904 117.787 153.35 117.857 145.444V136.701C117.838 132.776 117.045 128.892 115.523 125.274C114.001 121.655 111.78 118.372 108.987 115.613C106.194 112.854 102.884 110.673 99.2472 109.195C95.6102 107.717 91.7174 106.971 87.7917 107Z" fill="white"/>
<path d="M79 90V192H229.571V90H79ZM224.714 187.143H83.8571V94.8571H224.714V187.143Z" fill="white"/>
<path d="M151.855 155.353V187.143H156.713V155.353C155.107 155.644 153.461 155.644 151.855 155.353Z" fill="white"/>
<path d="M156.713 126.647V94.8572H151.855V126.647C153.461 126.356 155.107 126.356 156.713 126.647Z" fill="white"/>
<path d="M156.715 126.647C155.109 126.356 153.464 126.356 151.858 126.647C148.481 127.239 145.42 129.002 143.215 131.628C141.01 134.253 139.801 137.571 139.801 141C139.801 144.429 141.01 147.747 143.215 150.373C145.42 152.998 148.481 154.761 151.858 155.353C153.464 155.644 155.109 155.644 156.715 155.353C160.092 154.761 163.152 152.998 165.358 150.373C167.563 147.747 168.772 144.429 168.772 141C168.772 137.571 167.563 134.253 165.358 131.628C163.152 129.002 160.092 127.239 156.715 126.647ZM156.715 150.374C155.128 150.828 153.445 150.828 151.858 150.374C149.8 149.815 147.983 148.594 146.688 146.9C145.393 145.206 144.691 143.133 144.691 141C144.691 138.868 145.393 136.794 146.688 135.1C147.983 133.406 149.8 132.185 151.858 131.626C153.445 131.172 155.128 131.172 156.715 131.626C158.773 132.185 160.59 133.406 161.885 135.1C163.18 136.794 163.882 138.868 163.882 141C163.882 143.133 163.18 145.206 161.885 146.9C160.59 148.594 158.773 149.815 156.715 150.374Z" fill="white"/>
<path d="M220.781 107H224.715V111.857H220.781C214.144 111.812 207.761 114.403 203.034 119.062C198.307 123.72 195.623 130.065 195.572 136.702V145.444C195.662 152.055 198.362 158.363 203.085 162.99C207.808 167.617 214.169 170.188 220.781 170.143H224.715V175H220.781C212.875 175.065 205.267 171.988 199.63 166.446C193.992 160.904 190.785 153.35 190.715 145.444V136.702C190.734 132.776 191.527 128.892 193.049 125.274C194.572 121.655 196.793 118.372 199.586 115.613C202.378 112.854 205.688 110.673 209.325 109.195C212.962 107.717 216.855 106.971 220.781 107Z" fill="white"/>
</svg>
