<svg width="308" height="350" viewBox="0 0 308 350" fill="none" xmlns="http://www.w3.org/2000/svg">
<rect width="308" height="350" fill="#00963F"/>
<path d="M303.63 230.628C300.78 239.458 296.75 247.928 291.56 255.788C278.18 276.028 258.08 290.908 234.8 297.778C211.52 304.658 186.56 303.088 164.32 293.368H164.11C155.31 289.428 145.38 288.788 136.14 291.578L113.03 268.368C115.77 259.018 115.1 248.998 111.13 240.098C102.86 221.089 100.51 200.028 104.38 179.658L212.03 287.458C213 288.449 214.33 289.018 215.72 289.038C217.15 289.038 218.51 288.468 219.52 287.458C220.49 286.468 221.03 285.148 221.03 283.768C221.03 282.388 220.49 281.058 219.52 280.078L107.33 167.858C112.55 151.218 121.92 136.178 134.57 124.158C147.22 112.138 162.71 103.528 179.61 99.1485C196.5 94.7685 214.23 94.7585 231.13 99.1285C248.03 103.488 263.53 112.078 276.19 124.088C288.95 136.088 298.33 151.058 303.63 167.518V141.838C298.12 132.428 291.27 123.848 283.26 116.388C261.6 96.3685 233.04 85.4885 203.54 86.0185C174.04 86.5485 145.89 98.4485 124.96 119.238C108.88 135.288 98.03 155.818 93.81 178.138C89.59 200.458 92.21 223.528 101.32 244.338C103.79 249.758 104.57 255.798 103.55 261.668C102.53 267.538 99.77 272.968 95.62 277.248L56.57 316.258C56.08 316.748 55.68 317.328 55.41 317.978C55.14 318.618 55 319.308 55 320.008C55 320.708 55.14 321.398 55.41 322.038C55.68 322.678 56.07 323.268 56.57 323.758L80.74 347.909C81.21 348.419 81.78 348.819 82.42 349.089C83.06 349.358 83.74 349.499 84.43 349.488C85.14 349.499 85.84 349.358 86.49 349.089C87.14 348.819 87.73 348.409 88.23 347.898L127.38 308.768C131.58 304.628 136.94 301.868 142.74 300.858C148.55 299.838 154.53 300.618 159.88 303.078C177.28 310.738 196.33 313.898 215.27 312.278C234.21 310.658 252.44 304.308 268.29 293.798C282.8 284.178 294.88 271.358 303.62 256.348V230.628H303.63ZM119.89 301.388L84.43 336.718L67.76 320.048L103.11 284.608C104.96 282.738 106.63 280.688 108.07 278.488L126.01 296.418C123.81 297.858 121.76 299.518 119.89 301.378V301.388Z" fill="white" fill-opacity="0.08"/>
<path d="M283.3 349.889H297.28C294.91 347.259 292.97 344.239 291.6 340.929C289.22 335.199 288.6 328.889 289.81 322.799C291.02 316.709 294.01 311.119 298.4 306.739C299.99 305.149 301.75 303.749 303.62 302.539V289.649C301.25 290.669 298.98 291.909 296.81 293.349C289.77 298.049 284.28 304.729 281.04 312.549C277.8 320.369 276.95 328.969 278.6 337.269C279.49 341.719 281.08 345.979 283.28 349.889H283.3Z" fill="white" fill-opacity="0.08"/>
<path d="M75.6 232.55V235.375H70.95V250H67.45V235.375H62.8V232.55H75.6ZM81.6537 235.375V239.75H87.5287V242.525H81.6537V247.15H88.2787V250H78.1537V232.525H88.2787V235.375H81.6537ZM85.8287 228.925L80.0787 231.55V229.05L85.8287 226.075V228.925ZM106.384 250H102.884L94.9594 238.025V250H91.4594V232.525H94.9594L102.884 244.525V232.525H106.384V250ZM113.343 232.55V250H109.843V232.55H113.343ZM122.826 250.175C121.61 250.175 120.51 249.967 119.526 249.55C118.56 249.133 117.793 248.533 117.226 247.75C116.66 246.967 116.368 246.042 116.351 244.975H120.101C120.151 245.692 120.401 246.258 120.851 246.675C121.318 247.092 121.951 247.3 122.751 247.3C123.568 247.3 124.21 247.108 124.676 246.725C125.143 246.325 125.376 245.808 125.376 245.175C125.376 244.658 125.218 244.233 124.901 243.9C124.585 243.567 124.185 243.308 123.701 243.125C123.235 242.925 122.585 242.708 121.751 242.475C120.618 242.142 119.693 241.817 118.976 241.5C118.276 241.167 117.668 240.675 117.151 240.025C116.651 239.358 116.401 238.475 116.401 237.375C116.401 236.342 116.66 235.442 117.176 234.675C117.693 233.908 118.418 233.325 119.351 232.925C120.285 232.508 121.351 232.3 122.551 232.3C124.351 232.3 125.81 232.742 126.926 233.625C128.06 234.492 128.685 235.708 128.801 237.275H124.951C124.918 236.675 124.66 236.183 124.176 235.8C123.71 235.4 123.085 235.2 122.301 235.2C121.618 235.2 121.068 235.375 120.651 235.725C120.251 236.075 120.051 236.583 120.051 237.25C120.051 237.717 120.201 238.108 120.501 238.425C120.818 238.725 121.201 238.975 121.651 239.175C122.118 239.358 122.768 239.575 123.601 239.825C124.735 240.158 125.66 240.492 126.376 240.825C127.093 241.158 127.71 241.658 128.226 242.325C128.743 242.992 129.001 243.867 129.001 244.95C129.001 245.883 128.76 246.75 128.276 247.55C127.793 248.35 127.085 248.992 126.151 249.475C125.218 249.942 124.11 250.175 122.826 250.175ZM144.093 232.55C145.926 232.55 147.534 232.908 148.918 233.625C150.318 234.342 151.393 235.367 152.143 236.7C152.909 238.017 153.293 239.55 153.293 241.3C153.293 243.05 152.909 244.583 152.143 245.9C151.393 247.2 150.318 248.208 148.918 248.925C147.534 249.642 145.926 250 144.093 250H137.993V232.55H144.093ZM143.968 247.025C145.801 247.025 147.218 246.525 148.218 245.525C149.218 244.525 149.718 243.117 149.718 241.3C149.718 239.483 149.218 238.067 148.218 237.05C147.218 236.017 145.801 235.5 143.968 235.5H141.493V247.025H143.968ZM159.413 235.375V239.75H165.288V242.525H159.413V247.15H166.038V250H155.913V232.525H166.038V235.375H159.413ZM194.2 232.55V250H190.7V238.65L186.025 250H183.375L178.675 238.65V250H175.175V232.55H179.15L184.7 245.525L190.25 232.55H194.2ZM201.161 235.375V239.75H207.036V242.525H201.161V247.15H207.786V250H197.661V232.525H207.786V235.375H201.161ZM216.991 250.175C215.775 250.175 214.675 249.967 213.691 249.55C212.725 249.133 211.958 248.533 211.391 247.75C210.825 246.967 210.533 246.042 210.516 244.975H214.266C214.316 245.692 214.566 246.258 215.016 246.675C215.483 247.092 216.116 247.3 216.916 247.3C217.733 247.3 218.375 247.108 218.841 246.725C219.308 246.325 219.541 245.808 219.541 245.175C219.541 244.658 219.383 244.233 219.066 243.9C218.75 243.567 218.35 243.308 217.866 243.125C217.4 242.925 216.75 242.708 215.916 242.475C214.783 242.142 213.858 241.817 213.141 241.5C212.441 241.167 211.833 240.675 211.316 240.025C210.816 239.358 210.566 238.475 210.566 237.375C210.566 236.342 210.825 235.442 211.341 234.675C211.858 233.908 212.583 233.325 213.516 232.925C214.45 232.508 215.516 232.3 216.716 232.3C218.516 232.3 219.975 232.742 221.091 233.625C222.225 234.492 222.85 235.708 222.966 237.275H219.116C219.083 236.675 218.825 236.183 218.341 235.8C217.875 235.4 217.25 235.2 216.466 235.2C215.783 235.2 215.233 235.375 214.816 235.725C214.416 236.075 214.216 236.583 214.216 237.25C214.216 237.717 214.366 238.108 214.666 238.425C214.983 238.725 215.366 238.975 215.816 239.175C216.283 239.358 216.933 239.575 217.766 239.825C218.9 240.158 219.825 240.492 220.541 240.825C221.258 241.158 221.875 241.658 222.391 242.325C222.908 242.992 223.166 243.867 223.166 244.95C223.166 245.883 222.925 246.75 222.441 247.55C221.958 248.35 221.25 248.992 220.316 249.475C219.383 249.942 218.275 250.175 216.991 250.175ZM236.901 246.675H229.951L228.801 250H225.126L231.401 232.525H235.476L241.751 250H238.051L236.901 246.675ZM235.951 243.875L233.426 236.575L230.901 243.875H235.951Z" fill="white"/>
<path d="M195.597 129.91C195.537 124.457 194.37 119.073 192.167 114.084C189.964 109.095 186.77 104.606 182.779 100.887C175.018 93.7146 164.784 89.8165 154.215 90.0066C143.646 90.1968 133.559 94.4604 126.061 101.907C120.301 107.659 116.411 115.013 114.9 123.01C113.389 131.006 114.327 139.272 117.591 146.727C118.476 148.67 118.755 150.834 118.39 152.937C118.026 155.04 117.036 156.985 115.55 158.518L101.559 172.5C101.382 172.676 101.241 172.885 101.145 173.115C101.049 173.345 101 173.592 101 173.842C101 174.091 101.049 174.338 101.145 174.568C101.241 174.799 101.382 175.008 101.559 175.183L110.218 183.837C110.387 184.019 110.592 184.163 110.82 184.261C111.048 184.358 111.294 184.407 111.542 184.404C111.795 184.408 112.047 184.359 112.281 184.262C112.515 184.164 112.727 184.02 112.903 183.837L126.931 169.817C128.435 168.335 130.355 167.346 132.435 166.981C134.516 166.617 136.658 166.894 138.577 167.776C144.811 170.519 151.636 171.652 158.422 171.071C165.209 170.49 171.741 168.214 177.418 164.452C183.095 160.689 187.735 155.561 190.912 149.539C194.088 143.516 195.699 136.793 195.597 129.986V129.91ZM111.542 179.831L105.567 173.861L118.234 161.163C118.898 160.493 119.494 159.759 120.011 158.971L126.439 165.395C125.651 165.913 124.916 166.508 124.246 167.172L111.542 179.831ZM140.089 164.299C136.935 162.888 133.378 162.66 130.069 163.657L121.789 155.343C122.772 151.993 122.531 148.403 121.108 145.215C118.145 138.404 117.301 130.858 118.688 123.561L157.256 162.183C157.605 162.539 158.081 162.743 158.579 162.75C159.09 162.749 159.58 162.545 159.941 162.183C160.287 161.83 160.481 161.355 160.481 160.861C160.481 160.366 160.287 159.891 159.941 159.538L119.747 119.329C121.617 113.366 124.976 107.977 129.506 103.67C134.037 99.363 139.59 96.2798 145.642 94.7108C151.695 93.1419 158.047 93.1388 164.101 94.702C170.155 96.2651 175.711 99.343 180.246 103.646C186.58 109.602 190.605 117.603 191.613 126.236C192.62 134.87 190.544 143.582 185.751 150.835C180.959 158.088 173.757 163.416 165.416 165.88C157.076 168.343 148.133 167.783 140.165 164.299H140.089Z" fill="white"/>
<path d="M188.906 163.657C186.102 163.657 183.36 164.488 181.028 166.045C178.697 167.603 176.879 169.816 175.806 172.405C174.733 174.995 174.452 177.844 174.999 180.593C175.546 183.342 176.897 185.867 178.88 187.849C180.863 189.831 183.389 191.181 186.14 191.728C188.89 192.275 191.741 191.994 194.332 190.921C196.923 189.849 199.138 188.032 200.696 185.702C202.254 183.371 203.085 180.631 203.085 177.829C203.085 174.07 201.592 170.465 198.932 167.808C196.273 165.15 192.667 163.657 188.906 163.657ZM188.906 188.221C186.849 188.221 184.839 187.611 183.129 186.47C181.419 185.328 180.086 183.705 179.299 181.806C178.512 179.907 178.306 177.817 178.708 175.801C179.109 173.785 180.099 171.933 181.553 170.48C183.008 169.027 184.86 168.037 186.877 167.636C188.894 167.235 190.985 167.441 192.885 168.227C194.785 169.014 196.409 170.346 197.552 172.055C198.694 173.764 199.304 175.773 199.304 177.829C199.294 180.578 198.194 183.212 196.245 185.153C194.296 187.093 191.657 188.183 188.906 188.183V188.221Z" fill="white"/>
</svg>
